<svg width="373" height="88" viewBox="0 0 373 88" fill="none" xmlns="http://www.w3.org/2000/svg">
<path d="M18.312 24.452C16.3333 26.412 13.9253 27.392 11.088 27.392C8.25067 27.392 5.84267 26.412 3.864 24.452C1.904 22.4733 0.924 20.056 0.924 17.2C0.924 14.344 1.904 11.936 3.864 9.976C5.84267 7.99733 8.25067 7.008 11.088 7.008C13.9253 7.008 16.3333 7.99733 18.312 9.976C20.2907 11.936 21.28 14.344 21.28 17.2C21.28 20.056 20.2907 22.4733 18.312 24.452ZM6.58 21.82C7.79333 23.0147 9.296 23.612 11.088 23.612C12.88 23.612 14.3827 23.0147 15.596 21.82C16.8093 20.6067 17.416 19.0667 17.416 17.2C17.416 15.3333 16.8093 13.7933 15.596 12.58C14.3827 11.3667 12.88 10.76 11.088 10.76C9.296 10.76 7.79333 11.3667 6.58 12.58C5.36667 13.7933 4.76 15.3333 4.76 17.2C4.76 19.0667 5.36667 20.6067 6.58 21.82ZM30.4638 27.392C28.2611 27.392 26.4784 26.6827 25.1158 25.264C23.7718 23.8453 23.0998 22.044 23.0998 19.86C23.0998 17.4707 23.4544 15.632 24.1638 14.344C24.8731 13.0373 26.3011 11.852 28.4478 10.788C28.7651 10.6387 29.2131 10.4333 29.7918 10.172C30.3704 9.892 30.7624 9.696 30.9678 9.584C31.1918 9.472 31.4904 9.304 31.8638 9.08C32.2371 8.856 32.4984 8.66 32.6478 8.492C32.8158 8.30533 32.9931 8.072 33.1798 7.792C33.3664 7.512 33.5158 7.204 33.6278 6.868L36.5958 8.576C36.3531 9.71467 35.8024 10.6013 34.9438 11.236C34.1038 11.852 32.8344 12.4867 31.1358 13.14C29.9411 13.6067 29.0731 14.0733 28.5318 14.54C27.9904 15.0067 27.5984 15.5667 27.3558 16.22C28.4011 15.156 29.8011 14.624 31.5558 14.624C33.1051 14.624 34.4864 15.1933 35.6998 16.332C36.9131 17.452 37.5198 18.9453 37.5198 20.812C37.5198 22.7347 36.8664 24.312 35.5598 25.544C34.2718 26.776 32.5731 27.392 30.4638 27.392ZM27.8878 23.136C28.5784 23.7707 29.4278 24.088 30.4358 24.088C31.4438 24.088 32.2744 23.78 32.9278 23.164C33.5811 22.548 33.9078 21.764 33.9078 20.812C33.9078 19.86 33.5811 19.076 32.9278 18.46C32.2744 17.8253 31.4344 17.508 30.4078 17.508C29.4931 17.508 28.6718 17.7973 27.9438 18.376C27.2344 18.9547 26.8798 19.7293 26.8798 20.7C26.8798 21.6893 27.2158 22.5013 27.8878 23.136ZM54.2745 13V27H50.7745V18.824L47.2185 24.424H46.7705L43.1865 18.768V27H39.7145V13H43.2705L46.9945 18.88L50.7185 13H54.2745ZM60.622 21.484C61.1073 23.2387 62.4233 24.116 64.57 24.116C65.9513 24.116 66.9966 23.6493 67.706 22.716L70.618 24.396C69.2366 26.3933 67.202 27.392 64.514 27.392C62.1993 27.392 60.342 26.692 58.942 25.292C57.542 23.892 56.842 22.128 56.842 20C56.842 17.8907 57.5326 16.136 58.914 14.736C60.2953 13.3173 62.0686 12.608 64.234 12.608C66.2873 12.608 67.9766 13.3173 69.302 14.736C70.646 16.1547 71.318 17.9093 71.318 20C71.318 20.4667 71.2713 20.9613 71.178 21.484H60.622ZM60.566 18.684H67.706C67.5006 17.732 67.0713 17.0227 66.418 16.556C65.7833 16.0893 65.0553 15.856 64.234 15.856C63.2633 15.856 62.4606 16.108 61.826 16.612C61.1913 17.0973 60.7713 17.788 60.566 18.684ZM83.0235 13H86.6355V27H83.0235V21.68H77.4515V27H73.8395V13H77.4515V18.292H83.0235V13ZM107.025 19.832C108.332 20.4667 108.985 21.5307 108.985 23.024C108.985 24.2 108.574 25.1613 107.753 25.908C106.95 26.636 105.802 27 104.309 27H96.945V13H103.749C105.224 13 106.362 13.364 107.165 14.092C107.986 14.82 108.397 15.772 108.397 16.948C108.397 18.18 107.94 19.1413 107.025 19.832ZM103.413 15.968H100.333V18.488H103.413C104.44 18.488 104.953 18.068 104.953 17.228C104.953 16.388 104.44 15.968 103.413 15.968ZM103.889 23.948C104.934 23.948 105.457 23.5 105.457 22.604C105.457 22.212 105.317 21.904 105.037 21.68C104.757 21.456 104.374 21.344 103.889 21.344H100.333V23.948H103.889ZM121.886 13H125.498V27H121.886V25.348C120.803 26.7107 119.282 27.392 117.322 27.392C115.455 27.392 113.85 26.6827 112.506 25.264C111.18 23.8267 110.518 22.072 110.518 20C110.518 17.928 111.18 16.1827 112.506 14.764C113.85 13.3267 115.455 12.608 117.322 12.608C119.282 12.608 120.803 13.2893 121.886 14.652V13ZM115.222 22.856C115.95 23.584 116.874 23.948 117.994 23.948C119.114 23.948 120.038 23.584 120.766 22.856C121.512 22.1093 121.886 21.1573 121.886 20C121.886 18.8427 121.512 17.9 120.766 17.172C120.038 16.4253 119.114 16.052 117.994 16.052C116.874 16.052 115.95 16.4253 115.222 17.172C114.494 17.9 114.13 18.8427 114.13 20C114.13 21.1573 114.494 22.1093 115.222 22.856ZM145.181 13H148.793V27H128.773V13H132.385V23.612H136.977V13H140.589V23.612H145.181V13ZM155.149 21.484C155.635 23.2387 156.951 24.116 159.097 24.116C160.479 24.116 161.524 23.6493 162.233 22.716L165.145 24.396C163.764 26.3933 161.729 27.392 159.041 27.392C156.727 27.392 154.869 26.692 153.469 25.292C152.069 23.892 151.369 22.128 151.369 20C151.369 17.8907 152.06 16.136 153.441 14.736C154.823 13.3173 156.596 12.608 158.761 12.608C160.815 12.608 162.504 13.3173 163.829 14.736C165.173 16.1547 165.845 17.9093 165.845 20C165.845 20.4667 165.799 20.9613 165.705 21.484H155.149ZM155.093 18.684H162.233C162.028 17.732 161.599 17.0227 160.945 16.556C160.311 16.0893 159.583 15.856 158.761 15.856C157.791 15.856 156.988 16.108 156.353 16.612C155.719 17.0973 155.299 17.788 155.093 18.684ZM170.719 11.208V8.072H178.839V11.208H170.719ZM178.475 13H181.163V27H177.635V19.048L171.055 27H168.367V13H171.895V20.952L178.475 13ZM198.136 27.392C196.027 27.392 194.263 26.6827 192.844 25.264C191.444 23.8453 190.744 22.0907 190.744 20C190.744 17.9093 191.444 16.1547 192.844 14.736C194.263 13.3173 196.027 12.608 198.136 12.608C199.499 12.608 200.74 12.9347 201.86 13.588C202.98 14.2413 203.83 15.1187 204.408 16.22L201.3 18.04C201.02 17.4613 200.591 17.004 200.012 16.668C199.452 16.332 198.818 16.164 198.108 16.164C197.026 16.164 196.13 16.528 195.42 17.256C194.711 17.9653 194.356 18.88 194.356 20C194.356 21.1013 194.711 22.016 195.42 22.744C196.13 23.4533 197.026 23.808 198.108 23.808C198.836 23.808 199.48 23.6493 200.04 23.332C200.619 22.996 201.048 22.5387 201.328 21.96L204.464 23.752C203.848 24.8533 202.98 25.74 201.86 26.412C200.74 27.0653 199.499 27.392 198.136 27.392ZM215.065 13H218.929L213.833 27C212.414 30.9387 209.95 32.8053 206.441 32.6V29.24C207.393 29.2587 208.14 29.0813 208.681 28.708C209.241 28.3347 209.689 27.7093 210.025 26.832L204.369 13H208.205L211.957 22.408L215.065 13ZM235.208 13V27H231.708V18.824L228.152 24.424H227.704L224.12 18.768V27H220.648V13H224.204L227.928 18.88L231.652 13H235.208ZM253.064 13V27H249.564V18.824L246.008 24.424H245.56L241.976 18.768V27H238.504V13H242.06L245.784 18.88L249.508 13H253.064ZM262.687 17.48C264.274 17.48 265.552 17.9187 266.523 18.796C267.494 19.6547 267.979 20.8027 267.979 22.24C267.979 23.6773 267.494 24.8347 266.523 25.712C265.552 26.5707 264.274 27 262.687 27H256.359V13H259.971V17.48H262.687ZM269.519 13H273.131V27H269.519V13ZM262.715 23.808C263.219 23.808 263.63 23.668 263.947 23.388C264.283 23.0893 264.451 22.7067 264.451 22.24C264.451 21.7733 264.283 21.3907 263.947 21.092C263.63 20.7933 263.219 20.644 262.715 20.644H259.971V23.808H262.715ZM316.43 13H320.042V27H316.43V21.68H310.858V27H307.246V13H310.858V18.292H316.43V13ZM333.991 13H337.603V27H333.991V25.348C332.909 26.7107 331.387 27.392 329.427 27.392C327.561 27.392 325.955 26.6827 324.611 25.264C323.286 23.8267 322.623 22.072 322.623 20C322.623 17.928 323.286 16.1827 324.611 14.764C325.955 13.3267 327.561 12.608 329.427 12.608C331.387 12.608 332.909 13.2893 333.991 14.652V13ZM327.327 22.856C328.055 23.584 328.979 23.948 330.099 23.948C331.219 23.948 332.143 23.584 332.871 22.856C333.618 22.1093 333.991 21.1573 333.991 20C333.991 18.8427 333.618 17.9 332.871 17.172C332.143 16.4253 331.219 16.052 330.099 16.052C328.979 16.052 328.055 16.4253 327.327 17.172C326.599 17.9 326.235 18.8427 326.235 20C326.235 21.1573 326.599 22.1093 327.327 22.856Z" fill="white"/>
<path d="M291.549 20.196H288.077V21.736H294.321V24.2H288.077V27H284.241V24.2H282.141V21.736H284.241V20.196H282.141V16.808H284.241V7.4H291.549C293.397 7.4 294.956 8.03467 296.225 9.304C297.513 10.5733 298.157 12.104 298.157 13.896C298.157 15.688 297.523 17.1907 296.253 18.404C294.984 19.5987 293.416 20.196 291.549 20.196ZM288.077 11.012V16.808H291.549C292.333 16.808 292.987 16.528 293.509 15.968C294.051 15.408 294.321 14.7173 294.321 13.896C294.321 13.0747 294.051 12.3933 293.509 11.852C292.987 11.292 292.333 11.012 291.549 11.012H288.077Z" fill="#0094FF"/>
<path d="M367.283 16.472V17.984C367.283 20.784 366.387 23.052 364.595 24.788C362.803 26.524 360.488 27.392 357.651 27.392C354.627 27.392 352.116 26.412 350.119 24.452C348.14 22.4733 347.151 20.0653 347.151 17.228C347.151 14.372 348.131 11.9547 350.091 9.976C352.069 7.99733 354.515 7.008 357.427 7.008C359.256 7.008 360.927 7.428 362.439 8.268C363.951 9.08933 365.127 10.1907 365.967 11.572L362.663 13.476C362.196 12.6733 361.487 12.02 360.535 11.516C359.601 11.012 358.556 10.76 357.399 10.76C355.532 10.76 353.992 11.376 352.779 12.608C351.584 13.8213 350.987 15.3613 350.987 17.228C350.987 19.076 351.593 20.6067 352.807 21.82C354.039 23.0147 355.663 23.612 357.679 23.612C359.172 23.612 360.404 23.2853 361.375 22.632C362.364 21.96 363.036 21.0453 363.391 19.888H357.455V16.472H367.283Z" fill="#FF922B"/>
<path d="M7.488 59.192C8.032 59.4267 8.464 59.784 8.784 60.264C9.11467 60.7333 9.28 61.272 9.28 61.88C9.28 62.744 8.976 63.48 8.368 64.088C7.76 64.696 7.024 65 6.16 65H1.28V53.8H5.792C6.624 53.8 7.33333 54.0987 7.92 54.696C8.50667 55.2827 8.8 55.9867 8.8 56.808C8.8 57.8533 8.36267 58.648 7.488 59.192ZM5.792 54.856H2.4V58.76H5.792C6.31467 58.76 6.75733 58.5733 7.12 58.2C7.49333 57.816 7.68 57.352 7.68 56.808C7.68 56.2747 7.49333 55.816 7.12 55.432C6.75733 55.048 6.31467 54.856 5.792 54.856ZM6.16 63.944C6.71467 63.944 7.184 63.7467 7.568 63.352C7.96267 62.9467 8.16 62.456 8.16 61.88C8.16 61.3147 7.96267 60.8293 7.568 60.424C7.184 60.0187 6.71467 59.816 6.16 59.816H2.4V63.944H6.16ZM18.7699 65.192C17.5645 65.192 16.5619 64.792 15.7619 63.992C14.9619 63.1813 14.5619 62.184 14.5619 61C14.5619 59.816 14.9619 58.824 15.7619 58.024C16.5619 57.2133 17.5645 56.808 18.7699 56.808C19.5592 56.808 20.2685 57 20.8979 57.384C21.5272 57.7573 21.9859 58.264 22.2739 58.904L21.4099 59.4C21.1965 58.92 20.8499 58.5413 20.3699 58.264C19.9005 57.976 19.3672 57.832 18.7699 57.832C17.8845 57.832 17.1379 58.1413 16.5299 58.76C15.9219 59.368 15.6179 60.1147 15.6179 61C15.6179 61.8853 15.9219 62.6373 16.5299 63.256C17.1379 63.864 17.8845 64.168 18.7699 64.168C19.3672 64.168 19.9005 64.0293 20.3699 63.752C20.8392 63.464 21.2072 63.08 21.4739 62.6L22.3539 63.112C22.0232 63.752 21.5379 64.2587 20.8979 64.632C20.2579 65.0053 19.5485 65.192 18.7699 65.192ZM30.2738 57V65H29.2178V58.024H25.6018V61.592C25.6018 62.9253 25.3458 63.8427 24.8338 64.344C24.3324 64.8453 23.6391 65.064 22.7538 65V64.008C23.3618 64.072 23.8098 63.928 24.0978 63.576C24.3964 63.224 24.5458 62.5627 24.5458 61.592V57H30.2738ZM38.2706 57H39.3906L35.9666 65.736C35.6573 66.5253 35.2146 67.144 34.6386 67.592C34.0733 68.0507 33.4386 68.2533 32.7346 68.2V67.208C33.6946 67.3147 34.4253 66.76 34.9266 65.544L35.1346 65.048L31.5506 57H32.6706L35.6786 63.704L38.2706 57ZM45.8509 57H46.9069V65H45.8509V61.96C45.2322 62.28 44.4695 62.44 43.5629 62.44C42.5175 62.44 41.7175 62.2 41.1629 61.72C40.6189 61.2293 40.3469 60.5093 40.3469 59.56V57H41.4029V59.56C41.4029 60.232 41.5789 60.7173 41.9309 61.016C42.2829 61.304 42.8162 61.448 43.5309 61.448C44.3629 61.448 45.1362 61.2933 45.8509 60.984V57ZM56.0312 57H57.0873V65H56.0312V63.432C55.2953 64.6053 54.2179 65.192 52.7993 65.192C51.6579 65.192 50.6819 64.7867 49.8713 63.976C49.0713 63.1653 48.6713 62.1733 48.6713 61C48.6713 59.8267 49.0713 58.8347 49.8713 58.024C50.6819 57.2133 51.6579 56.808 52.7993 56.808C54.2179 56.808 55.2953 57.3947 56.0312 58.568V57ZM50.6393 63.256C51.2473 63.864 51.9939 64.168 52.8793 64.168C53.7646 64.168 54.5113 63.864 55.1193 63.256C55.7273 62.6373 56.0312 61.8853 56.0312 61C56.0312 60.1147 55.7273 59.368 55.1193 58.76C54.5113 58.1413 53.7646 57.832 52.8793 57.832C51.9939 57.832 51.2473 58.1413 50.6393 58.76C50.0313 59.368 49.7273 60.1147 49.7273 61C49.7273 61.8853 50.0313 62.6373 50.6393 63.256ZM63.0191 56.808C64.2031 56.808 65.1578 57.2293 65.8831 58.072C66.6191 58.904 66.9871 59.8907 66.9871 61.032C66.9871 61.1493 66.9765 61.3147 66.9551 61.528H59.9311C60.0378 62.3387 60.3791 62.984 60.9551 63.464C61.5418 63.9333 62.2618 64.168 63.1151 64.168C63.7231 64.168 64.2458 64.0453 64.6831 63.8C65.1311 63.544 65.4671 63.2133 65.6911 62.808L66.6191 63.352C66.2671 63.9173 65.7871 64.3653 65.1791 64.696C64.5711 65.0267 63.8778 65.192 63.0991 65.192C61.8405 65.192 60.8165 64.7973 60.0271 64.008C59.2378 63.2187 58.8431 62.216 58.8431 61C58.8431 59.8053 59.2325 58.808 60.0111 58.008C60.7898 57.208 61.7925 56.808 63.0191 56.808ZM63.0191 57.832C62.1871 57.832 61.4885 58.0827 60.9231 58.584C60.3685 59.0747 60.0378 59.7147 59.9311 60.504H65.8991C65.7925 59.6613 65.4671 59.0053 64.9231 58.536C64.3791 58.0667 63.7445 57.832 63.0191 57.832ZM78.3309 57H79.3869V65H78.3309V61.512H73.7229V65H72.6669V57H73.7229V60.488H78.3309V57ZM85.316 56.808C86.5 56.808 87.4547 57.2293 88.18 58.072C88.916 58.904 89.284 59.8907 89.284 61.032C89.284 61.1493 89.2733 61.3147 89.252 61.528H82.228C82.3347 62.3387 82.676 62.984 83.252 63.464C83.8387 63.9333 84.5587 64.168 85.412 64.168C86.02 64.168 86.5427 64.0453 86.98 63.8C87.428 63.544 87.764 63.2133 87.988 62.808L88.916 63.352C88.564 63.9173 88.084 64.3653 87.476 64.696C86.868 65.0267 86.1747 65.192 85.396 65.192C84.1373 65.192 83.1133 64.7973 82.324 64.008C81.5347 63.2187 81.14 62.216 81.14 61C81.14 59.8053 81.5293 58.808 82.308 58.008C83.0867 57.208 84.0893 56.808 85.316 56.808ZM85.316 57.832C84.484 57.832 83.7853 58.0827 83.22 58.584C82.6653 59.0747 82.3347 59.7147 82.228 60.504H88.196C88.0893 59.6613 87.764 59.0053 87.22 58.536C86.676 58.0667 86.0413 57.832 85.316 57.832ZM97.6838 57V65H96.6278V58.024H92.0198V65H90.9638V57H97.6838ZM104.205 56.808C105.346 56.808 106.317 57.2133 107.117 58.024C107.928 58.8347 108.333 59.8267 108.333 61C108.333 62.1733 107.928 63.1653 107.117 63.976C106.317 64.7867 105.346 65.192 104.205 65.192C102.786 65.192 101.709 64.6053 100.973 63.432V68.2H99.9169V57H100.973V58.568C101.709 57.3947 102.786 56.808 104.205 56.808ZM101.885 63.256C102.493 63.864 103.24 64.168 104.125 64.168C105.01 64.168 105.757 63.864 106.365 63.256C106.973 62.6373 107.277 61.8853 107.277 61C107.277 60.1147 106.973 59.368 106.365 58.76C105.757 58.1413 105.01 57.832 104.125 57.832C103.24 57.832 102.493 58.1413 101.885 58.76C101.277 59.368 100.973 60.1147 100.973 61C100.973 61.8853 101.277 62.6373 101.885 63.256ZM116.793 63.992C115.982 64.792 114.99 65.192 113.817 65.192C112.643 65.192 111.646 64.792 110.825 63.992C110.014 63.1813 109.609 62.184 109.609 61C109.609 59.816 110.014 58.824 110.825 58.024C111.646 57.2133 112.643 56.808 113.817 56.808C114.99 56.808 115.982 57.2133 116.793 58.024C117.614 58.824 118.025 59.816 118.025 61C118.025 62.184 117.614 63.1813 116.793 63.992ZM111.577 63.256C112.185 63.864 112.931 64.168 113.817 64.168C114.702 64.168 115.449 63.864 116.057 63.256C116.665 62.6373 116.969 61.8853 116.969 61C116.969 60.1147 116.665 59.368 116.057 58.76C115.449 58.1413 114.702 57.832 113.817 57.832C112.931 57.832 112.185 58.1413 111.577 58.76C110.969 59.368 110.665 60.1147 110.665 61C110.665 61.8853 110.969 62.6373 111.577 63.256ZM125.949 65H124.685L122.189 61.704L119.693 65H118.429L121.565 60.856L118.637 57H119.901L122.189 60.024L124.477 57H125.741L122.829 60.856L125.949 65ZM133.527 63.992C132.716 64.792 131.724 65.192 130.551 65.192C129.378 65.192 128.38 64.792 127.559 63.992C126.748 63.1813 126.343 62.184 126.343 61C126.343 59.816 126.748 58.824 127.559 58.024C128.38 57.2133 129.378 56.808 130.551 56.808C131.724 56.808 132.716 57.2133 133.527 58.024C134.348 58.824 134.759 59.816 134.759 61C134.759 62.184 134.348 63.1813 133.527 63.992ZM128.311 63.256C128.919 63.864 129.666 64.168 130.551 64.168C131.436 64.168 132.183 63.864 132.791 63.256C133.399 62.6373 133.703 61.8853 133.703 61C133.703 60.1147 133.399 59.368 132.791 58.76C132.183 58.1413 131.436 57.832 130.551 57.832C129.666 57.832 128.919 58.1413 128.311 58.76C127.703 59.368 127.399 60.1147 127.399 61C127.399 61.8853 127.703 62.6373 128.311 63.256ZM142.934 63.976H144.054V67.144H142.998V65H136.47V67.144H135.414V63.976H136.39C136.934 63.2613 137.206 62.2533 137.206 60.952V57H142.934V63.976ZM137.67 63.976H141.878V58.024H138.262V60.952C138.262 62.1787 138.064 63.1867 137.67 63.976ZM151.475 57H152.371V65H151.315V58.84L146.547 65H145.651V57H146.707V63.16L151.475 57ZM162.444 57V65H161.388V58.616L158.588 63.16H158.46L155.66 58.616V65H154.604V57H155.82L158.524 61.384L161.228 57H162.444ZM171.387 63.992C170.576 64.792 169.584 65.192 168.411 65.192C167.237 65.192 166.24 64.792 165.419 63.992C164.608 63.1813 164.203 62.184 164.203 61C164.203 59.816 164.608 58.824 165.419 58.024C166.24 57.2133 167.237 56.808 168.411 56.808C169.584 56.808 170.576 57.2133 171.387 58.024C172.208 58.824 172.619 59.816 172.619 61C172.619 62.184 172.208 63.1813 171.387 63.992ZM166.171 63.256C166.779 63.864 167.525 64.168 168.411 64.168C169.296 64.168 170.043 63.864 170.651 63.256C171.259 62.6373 171.562 61.8853 171.562 61C171.562 60.1147 171.259 59.368 170.651 58.76C170.043 58.1413 169.296 57.832 168.411 57.832C167.525 57.832 166.779 58.1413 166.171 58.76C165.563 59.368 165.259 60.1147 165.259 61C165.259 61.8853 165.563 62.6373 166.171 63.256ZM178.114 65.192C176.908 65.192 175.906 64.792 175.106 63.992C174.306 63.1813 173.906 62.184 173.906 61C173.906 59.816 174.306 58.824 175.106 58.024C175.906 57.2133 176.908 56.808 178.114 56.808C178.903 56.808 179.612 57 180.242 57.384C180.871 57.7573 181.33 58.264 181.618 58.904L180.754 59.4C180.54 58.92 180.194 58.5413 179.714 58.264C179.244 57.976 178.711 57.832 178.114 57.832C177.228 57.832 176.482 58.1413 175.874 58.76C175.266 59.368 174.962 60.1147 174.962 61C174.962 61.8853 175.266 62.6373 175.874 63.256C176.482 63.864 177.228 64.168 178.114 64.168C178.711 64.168 179.244 64.0293 179.714 63.752C180.183 63.464 180.551 63.08 180.818 62.6L181.698 63.112C181.367 63.752 180.882 64.2587 180.242 64.632C179.602 65.0053 178.892 65.192 178.114 65.192ZM188.818 57V58.024H185.986V65H184.93V58.024H182.098V57H188.818ZM195.928 57H196.824V65H195.768V58.84L191 65H190.104V57H191.16V63.16L195.928 57ZM209.778 57V65H208.722V58.024H204.114V65H203.058V57H209.778ZM218.571 57V65H217.515V58.024H213.899V61.592C213.899 62.9253 213.643 63.8427 213.131 64.344C212.629 64.8453 211.936 65.064 211.051 65V64.008C211.659 64.072 212.107 63.928 212.395 63.576C212.693 63.224 212.843 62.5627 212.843 61.592V57H218.571ZM227.688 57H228.744V65H227.688V63.432C226.952 64.6053 225.874 65.192 224.456 65.192C223.314 65.192 222.338 64.7867 221.528 63.976C220.728 63.1653 220.328 62.1733 220.328 61C220.328 59.8267 220.728 58.8347 221.528 58.024C222.338 57.2133 223.314 56.808 224.456 56.808C225.874 56.808 226.952 57.3947 227.688 58.568V57ZM222.296 63.256C222.904 63.864 223.65 64.168 224.536 64.168C225.421 64.168 226.168 63.864 226.776 63.256C227.384 62.6373 227.688 61.8853 227.688 61C227.688 60.1147 227.384 59.368 226.776 58.76C226.168 58.1413 225.421 57.832 224.536 57.832C223.65 57.832 222.904 58.1413 222.296 58.76C221.688 59.368 221.384 60.1147 221.384 61C221.384 61.8853 221.688 62.6373 222.296 63.256ZM236.739 57V58.024H233.907V65H232.851V58.024H230.019V57H236.739ZM241.41 56.808C242.594 56.808 243.548 57.2293 244.274 58.072C245.01 58.904 245.378 59.8907 245.378 61.032C245.378 61.1493 245.367 61.3147 245.346 61.528H238.322C238.428 62.3387 238.77 62.984 239.346 63.464C239.932 63.9333 240.652 64.168 241.506 64.168C242.114 64.168 242.636 64.0453 243.074 63.8C243.522 63.544 243.858 63.2133 244.082 62.808L245.01 63.352C244.658 63.9173 244.178 64.3653 243.57 64.696C242.962 65.0267 242.268 65.192 241.49 65.192C240.231 65.192 239.207 64.7973 238.418 64.008C237.628 63.2187 237.234 62.216 237.234 61C237.234 59.8053 237.623 58.808 238.402 58.008C239.18 57.208 240.183 56.808 241.41 56.808ZM241.41 57.832C240.578 57.832 239.879 58.0827 239.314 58.584C238.759 59.0747 238.428 59.7147 238.322 60.504H244.29C244.183 59.6613 243.858 59.0053 243.314 58.536C242.77 58.0667 242.135 57.832 241.41 57.832ZM255.917 65H254.637L251.373 61.144V65H250.317V61.144L247.053 65H245.773L249.357 60.84L245.933 57H247.213L250.317 60.552V57H251.373V60.552L254.477 57H255.757L252.333 60.84L255.917 65ZM263.594 57H264.65V65H263.594V63.432C262.858 64.6053 261.78 65.192 260.362 65.192C259.22 65.192 258.244 64.7867 257.434 63.976C256.634 63.1653 256.234 62.1733 256.234 61C256.234 59.8267 256.634 58.8347 257.434 58.024C258.244 57.2133 259.22 56.808 260.362 56.808C261.78 56.808 262.858 57.3947 263.594 58.568V57ZM258.202 63.256C258.81 63.864 259.556 64.168 260.442 64.168C261.327 64.168 262.074 63.864 262.682 63.256C263.29 62.6373 263.594 61.8853 263.594 61C263.594 60.1147 263.29 59.368 262.682 58.76C262.074 58.1413 261.327 57.832 260.442 57.832C259.556 57.832 258.81 58.1413 258.202 58.76C257.594 59.368 257.29 60.1147 257.29 61C257.29 61.8853 257.594 62.6373 258.202 63.256ZM276.07 57H277.126V65H276.07V61.96C275.451 62.28 274.688 62.44 273.782 62.44C272.736 62.44 271.936 62.2 271.382 61.72C270.838 61.2293 270.566 60.5093 270.566 59.56V57H271.622V59.56C271.622 60.232 271.798 60.7173 272.15 61.016C272.502 61.304 273.035 61.448 273.75 61.448C274.582 61.448 275.355 61.2933 276.07 60.984V57ZM283.066 56.808C284.25 56.808 285.205 57.2293 285.93 58.072C286.666 58.904 287.034 59.8907 287.034 61.032C287.034 61.1493 287.023 61.3147 287.002 61.528H279.978C280.085 62.3387 280.426 62.984 281.002 63.464C281.589 63.9333 282.309 64.168 283.162 64.168C283.77 64.168 284.293 64.0453 284.73 63.8C285.178 63.544 285.514 63.2133 285.738 62.808L286.666 63.352C286.314 63.9173 285.834 64.3653 285.226 64.696C284.618 65.0267 283.925 65.192 283.146 65.192C281.887 65.192 280.863 64.7973 280.074 64.008C279.285 63.2187 278.89 62.216 278.89 61C278.89 59.8053 279.279 58.808 280.058 58.008C280.837 57.208 281.839 56.808 283.066 56.808ZM283.066 57.832C282.234 57.832 281.535 58.0827 280.97 58.584C280.415 59.0747 280.085 59.7147 279.978 60.504H285.946C285.839 59.6613 285.514 59.0053 284.97 58.536C284.426 58.0667 283.791 57.832 283.066 57.832ZM293.002 56.808C294.143 56.808 295.114 57.2133 295.914 58.024C296.724 58.8347 297.13 59.8267 297.13 61C297.13 62.1733 296.724 63.1653 295.914 63.976C295.114 64.7867 294.143 65.192 293.002 65.192C291.583 65.192 290.506 64.6053 289.77 63.432V68.2H288.714V57H289.77V58.568C290.506 57.3947 291.583 56.808 293.002 56.808ZM290.682 63.256C291.29 63.864 292.036 64.168 292.922 64.168C293.807 64.168 294.554 63.864 295.162 63.256C295.77 62.6373 296.074 61.8853 296.074 61C296.074 60.1147 295.77 59.368 295.162 58.76C294.554 58.1413 293.807 57.832 292.922 57.832C292.036 57.832 291.29 58.1413 290.682 58.76C290.074 59.368 289.77 60.1147 289.77 61C289.77 61.8853 290.074 62.6373 290.682 63.256ZM302.582 56.808C303.766 56.808 304.72 57.2293 305.446 58.072C306.182 58.904 306.55 59.8907 306.55 61.032C306.55 61.1493 306.539 61.3147 306.518 61.528H299.494C299.6 62.3387 299.942 62.984 300.518 63.464C301.104 63.9333 301.824 64.168 302.678 64.168C303.286 64.168 303.808 64.0453 304.246 63.8C304.694 63.544 305.03 63.2133 305.254 62.808L306.182 63.352C305.83 63.9173 305.35 64.3653 304.742 64.696C304.134 65.0267 303.44 65.192 302.662 65.192C301.403 65.192 300.379 64.7973 299.59 64.008C298.8 63.2187 298.406 62.216 298.406 61C298.406 59.8053 298.795 58.808 299.574 58.008C300.352 57.208 301.355 56.808 302.582 56.808ZM302.582 57.832C301.75 57.832 301.051 58.0827 300.486 58.584C299.931 59.0747 299.6 59.7147 299.494 60.504H305.462C305.355 59.6613 305.03 59.0053 304.486 58.536C303.942 58.0667 303.307 57.832 302.582 57.832ZM312.201 60.888C313.129 61.24 313.593 61.88 313.593 62.808C313.593 63.4693 313.332 64.0347 312.809 64.504C312.297 64.9627 311.561 65.192 310.601 65.192C308.99 65.192 307.934 64.552 307.433 63.272L308.329 62.744C308.66 63.6933 309.417 64.168 310.601 64.168C311.22 64.168 311.694 64.0347 312.025 63.768C312.366 63.5013 312.537 63.16 312.537 62.744C312.537 62.3707 312.398 62.0667 312.121 61.832C311.844 61.5973 311.47 61.48 311.001 61.48H309.833V60.456H310.681C311.14 60.456 311.497 60.344 311.753 60.12C312.02 59.8853 312.153 59.5653 312.153 59.16C312.153 58.776 311.998 58.4613 311.689 58.216C311.38 57.96 310.964 57.832 310.441 57.832C309.438 57.832 308.772 58.232 308.441 59.032L307.561 58.52C308.094 57.3787 309.054 56.808 310.441 56.808C311.284 56.808 311.956 57.032 312.457 57.48C312.958 57.9173 313.209 58.456 313.209 59.096C313.209 59.9173 312.873 60.5147 312.201 60.888ZM325.918 57V65H324.862V58.024H320.254V65H319.198V57H325.918ZM331.847 56.808C333.031 56.808 333.986 57.2293 334.711 58.072C335.447 58.904 335.815 59.8907 335.815 61.032C335.815 61.1493 335.805 61.3147 335.783 61.528H328.759C328.866 62.3387 329.207 62.984 329.783 63.464C330.37 63.9333 331.09 64.168 331.943 64.168C332.551 64.168 333.074 64.0453 333.511 63.8C333.959 63.544 334.295 63.2133 334.519 62.808L335.447 63.352C335.095 63.9173 334.615 64.3653 334.007 64.696C333.399 65.0267 332.706 65.192 331.927 65.192C330.669 65.192 329.645 64.7973 328.855 64.008C328.066 63.2187 327.671 62.216 327.671 61C327.671 59.8053 328.061 58.808 328.839 58.008C329.618 57.208 330.621 56.808 331.847 56.808ZM331.847 57.832C331.015 57.832 330.317 58.0827 329.751 58.584C329.197 59.0747 328.866 59.7147 328.759 60.504H334.727C334.621 59.6613 334.295 59.0053 333.751 58.536C333.207 58.0667 332.573 57.832 331.847 57.832ZM341.783 56.808C342.924 56.808 343.895 57.2133 344.695 58.024C345.506 58.8347 345.911 59.8267 345.911 61C345.911 62.1733 345.506 63.1653 344.695 63.976C343.895 64.7867 342.924 65.192 341.783 65.192C340.364 65.192 339.287 64.6053 338.551 63.432V68.2H337.495V57H338.551V58.568C339.287 57.3947 340.364 56.808 341.783 56.808ZM339.463 63.256C340.071 63.864 340.818 64.168 341.703 64.168C342.588 64.168 343.335 63.864 343.943 63.256C344.551 62.6373 344.855 61.8853 344.855 61C344.855 60.1147 344.551 59.368 343.943 58.76C343.335 58.1413 342.588 57.832 341.703 57.832C340.818 57.832 340.071 58.1413 339.463 58.76C338.855 59.368 338.551 60.1147 338.551 61C338.551 61.8853 338.855 62.6373 339.463 63.256ZM352.755 60.888C353.63 61.208 354.067 61.832 354.067 62.76C354.067 63.4107 353.848 63.9493 353.411 64.376C352.984 64.792 352.366 65 351.555 65H347.667V57H351.235C352.014 57 352.616 57.2027 353.043 57.608C353.47 58.0027 353.683 58.5147 353.683 59.144C353.683 59.944 353.374 60.5253 352.755 60.888ZM351.235 58.024H348.723V60.456H351.235C352.163 60.456 352.627 60.04 352.627 59.208C352.627 58.8347 352.504 58.5467 352.259 58.344C352.024 58.1307 351.683 58.024 351.235 58.024ZM351.555 63.976C352.024 63.976 352.382 63.864 352.627 63.64C352.883 63.416 353.011 63.1013 353.011 62.696C353.011 62.3227 352.883 62.0293 352.627 61.816C352.382 61.592 352.024 61.48 351.555 61.48H348.723V63.976H351.555ZM358.915 60.04C359.662 60.04 360.291 60.2747 360.803 60.744C361.326 61.2027 361.587 61.7947 361.587 62.52C361.587 63.2453 361.326 63.8427 360.803 64.312C360.291 64.7707 359.662 65 358.915 65H355.667V57H356.723V60.04H358.915ZM362.707 57H363.763V65H362.707V57ZM358.915 63.976C359.363 63.976 359.742 63.8427 360.051 63.576C360.371 63.3093 360.531 62.9573 360.531 62.52C360.531 62.0827 360.371 61.7307 360.051 61.464C359.742 61.1973 359.363 61.064 358.915 61.064H356.723V63.976H358.915ZM367.291 55.72V54.792H371.451V55.72H367.291ZM371.835 57H372.731V65H371.675V58.84L366.907 65H366.011V57H367.067V63.16L371.835 57ZM4.848 84.192C3.64267 84.192 2.64 83.792 1.84 82.992C1.04 82.1813 0.64 81.184 0.64 80C0.64 78.816 1.04 77.824 1.84 77.024C2.64 76.2133 3.64267 75.808 4.848 75.808C5.63733 75.808 6.34667 76 6.976 76.384C7.60533 76.7573 8.064 77.264 8.352 77.904L7.488 78.4C7.27467 77.92 6.928 77.5413 6.448 77.264C5.97867 76.976 5.44533 76.832 4.848 76.832C3.96267 76.832 3.216 77.1413 2.608 77.76C2 78.368 1.696 79.1147 1.696 80C1.696 80.8853 2 81.6373 2.608 82.256C3.216 82.864 3.96267 83.168 4.848 83.168C5.44533 83.168 5.97867 83.0293 6.448 82.752C6.91733 82.464 7.28533 82.08 7.552 81.6L8.432 82.112C8.10133 82.752 7.616 83.2587 6.976 83.632C6.336 84.0053 5.62667 84.192 4.848 84.192ZM16.6681 76V84H15.6121V77.024H11.0041V84H9.94813V76H16.6681ZM25.6053 82.992C24.7946 83.792 23.8026 84.192 22.6293 84.192C21.4559 84.192 20.4586 83.792 19.6373 82.992C18.8266 82.1813 18.4213 81.184 18.4213 80C18.4213 78.816 18.8266 77.824 19.6373 77.024C20.4586 76.2133 21.4559 75.808 22.6293 75.808C23.8026 75.808 24.7946 76.2133 25.6053 77.024C26.4266 77.824 26.8373 78.816 26.8373 80C26.8373 81.184 26.4266 82.1813 25.6053 82.992ZM20.3893 82.256C20.9973 82.864 21.7439 83.168 22.6293 83.168C23.5146 83.168 24.2613 82.864 24.8693 82.256C25.4773 81.6373 25.7812 80.8853 25.7812 80C25.7812 79.1147 25.4773 78.368 24.8693 77.76C24.2613 77.1413 23.5146 76.832 22.6293 76.832C21.7439 76.832 20.9973 77.1413 20.3893 77.76C19.7813 78.368 19.4773 79.1147 19.4773 80C19.4773 80.8853 19.7813 81.6373 20.3893 82.256ZM32.3324 84.192C31.127 84.192 30.1244 83.792 29.3244 82.992C28.5244 82.1813 28.1244 81.184 28.1244 80C28.1244 78.816 28.5244 77.824 29.3244 77.024C30.1244 76.2133 31.127 75.808 32.3324 75.808C33.1217 75.808 33.831 76 34.4604 76.384C35.0897 76.7573 35.5484 77.264 35.8364 77.904L34.9724 78.4C34.759 77.92 34.4124 77.5413 33.9324 77.264C33.463 76.976 32.9297 76.832 32.3324 76.832C31.447 76.832 30.7004 77.1413 30.0924 77.76C29.4844 78.368 29.1804 79.1147 29.1804 80C29.1804 80.8853 29.4844 81.6373 30.0924 82.256C30.7004 82.864 31.447 83.168 32.3324 83.168C32.9297 83.168 33.463 83.0293 33.9324 82.752C34.4017 82.464 34.7697 82.08 35.0364 81.6L35.9164 82.112C35.5857 82.752 35.1004 83.2587 34.4604 83.632C33.8204 84.0053 33.111 84.192 32.3324 84.192ZM44.0584 82.992C43.2477 83.792 42.2557 84.192 41.0824 84.192C39.909 84.192 38.9117 83.792 38.0904 82.992C37.2797 82.1813 36.8744 81.184 36.8744 80C36.8744 78.816 37.2797 77.824 38.0904 77.024C38.9117 76.2133 39.909 75.808 41.0824 75.808C42.2557 75.808 43.2477 76.2133 44.0584 77.024C44.8797 77.824 45.2904 78.816 45.2904 80C45.2904 81.184 44.8797 82.1813 44.0584 82.992ZM38.8424 82.256C39.4504 82.864 40.197 83.168 41.0824 83.168C41.9677 83.168 42.7144 82.864 43.3224 82.256C43.9304 81.6373 44.2344 80.8853 44.2344 80C44.2344 79.1147 43.9304 78.368 43.3224 77.76C42.7144 77.1413 41.9677 76.832 41.0824 76.832C40.197 76.832 39.4504 77.1413 38.8424 77.76C38.2344 78.368 37.9304 79.1147 37.9304 80C37.9304 80.8853 38.2344 81.6373 38.8424 82.256ZM50.6095 84.192C49.4575 84.192 48.4975 83.8133 47.7295 83.056C46.9615 82.288 46.5775 81.296 46.5775 80.08C46.5775 78.7147 46.7802 77.6693 47.1855 76.944C47.5908 76.208 48.4122 75.5413 49.6495 74.944C49.8842 74.8267 50.1935 74.688 50.5775 74.528C50.9722 74.368 51.2655 74.24 51.4575 74.144C51.6602 74.048 51.8788 73.9253 52.1135 73.776C52.3482 73.616 52.5242 73.44 52.6415 73.248C52.7588 73.056 52.8335 72.8267 52.8655 72.56L53.6975 73.04C53.6548 73.296 53.5695 73.536 53.4415 73.76C53.3135 73.984 53.1802 74.1653 53.0415 74.304C52.9135 74.4427 52.7055 74.5973 52.4175 74.768C52.1402 74.928 51.9215 75.0453 51.7615 75.12C51.6122 75.184 51.3455 75.296 50.9615 75.456C50.5882 75.616 50.3375 75.7227 50.2095 75.776C49.4628 76.096 48.9135 76.432 48.5615 76.784C48.2095 77.1253 47.9588 77.5733 47.8095 78.128C48.1722 77.648 48.6308 77.296 49.1855 77.072C49.7508 76.8373 50.3002 76.72 50.8335 76.72C51.9002 76.72 52.7802 77.072 53.4735 77.776C54.1775 78.4693 54.5295 79.36 54.5295 80.448C54.5295 81.5253 54.1562 82.4213 53.4095 83.136C52.6735 83.84 51.7402 84.192 50.6095 84.192ZM50.6095 83.136C51.4415 83.136 52.1242 82.8853 52.6575 82.384C53.2015 81.872 53.4735 81.2267 53.4735 80.448C53.4735 79.6587 53.2175 79.0133 52.7055 78.512C52.2042 78 51.5322 77.744 50.6895 77.744C49.9322 77.744 49.2442 77.984 48.6255 78.464C48.0068 78.9333 47.6975 79.5627 47.6975 80.352C47.6975 81.1627 47.9748 81.8293 48.5295 82.352C49.0948 82.8747 49.7882 83.136 50.6095 83.136ZM66.8396 82.992C66.029 83.792 65.037 84.192 63.8636 84.192C62.6903 84.192 61.693 83.792 60.8716 82.992C60.061 82.1813 59.6556 81.184 59.6556 80C59.6556 78.816 60.061 77.824 60.8716 77.024C61.693 76.2133 62.6903 75.808 63.8636 75.808C65.037 75.808 66.029 76.2133 66.8396 77.024C67.661 77.824 68.0716 78.816 68.0716 80C68.0716 81.184 67.661 82.1813 66.8396 82.992ZM61.6236 82.256C62.2316 82.864 62.9783 83.168 63.8636 83.168C64.749 83.168 65.4956 82.864 66.1036 82.256C66.7116 81.6373 67.0156 80.8853 67.0156 80C67.0156 79.1147 66.7116 78.368 66.1036 77.76C65.4956 77.1413 64.749 76.832 63.8636 76.832C62.9783 76.832 62.2316 77.1413 61.6236 77.76C61.0156 78.368 60.7116 79.1147 60.7116 80C60.7116 80.8853 61.0156 81.6373 61.6236 82.256ZM76.5588 76V84H75.5028V77.024H70.8948V84H69.8388V76H76.5588ZM85.3519 76V84H84.2959V77.024H80.6799V80.592C80.6799 81.9253 80.4239 82.8427 79.9119 83.344C79.4105 83.8453 78.7172 84.064 77.8319 84V83.008C78.4399 83.072 78.8879 82.928 79.1759 82.576C79.4745 82.224 79.6239 81.5627 79.6239 80.592V76H85.3519ZM94.4688 76H95.5248V84H94.4688V82.432C93.7328 83.6053 92.6554 84.192 91.2368 84.192C90.0954 84.192 89.1194 83.7867 88.3088 82.976C87.5088 82.1653 87.1088 81.1733 87.1088 80C87.1088 78.8267 87.5088 77.8347 88.3088 77.024C89.1194 76.2133 90.0954 75.808 91.2368 75.808C92.6554 75.808 93.7328 76.3947 94.4688 77.568V76ZM89.0768 82.256C89.6848 82.864 90.4314 83.168 91.3168 83.168C92.2021 83.168 92.9488 82.864 93.5568 82.256C94.1648 81.6373 94.4688 80.8853 94.4688 80C94.4688 79.1147 94.1648 78.368 93.5568 77.76C92.9488 77.1413 92.2021 76.832 91.3168 76.832C90.4314 76.832 89.6848 77.1413 89.0768 77.76C88.4688 78.368 88.1648 79.1147 88.1648 80C88.1648 80.8853 88.4688 81.6373 89.0768 82.256ZM103.521 76V77.024H100.689V84H99.6326V77.024H96.8006V76H103.521ZM108.056 79.04C108.802 79.04 109.432 79.2747 109.944 79.744C110.466 80.2027 110.728 80.7947 110.728 81.52C110.728 82.2453 110.466 82.8427 109.944 83.312C109.432 83.7707 108.802 84 108.056 84H104.808V76H105.864V79.04H108.056ZM111.848 76H112.904V84H111.848V76ZM108.056 82.976C108.504 82.976 108.882 82.8427 109.192 82.576C109.512 82.3093 109.672 81.9573 109.672 81.52C109.672 81.0827 109.512 80.7307 109.192 80.464C108.882 80.1973 108.504 80.064 108.056 80.064H105.864V82.976H108.056ZM125.615 84H124.207L120.207 80.144V84H119.151V76H120.207V79.536L124.015 76H125.455L121.327 79.84L125.615 84ZM133.141 76H134.197V84H133.141V82.432C132.405 83.6053 131.327 84.192 129.909 84.192C128.767 84.192 127.791 83.7867 126.981 82.976C126.181 82.1653 125.781 81.1733 125.781 80C125.781 78.8267 126.181 77.8347 126.981 77.024C127.791 76.2133 128.767 75.808 129.909 75.808C131.327 75.808 132.405 76.3947 133.141 77.568V76ZM127.749 82.256C128.357 82.864 129.103 83.168 129.989 83.168C130.874 83.168 131.621 82.864 132.229 82.256C132.837 81.6373 133.141 80.8853 133.141 80C133.141 79.1147 132.837 78.368 132.229 77.76C131.621 77.1413 130.874 76.832 129.989 76.832C129.103 76.832 128.357 77.1413 127.749 77.76C127.141 78.368 126.837 79.1147 126.837 80C126.837 80.8853 127.141 81.6373 127.749 82.256ZM140.721 75.808C141.862 75.808 142.833 76.2133 143.633 77.024C144.443 77.8347 144.849 78.8267 144.849 80C144.849 81.1733 144.443 82.1653 143.633 82.976C142.833 83.7867 141.862 84.192 140.721 84.192C139.302 84.192 138.225 83.6053 137.489 82.432V87.2H136.433V76H137.489V77.568C138.225 76.3947 139.302 75.808 140.721 75.808ZM138.401 82.256C139.009 82.864 139.755 83.168 140.641 83.168C141.526 83.168 142.273 82.864 142.881 82.256C143.489 81.6373 143.793 80.8853 143.793 80C143.793 79.1147 143.489 78.368 142.881 77.76C142.273 77.1413 141.526 76.832 140.641 76.832C139.755 76.832 139.009 77.1413 138.401 77.76C137.793 78.368 137.489 79.1147 137.489 80C137.489 80.8853 137.793 81.6373 138.401 82.256ZM152.052 76V77.024H149.22V84H148.164V77.024H145.332V76H152.052ZM159.906 76H160.962V84H159.906V82.432C159.17 83.6053 158.093 84.192 156.674 84.192C155.533 84.192 154.557 83.7867 153.746 82.976C152.946 82.1653 152.546 81.1733 152.546 80C152.546 78.8267 152.946 77.8347 153.746 77.024C154.557 76.2133 155.533 75.808 156.674 75.808C158.093 75.808 159.17 76.3947 159.906 77.568V76ZM154.514 82.256C155.122 82.864 155.869 83.168 156.754 83.168C157.64 83.168 158.386 82.864 158.994 82.256C159.602 81.6373 159.906 80.8853 159.906 80C159.906 79.1147 159.602 78.368 158.994 77.76C158.386 77.1413 157.64 76.832 156.754 76.832C155.869 76.832 155.122 77.1413 154.514 77.76C153.906 78.368 153.602 79.1147 153.602 80C153.602 80.8853 153.906 81.6373 154.514 82.256ZM171.038 76V84H169.982V77.616L167.182 82.16H167.054L164.254 77.616V84H163.198V76H164.414L167.118 80.384L169.822 76H171.038ZM179.1 76H179.996V84H178.94V77.84L174.172 84H173.276V76H174.332V82.16L179.1 76ZM192.053 76H192.949V84H191.893V77.84L187.125 84H186.229V76H187.285V82.16L192.053 76ZM198.911 84.192C197.705 84.192 196.703 83.792 195.903 82.992C195.103 82.1813 194.703 81.184 194.703 80C194.703 78.816 195.103 77.824 195.903 77.024C196.703 76.2133 197.705 75.808 198.911 75.808C199.7 75.808 200.409 76 201.039 76.384C201.668 76.7573 202.127 77.264 202.415 77.904L201.551 78.4C201.337 77.92 200.991 77.5413 200.511 77.264C200.041 76.976 199.508 76.832 198.911 76.832C198.025 76.832 197.279 77.1413 196.671 77.76C196.063 78.368 195.759 79.1147 195.759 80C195.759 80.8853 196.063 81.6373 196.671 82.256C197.279 82.864 198.025 83.168 198.911 83.168C199.508 83.168 200.041 83.0293 200.511 82.752C200.98 82.464 201.348 82.08 201.615 81.6L202.495 82.112C202.164 82.752 201.679 83.2587 201.039 83.632C200.399 84.0053 199.689 84.192 198.911 84.192ZM210.731 76V84H209.675V77.024H205.067V84H204.011V76H210.731ZM219.668 82.992C218.857 83.792 217.865 84.192 216.692 84.192C215.518 84.192 214.521 83.792 213.7 82.992C212.889 82.1813 212.484 81.184 212.484 80C212.484 78.816 212.889 77.824 213.7 77.024C214.521 76.2133 215.518 75.808 216.692 75.808C217.865 75.808 218.857 76.2133 219.668 77.024C220.489 77.824 220.9 78.816 220.9 80C220.9 81.184 220.489 82.1813 219.668 82.992ZM214.452 82.256C215.06 82.864 215.806 83.168 216.692 83.168C217.577 83.168 218.324 82.864 218.932 82.256C219.54 81.6373 219.844 80.8853 219.844 80C219.844 79.1147 219.54 78.368 218.932 77.76C218.324 77.1413 217.577 76.832 216.692 76.832C215.806 76.832 215.06 77.1413 214.452 77.76C213.844 78.368 213.54 79.1147 213.54 80C213.54 80.8853 213.844 81.6373 214.452 82.256ZM228.914 76V84H227.858V77.024H224.242V80.592C224.242 81.9253 223.986 82.8427 223.474 83.344C222.973 83.8453 222.28 84.064 221.394 84V83.008C222.002 83.072 222.45 82.928 222.738 82.576C223.037 82.224 223.186 81.5627 223.186 80.592V76H228.914ZM234.399 79.04C235.146 79.04 235.775 79.2747 236.287 79.744C236.81 80.2027 237.071 80.7947 237.071 81.52C237.071 82.2453 236.81 82.8427 236.287 83.312C235.775 83.7707 235.146 84 234.399 84H231.151V76H232.207V79.04H234.399ZM234.399 82.976C234.847 82.976 235.226 82.8427 235.535 82.576C235.855 82.3093 236.015 81.9573 236.015 81.52C236.015 81.0827 235.855 80.7307 235.535 80.464C235.226 80.1973 234.847 80.064 234.399 80.064H232.207V82.976H234.399ZM242.639 79.888C243.567 80.24 244.031 80.88 244.031 81.808C244.031 82.4693 243.769 83.0347 243.247 83.504C242.735 83.9627 241.999 84.192 241.039 84.192C239.428 84.192 238.372 83.552 237.871 82.272L238.767 81.744C239.097 82.6933 239.855 83.168 241.039 83.168C241.657 83.168 242.132 83.0347 242.463 82.768C242.804 82.5013 242.975 82.16 242.975 81.744C242.975 81.3707 242.836 81.0667 242.559 80.832C242.281 80.5973 241.908 80.48 241.439 80.48H240.271V79.456H241.119C241.577 79.456 241.935 79.344 242.191 79.12C242.457 78.8853 242.591 78.5653 242.591 78.16C242.591 77.776 242.436 77.4613 242.127 77.216C241.817 76.96 241.401 76.832 240.879 76.832C239.876 76.832 239.209 77.232 238.879 78.032L237.999 77.52C238.532 76.3787 239.492 75.808 240.879 75.808C241.721 75.808 242.393 76.032 242.895 76.48C243.396 76.9173 243.647 77.456 243.647 78.096C243.647 78.9173 243.311 79.5147 242.639 79.888ZM251.083 76H252.203L248.779 84.736C248.47 85.5253 248.027 86.144 247.451 86.592C246.886 87.0507 246.251 87.2533 245.547 87.2V86.208C246.507 86.3147 247.238 85.76 247.739 84.544L247.947 84.048L244.363 76H245.483L248.491 82.704L251.083 76ZM254.759 74.72V73.792H258.919V74.72H254.759ZM259.303 76H260.199V84H259.143V77.84L254.375 84H253.479V76H254.535V82.16L259.303 76ZM268.193 76V77.024H265.361V84H264.305V77.024H261.473V76H268.193ZM272.863 75.808C274.047 75.808 275.002 76.2293 275.727 77.072C276.463 77.904 276.831 78.8907 276.831 80.032C276.831 80.1493 276.82 80.3147 276.799 80.528H269.775C269.882 81.3387 270.223 81.984 270.799 82.464C271.386 82.9333 272.106 83.168 272.959 83.168C273.567 83.168 274.09 83.0453 274.527 82.8C274.975 82.544 275.311 82.2133 275.535 81.808L276.463 82.352C276.111 82.9173 275.631 83.3653 275.023 83.696C274.415 84.0267 273.722 84.192 272.943 84.192C271.684 84.192 270.66 83.7973 269.871 83.008C269.082 82.2187 268.687 81.216 268.687 80C268.687 78.8053 269.076 77.808 269.855 77.008C270.634 76.208 271.636 75.808 272.863 75.808ZM272.863 76.832C272.031 76.832 271.332 77.0827 270.767 77.584C270.212 78.0747 269.882 78.7147 269.775 79.504H275.743C275.636 78.6613 275.311 78.0053 274.767 77.536C274.223 77.0667 273.588 76.832 272.863 76.832ZM287.599 79.888C288.473 80.208 288.911 80.832 288.911 81.76C288.911 82.4107 288.692 82.9493 288.255 83.376C287.828 83.792 287.209 84 286.399 84H282.511V76H286.079C286.857 76 287.46 76.2027 287.887 76.608C288.313 77.0027 288.527 77.5147 288.527 78.144C288.527 78.944 288.217 79.5253 287.599 79.888ZM286.079 77.024H283.567V79.456H286.079C287.007 79.456 287.471 79.04 287.471 78.208C287.471 77.8347 287.348 77.5467 287.103 77.344C286.868 77.1307 286.527 77.024 286.079 77.024ZM286.399 82.976C286.868 82.976 287.225 82.864 287.471 82.64C287.727 82.416 287.855 82.1013 287.855 81.696C287.855 81.3227 287.727 81.0293 287.471 80.816C287.225 80.592 286.868 80.48 286.399 80.48H283.567V82.976H286.399ZM295.958 76V77.024H293.126V84H292.07V77.024H289.238V76H295.958ZM303.637 82.992C302.826 83.792 301.834 84.192 300.661 84.192C299.487 84.192 298.49 83.792 297.669 82.992C296.858 82.1813 296.453 81.184 296.453 80C296.453 78.816 296.858 77.824 297.669 77.024C298.49 76.2133 299.487 75.808 300.661 75.808C301.834 75.808 302.826 76.2133 303.637 77.024C304.458 77.824 304.869 78.816 304.869 80C304.869 81.184 304.458 82.1813 303.637 82.992ZM298.421 82.256C299.029 82.864 299.775 83.168 300.661 83.168C301.546 83.168 302.293 82.864 302.901 82.256C303.509 81.6373 303.812 80.8853 303.812 80C303.812 79.1147 303.509 78.368 302.901 77.76C302.293 77.1413 301.546 76.832 300.661 76.832C299.775 76.832 299.029 77.1413 298.421 77.76C297.813 78.368 297.509 79.1147 297.509 80C297.509 80.8853 297.813 81.6373 298.421 82.256ZM310.924 75.808C312.065 75.808 313.036 76.2133 313.836 77.024C314.646 77.8347 315.052 78.8267 315.052 80C315.052 81.1733 314.646 82.1653 313.836 82.976C313.036 83.7867 312.065 84.192 310.924 84.192C309.505 84.192 308.428 83.6053 307.692 82.432V87.2H306.636V76H307.692V77.568C308.428 76.3947 309.505 75.808 310.924 75.808ZM308.604 82.256C309.212 82.864 309.958 83.168 310.844 83.168C311.729 83.168 312.476 82.864 313.084 82.256C313.692 81.6373 313.996 80.8853 313.996 80C313.996 79.1147 313.692 78.368 313.084 77.76C312.476 77.1413 311.729 76.832 310.844 76.832C309.958 76.832 309.212 77.1413 308.604 77.76C307.996 78.368 307.692 79.1147 307.692 80C307.692 80.8853 307.996 81.6373 308.604 82.256ZM323.512 82.992C322.701 83.792 321.709 84.192 320.536 84.192C319.362 84.192 318.365 83.792 317.544 82.992C316.733 82.1813 316.328 81.184 316.328 80C316.328 78.816 316.733 77.824 317.544 77.024C318.365 76.2133 319.362 75.808 320.536 75.808C321.709 75.808 322.701 76.2133 323.512 77.024C324.333 77.824 324.744 78.816 324.744 80C324.744 81.184 324.333 82.1813 323.512 82.992ZM318.296 82.256C318.904 82.864 319.65 83.168 320.536 83.168C321.421 83.168 322.168 82.864 322.776 82.256C323.384 81.6373 323.688 80.8853 323.688 80C323.688 79.1147 323.384 78.368 322.776 77.76C322.168 77.1413 321.421 76.832 320.536 76.832C319.65 76.832 318.904 77.1413 318.296 77.76C317.688 78.368 317.384 79.1147 317.384 80C317.384 80.8853 317.688 81.6373 318.296 82.256ZM327.791 74.72V73.792H331.951V74.72H327.791ZM332.335 76H333.231V84H332.175V77.84L327.407 84H326.511V76H327.567V82.16L332.335 76ZM336.808 83.904C336.637 84.0747 336.429 84.16 336.184 84.16C335.938 84.16 335.73 84.0747 335.56 83.904C335.389 83.7333 335.304 83.5253 335.304 83.28C335.304 83.0347 335.389 82.8267 335.56 82.656C335.73 82.4853 335.938 82.4 336.184 82.4C336.429 82.4 336.637 82.4853 336.808 82.656C336.978 82.8267 337.064 83.0347 337.064 83.28C337.064 83.5253 336.978 83.7333 336.808 83.904Z" fill="#9797AB"/>
</svg>
