<svg width="14" height="12" viewBox="0 0 14 12" fill="none" xmlns="http://www.w3.org/2000/svg">
<path d="M12.7102 6.71C12.6172 6.80373 12.5066 6.87812 12.3848 6.92889C12.2629 6.97966 12.1322 7.0058 12.0002 7.0058C11.8682 7.0058 11.7375 6.97966 11.6156 6.92889C11.4937 6.87812 11.3831 6.80373 11.2902 6.71L8.00019 3.41V11C8.00019 11.2652 7.89483 11.5196 7.70729 11.7071C7.51976 11.8946 7.2654 12 7.00019 12C6.73497 12 6.48062 11.8946 6.29308 11.7071C6.10554 11.5196 6.00019 11.2652 6.00019 11V3.41L2.71019 6.71C2.52188 6.8983 2.26649 7.00409 2.00019 7.00409C1.73388 7.00409 1.47849 6.8983 1.29019 6.71C1.10188 6.5217 0.996094 6.2663 0.996094 6C0.996094 5.7337 1.10188 5.4783 1.29019 5.29L6.29019 0.290001C6.38529 0.19896 6.49743 0.127594 6.62019 0.0799999C6.73989 0.0270948 6.86931 -0.000232697 7.00019 -0.000232697C7.13106 -0.000232697 7.26049 0.0270948 7.38019 0.0799999C7.50294 0.127594 7.61508 0.19896 7.71019 0.290001L12.7102 5.29C12.8039 5.38296 12.8783 5.49356 12.9291 5.61542C12.9798 5.73728 13.006 5.86799 13.006 6C13.006 6.13201 12.9798 6.26272 12.9291 6.38458C12.8783 6.50644 12.8039 6.61704 12.7102 6.71Z" fill="#EAEAEA"/>
</svg>
