<svg width="14" height="16" viewBox="0 0 14 16" fill="none" xmlns="http://www.w3.org/2000/svg">
<path d="M13.0587 6.62375C12.8365 6.23847 12.5266 5.91193 12.1549 5.6702V5.60514L12.0293 5.53309L4.78493 1.37846C4.78483 1.3784 4.78473 1.37834 4.78463 1.37828C4.35445 1.12995 3.86623 0.999867 3.36952 1.00123C2.8727 1.0026 2.38508 1.13543 1.95621 1.38623C1.52733 1.63704 1.17248 1.99688 0.927679 2.42921C0.683117 2.86113 0.557109 3.35002 0.562417 3.84633V12.185C0.562417 12.9315 0.858996 13.6475 1.38691 14.1755C1.91483 14.7034 2.63083 15 3.37742 15H3.37784C3.87175 14.9991 4.35678 14.8687 4.78449 14.6217C4.78465 14.6216 4.78481 14.6215 4.78498 14.6214L12.0293 10.4668L12.0301 10.4663C12.4574 10.2191 12.8121 9.8638 13.0587 9.43617C13.3053 9.00854 13.4351 8.52359 13.4351 8.02996C13.4351 7.53633 13.3053 7.05137 13.0587 6.62375ZM11.0292 8.67637L3.78552 12.8906C3.661 12.9609 3.52043 12.9979 3.37742 12.9979C3.2343 12.9979 3.09361 12.9609 2.96903 12.8904C2.84551 12.8189 2.74293 12.7162 2.67157 12.5926L2.45505 12.7176L2.67157 12.5926C2.60004 12.4687 2.56239 12.3281 2.56242 12.185V12.185V3.81496V3.81492C2.56239 3.67183 2.60004 3.53126 2.67157 3.40734C2.74277 3.284 2.84503 3.18148 2.96817 3.10998C3.09346 3.04072 3.23371 3.00298 3.37681 3.00001C3.52046 3.00368 3.66118 3.0415 3.78732 3.11036L11.0299 7.29394L11.03 7.29401C11.154 7.36552 11.2569 7.46841 11.3285 7.59234C11.4001 7.71626 11.4377 7.85685 11.4377 7.99996C11.4377 8.14307 11.4001 8.28366 11.3285 8.40758C11.292 8.47079 11.2473 8.52853 11.1958 8.57942L11.0292 8.67637Z" fill="white" stroke="white" stroke-width="0.5"/>
</svg>
