<svg width="196" height="84" viewBox="0 0 196 84" fill="none" xmlns="http://www.w3.org/2000/svg">
<g filter="url(#filter0_d_43_1068)">
<rect x="185.954" y="6.00002" width="64" height="175" rx="32" transform="rotate(90 185.954 6.00002)" fill="#FF922B"/>
<rect x="185.954" y="6.00002" width="64" height="175" rx="32" transform="rotate(90 185.954 6.00002)" fill="url(#paint0_linear_43_1068)" fill-opacity="0.2"/>
</g>
<path d="M88.3461 24.2V26.048H85.7001V34H83.7681V26.048H81.1361V24.2H88.3461ZM89.5952 31.242C89.8378 32.1193 90.4958 32.558 91.5692 32.558C92.2598 32.558 92.7825 32.3247 93.1372 31.858L94.5932 32.698C93.9025 33.6967 92.8852 34.196 91.5412 34.196C90.3838 34.196 89.4552 33.846 88.7552 33.146C88.0552 32.446 87.7052 31.564 87.7052 30.5C87.7052 29.4453 88.0505 28.568 88.7412 27.868C89.4318 27.1587 90.3185 26.804 91.4012 26.804C92.4278 26.804 93.2725 27.1587 93.9352 27.868C94.6072 28.5773 94.9432 29.4547 94.9432 30.5C94.9432 30.7333 94.9198 30.9807 94.8732 31.242H89.5952ZM89.5672 29.842H93.1372C93.0345 29.366 92.8198 29.0113 92.4932 28.778C92.1758 28.5447 91.8118 28.428 91.4012 28.428C90.9158 28.428 90.5145 28.554 90.1972 28.806C89.8798 29.0487 89.6698 29.394 89.5672 29.842ZM102.261 34H100.175L98.6634 31.872L97.1374 34H95.0514L97.6134 30.43L95.1634 27H97.2494L98.6634 28.974L100.077 27H102.149L99.6994 30.416L102.261 34ZM105.053 33.832C104.82 34.0653 104.54 34.182 104.213 34.182C103.886 34.182 103.606 34.0653 103.373 33.832C103.14 33.5987 103.023 33.3187 103.023 32.992C103.023 32.6653 103.14 32.3853 103.373 32.152C103.606 31.9187 103.886 31.802 104.213 31.802C104.54 31.802 104.82 31.9187 105.053 32.152C105.286 32.3853 105.403 32.6653 105.403 32.992C105.403 33.3187 105.286 33.5987 105.053 33.832ZM89.1861 41.2V51H87.2541V43.048H83.7961V51H81.8641V41.2H89.1861ZM96.8906 50.132C96.1719 50.8413 95.2946 51.196 94.2586 51.196C93.2226 51.196 92.3453 50.8413 91.6266 50.132C90.9173 49.4133 90.5626 48.536 90.5626 47.5C90.5626 46.464 90.9173 45.5913 91.6266 44.882C92.3453 44.1633 93.2226 43.804 94.2586 43.804C95.2946 43.804 96.1719 44.1633 96.8906 44.882C97.6093 45.5913 97.9686 46.464 97.9686 47.5C97.9686 48.536 97.6093 49.4133 96.8906 50.132ZM92.9006 48.886C93.2646 49.25 93.7173 49.432 94.2586 49.432C94.7999 49.432 95.2526 49.25 95.6166 48.886C95.9806 48.522 96.1626 48.06 96.1626 47.5C96.1626 46.94 95.9806 46.478 95.6166 46.114C95.2526 45.75 94.7999 45.568 94.2586 45.568C93.7173 45.568 93.2646 45.75 92.9006 46.114C92.5459 46.478 92.3686 46.94 92.3686 47.5C92.3686 48.06 92.5459 48.522 92.9006 48.886ZM105.266 49.306H106.19V52.876H104.426V51H100.086V52.876H98.3216V49.306H99.1756C99.577 48.7087 99.7776 47.8827 99.7776 46.828V44H105.266V49.306ZM101.108 49.306H103.502V45.624H101.542V46.828C101.542 47.8173 101.397 48.6433 101.108 49.306ZM113.742 49.306L114.666 49.306V52.876L112.902 52.876V51H108.562V52.876H106.798V49.306H107.652C108.054 48.7087 108.254 47.8827 108.254 46.828V44H113.742V49.306ZM109.584 49.306H111.978V45.624H110.018V46.828C110.018 47.8173 109.874 48.6433 109.584 49.306ZM117.062 48.242C117.305 49.1193 117.963 49.558 119.036 49.558C119.727 49.558 120.249 49.3247 120.604 48.858L122.06 49.698C121.369 50.6967 120.352 51.196 119.008 51.196C117.851 51.196 116.922 50.846 116.222 50.146C115.522 49.446 115.172 48.564 115.172 47.5C115.172 46.4453 115.517 45.568 116.208 44.868C116.899 44.1587 117.785 43.804 118.868 43.804C119.895 43.804 120.739 44.1587 121.402 44.868C122.074 45.5773 122.41 46.4547 122.41 47.5C122.41 47.7333 122.387 47.9807 122.34 48.242H117.062ZM117.034 46.842H120.604C120.501 46.366 120.287 46.0113 119.96 45.778C119.643 45.5447 119.279 45.428 118.868 45.428C118.383 45.428 117.981 45.554 117.664 45.806C117.347 46.0487 117.137 46.394 117.034 46.842ZM127.745 43.804C128.687 43.804 129.49 44.1633 130.153 44.882C130.825 45.5913 131.161 46.464 131.161 47.5C131.161 48.536 130.825 49.4133 130.153 50.132C129.49 50.8413 128.687 51.196 127.745 51.196C126.765 51.196 126.009 50.8553 125.477 50.174V53.8H123.671V44H125.477V44.826C126.009 44.1447 126.765 43.804 127.745 43.804ZM126.023 48.928C126.387 49.292 126.849 49.474 127.409 49.474C127.969 49.474 128.431 49.292 128.795 48.928C129.168 48.5547 129.355 48.0787 129.355 47.5C129.355 46.9213 129.168 46.45 128.795 46.086C128.431 45.7127 127.969 45.526 127.409 45.526C126.849 45.526 126.387 45.7127 126.023 46.086C125.659 46.45 125.477 46.9213 125.477 47.5C125.477 48.0787 125.659 48.5547 126.023 48.928ZM141.324 51H139.294L137.152 47.864V51L135.388 51V47.864L133.246 51H131.23L133.75 47.458L131.37 44H133.386L135.388 47.038V44L137.152 44V47.038L139.154 44H141.184L138.79 47.458L141.324 51ZM148.773 51H146.673L144.125 47.822V51H142.319V44H144.125V47.08L146.533 44H148.689L145.875 47.458L148.773 51ZM154.489 44H156.295V51H154.489V50.174C153.947 50.8553 153.187 51.196 152.207 51.196C151.273 51.196 150.471 50.8413 149.799 50.132C149.136 49.4133 148.805 48.536 148.805 47.5C148.805 46.464 149.136 45.5913 149.799 44.882C150.471 44.1633 151.273 43.804 152.207 43.804C153.187 43.804 153.947 44.1447 154.489 44.826V44ZM151.157 48.928C151.521 49.292 151.983 49.474 152.543 49.474C153.103 49.474 153.565 49.292 153.929 48.928C154.302 48.5547 154.489 48.0787 154.489 47.5C154.489 46.9213 154.302 46.45 153.929 46.086C153.565 45.7127 153.103 45.526 152.543 45.526C151.983 45.526 151.521 45.7127 151.157 46.086C150.793 46.45 150.611 46.9213 150.611 47.5C150.611 48.0787 150.793 48.5547 151.157 48.928Z" fill="white"/>
<g clip-path="url(#clip0_43_1068)">
<path d="M43 63C56.8071 63 68 51.8071 68 38C68 24.1929 56.8071 13 43 13C29.1929 13 18 24.1929 18 38C18 51.8071 29.1929 63 43 63Z" fill="black" fill-opacity="0.1"/>
<path d="M38.4168 49.4583C37.6068 49.4583 37.7445 49.1525 37.4652 48.3813L35.0835 40.5431L53.4168 29.6667" fill="#C8DAEA"/>
<path d="M38.4165 49.4584C39.0415 49.4584 39.3175 49.1725 39.6665 48.8334L42.9998 45.5921L38.8419 43.0848" fill="#A9C9DD"/>
<path d="M38.8417 43.0854L48.9167 50.5289C50.0665 51.1633 50.8961 50.8348 51.1825 49.4617L55.2836 30.136C55.7033 28.4527 54.6419 27.6889 53.5419 28.1883L29.4606 37.4739C27.8169 38.1333 27.8267 39.0504 29.1611 39.4589L35.3409 41.3879L49.6477 32.3619C50.3231 31.9523 50.9431 32.1723 50.4344 32.6239" fill="url(#paint1_linear_43_1068)"/>
</g>
<defs>
<filter id="filter0_d_43_1068" x="0.954102" y="1.52588e-05" width="195" height="84" filterUnits="userSpaceOnUse" color-interpolation-filters="sRGB">
<feFlood flood-opacity="0" result="BackgroundImageFix"/>
<feColorMatrix in="SourceAlpha" type="matrix" values="0 0 0 0 0 0 0 0 0 0 0 0 0 0 0 0 0 0 127 0" result="hardAlpha"/>
<feOffset dy="4"/>
<feGaussianBlur stdDeviation="5"/>
<feComposite in2="hardAlpha" operator="out"/>
<feColorMatrix type="matrix" values="0 0 0 0 1 0 0 0 0 0.571006 0 0 0 0 0.166667 0 0 0 0.1 0"/>
<feBlend mode="normal" in2="BackgroundImageFix" result="effect1_dropShadow_43_1068"/>
<feBlend mode="normal" in="SourceGraphic" in2="effect1_dropShadow_43_1068" result="shape"/>
</filter>
<linearGradient id="paint0_linear_43_1068" x1="217.954" y1="180.954" x2="217.954" y2="5.95436" gradientUnits="userSpaceOnUse">
<stop stop-color="white"/>
<stop offset="0.175379" stop-color="white" stop-opacity="0.824621"/>
<stop offset="1" stop-color="white" stop-opacity="0"/>
</linearGradient>
<linearGradient id="paint1_linear_43_1068" x1="46.1342" y1="38.002" x2="50.0357" y2="46.8913" gradientUnits="userSpaceOnUse">
<stop stop-color="#EFF7FC"/>
<stop offset="1" stop-color="white"/>
</linearGradient>
<clipPath id="clip0_43_1068">
<rect width="50" height="50" fill="white" transform="translate(18 13)"/>
</clipPath>
</defs>
</svg>
