<svg width="15" height="13" viewBox="0 0 15 13" fill="none" xmlns="http://www.w3.org/2000/svg">
<path d="M12.5 0.875H2.5C1.125 0.875 0 2 0 3.375V9.625C0 11 1.125 12.125 2.5 12.125H12.5C13.875 12.125 15 11 15 9.625V3.375C15 2 13.875 0.875 12.5 0.875ZM13.5 4.5L8.5625 7.8125C8.25 8 7.875 8.125 7.5 8.125C7.125 8.125 6.75 8 6.4375 7.8125L1.5 4.5C1.25 4.3125 1.1875 3.9375 1.375 3.625C1.5625 3.375 1.9375 3.3125 2.25 3.5L7.1875 6.8125C7.375 6.9375 7.6875 6.9375 7.875 6.8125L12.8125 3.5C13.125 3.3125 13.5 3.375 13.6875 3.6875C13.8125 3.9375 13.75 4.3125 13.5 4.5Z" fill="#FF922B"/>
</svg>
