<svg width="12" height="16" viewBox="0 0 12 16" fill="none" xmlns="http://www.w3.org/2000/svg">
<path d="M9.99626 8C9.99626 8.19891 9.91724 8.38968 9.77659 8.53033C9.63594 8.67098 9.44517 8.75 9.24626 8.75H3.55376L5.27876 10.4675C5.34906 10.5372 5.40485 10.6202 5.44293 10.7116C5.48101 10.803 5.50061 10.901 5.50061 11C5.50061 11.099 5.48101 11.197 5.44293 11.2884C5.40485 11.3798 5.34906 11.4628 5.27876 11.5325C5.20904 11.6028 5.12609 11.6586 5.03469 11.6967C4.9433 11.7347 4.84527 11.7543 4.74626 11.7543C4.64725 11.7543 4.54922 11.7347 4.45783 11.6967C4.36643 11.6586 4.28348 11.6028 4.21376 11.5325L1.21376 8.5325C1.14548 8.46117 1.09196 8.37706 1.05626 8.285C0.981247 8.1024 0.981247 7.8976 1.05626 7.715C1.09196 7.62294 1.14548 7.53883 1.21376 7.4675L4.21376 4.4675C4.28369 4.39757 4.36671 4.3421 4.45807 4.30426C4.54944 4.26641 4.64737 4.24693 4.74626 4.24693C4.84516 4.24693 4.94308 4.26641 5.03445 4.30426C5.12581 4.3421 5.20883 4.39757 5.27876 4.4675C5.34869 4.53743 5.40416 4.62045 5.44201 4.71181C5.47985 4.80318 5.49933 4.90111 5.49933 5C5.49933 5.09889 5.47985 5.19682 5.44201 5.28819C5.40416 5.37955 5.34869 5.46257 5.27876 5.5325L3.55376 7.25H9.24626C9.44517 7.25 9.63594 7.32902 9.77659 7.46967C9.91724 7.61032 9.99626 7.80109 9.99626 8ZM9.75 0.5H2.25C1.65326 0.5 1.08097 0.737053 0.65901 1.15901C0.237053 1.58097 2.42144e-08 2.15326 2.42144e-08 2.75V5C2.42144e-08 5.19891 0.079019 5.38968 0.219671 5.53033C0.360324 5.67098 0.551088 5.75 0.75 5.75C0.948912 5.75 1.13968 5.67098 1.28033 5.53033C1.42098 5.38968 1.5 5.19891 1.5 5V2.75C1.5 2.55109 1.57902 2.36032 1.71967 2.21967C1.86032 2.07902 2.05109 2 2.25 2H9.75C9.94891 2 10.1397 2.07902 10.2803 2.21967C10.421 2.36032 10.5 2.55109 10.5 2.75V13.25C10.5 13.4489 10.421 13.6397 10.2803 13.7803C10.1397 13.921 9.94891 14 9.75 14H2.25C2.05109 14 1.86032 13.921 1.71967 13.7803C1.57902 13.6397 1.5 13.4489 1.5 13.25V11C1.5 10.8011 1.42098 10.6103 1.28033 10.4697C1.13968 10.329 0.948912 10.25 0.75 10.25C0.551088 10.25 0.360324 10.329 0.219671 10.4697C0.079019 10.6103 2.42144e-08 10.8011 2.42144e-08 11V13.25C2.42144e-08 13.8467 0.237053 14.419 0.65901 14.841C1.08097 15.2629 1.65326 15.5 2.25 15.5H9.75C10.3467 15.5 10.919 15.2629 11.341 14.841C11.7629 14.419 12 13.8467 12 13.25V2.75C12 2.15326 11.7629 1.58097 11.341 1.15901C10.919 0.737053 10.3467 0.5 9.75 0.5Z" fill="#FF4545" fill-opacity="0.65"/>
</svg>
