<svg width="24" height="24" viewBox="0 0 24 24" fill="none" xmlns="http://www.w3.org/2000/svg">
<path d="M12 2C10.0222 2 8.08879 2.58649 6.4443 3.6853C4.79981 4.78412 3.51809 6.3459 2.76121 8.17317C2.00433 10.0004 1.8063 12.0111 2.19215 13.9509C2.578 15.8907 3.53041 17.6725 4.92894 19.0711C6.32746 20.4696 8.10929 21.422 10.0491 21.8079C11.9889 22.1937 13.9996 21.9957 15.8268 21.2388C17.6541 20.4819 19.2159 19.2002 20.3147 17.5557C21.4135 15.9112 22 13.9778 22 12C22 10.6868 21.7413 9.38642 21.2388 8.17317C20.7363 6.95991 19.9997 5.85752 19.0711 4.92893C18.1425 4.00035 17.0401 3.26375 15.8268 2.7612C14.6136 2.25866 13.3132 2 12 2ZM12 20C10.4178 20 8.87104 19.5308 7.55544 18.6518C6.23985 17.7727 5.21447 16.5233 4.60897 15.0615C4.00347 13.5997 3.84504 11.9911 4.15372 10.4393C4.4624 8.88743 5.22433 7.46197 6.34315 6.34315C7.46197 5.22433 8.88743 4.4624 10.4393 4.15372C11.9911 3.84504 13.5997 4.00346 15.0615 4.60896C16.5233 5.21447 17.7727 6.23984 18.6518 7.55544C19.5308 8.87103 20 10.4177 20 12C20 14.1217 19.1572 16.1566 17.6569 17.6569C16.1566 19.1571 14.1217 20 12 20Z" fill="white" fill-opacity="0.4"/>
<path d="M15.9754 11.71V12.37C15.9754 13.5213 15.616 14.4417 14.8974 15.131C14.186 15.813 13.2804 16.154 12.1804 16.154C10.985 16.154 9.99138 15.769 9.19938 14.999C8.41472 14.229 8.02238 13.283 8.02238 12.161C8.02238 11.039 8.41105 10.0893 9.18838 9.312C9.97305 8.53467 10.93 8.146 12.0594 8.146C12.778 8.146 13.4344 8.30733 14.0284 8.63C14.6297 8.95267 15.0954 9.378 15.4254 9.906L13.9294 10.764C13.7607 10.5 13.5077 10.2837 13.1704 10.115C12.8404 9.94633 12.4664 9.862 12.0484 9.862C11.3957 9.862 10.853 10.0783 10.4204 10.511C9.99505 10.9437 9.78238 11.4973 9.78238 12.172C9.78238 12.8393 10.0024 13.3857 10.4424 13.811C10.8824 14.229 11.469 14.438 12.2024 14.438C13.2217 14.438 13.878 14.042 14.1714 13.25H12.1144V11.71H15.9754Z" fill="white" fill-opacity="0.4"/>
</svg>
