<svg width="13" height="13" viewBox="0 0 13 13" fill="none" xmlns="http://www.w3.org/2000/svg">
<path d="M6.76635 7.72677V5.95078H12.909C12.969 6.26031 13 6.62645 13 7.02279C13 8.35526 12.6261 10.0029 11.4212 11.1768C10.2493 12.3659 8.7519 13 6.76829 13C3.09164 13 0 10.0822 0 6.5C0 2.91783 3.09164 0 6.76829 0C8.80227 0 10.2512 0.777584 11.3399 1.79109L10.0536 3.04428C9.27298 2.33087 8.21532 1.77599 6.76635 1.77599C4.08151 1.77599 1.98167 3.88415 1.98167 6.5C1.98167 9.11585 4.08151 11.224 6.76635 11.224C8.50782 11.224 9.49963 10.5427 10.135 9.92364C10.6503 9.4216 10.9893 8.70441 11.1229 7.72488L6.76635 7.72677Z" fill="#FF922B"/>
</svg>
