<svg width="15" height="15" viewBox="0 0 15 15" fill="none" xmlns="http://www.w3.org/2000/svg">
<path d="M7.80733 8.91551V6.86629H14.8949C14.9642 7.22343 15 7.64591 15 8.10322C15 9.64068 14.5686 11.5418 13.1784 12.8963C11.8261 14.2683 10.0983 15 7.80957 15C3.56728 15 0 11.6333 0 7.5C0 3.36672 3.56728 0 7.80957 0C10.1565 0 11.8283 0.897213 13.0845 2.06664L11.6004 3.51263C10.6996 2.68946 9.47921 2.04922 7.80733 2.04922C4.70943 2.04922 2.28654 4.48171 2.28654 7.5C2.28654 10.5183 4.70943 12.9508 7.80733 12.9508C9.81672 12.9508 10.9611 12.1646 11.6942 11.4503C12.2888 10.8711 12.6799 10.0436 12.8342 8.91333L7.80733 8.91551Z" fill="#FF922B"/>
</svg>
