<svg width="18" height="17" viewBox="0 0 18 17" fill="none" xmlns="http://www.w3.org/2000/svg">
<path d="M10.305 13.0426C9.19348 12.7858 8.34346 11.7589 8.34346 10.6037C9.25886 10.0902 9.91273 9.06329 9.91273 7.90801C9.91273 7.33037 10.3704 6.8811 10.9589 6.8811V5.66164C10.9589 4.18545 9.84734 2.90181 8.40884 2.70926C7.36266 2.5809 6.44726 3.03017 5.85878 3.80036C5.40108 3.67199 5.00876 3.73617 4.48567 4.12127C3.96258 4.50636 3.63565 5.14818 3.63565 5.79V6.30346V7.07364V7.71546C3.63565 8.87074 4.22413 9.96184 5.20492 10.5395C5.20492 11.6948 4.3549 12.7217 3.24333 12.9784C1.87022 13.4277 0.824045 14.4546 0.5625 15.8666C0.5625 15.995 0.693272 16.1875 0.824045 16.1875H12.6589C12.8551 16.1875 12.9859 15.995 12.9205 15.8666C12.7243 14.4546 11.6782 13.3635 10.305 13.0426Z" stroke="white" stroke-opacity="0.5" stroke-width="1.3" stroke-miterlimit="10" stroke-linecap="round" stroke-linejoin="round"/>
<path d="M14.9447 6.625C14.9447 7.79649 14.3054 8.77273 13.4105 9.35847C13.4105 10.2696 13.9858 11.0506 14.7529 11.311C15.7756 11.7014 16.6066 12.6126 16.7984 13.719L16.8623 14.1746C16.9262 14.3698 16.7345 14.5 16.6066 14.5H11.8125" stroke="white" stroke-opacity="0.5" stroke-width="1.3" stroke-miterlimit="10" stroke-linecap="round" stroke-linejoin="round"/>
<path d="M17.4375 6.4375C16.7692 6.5625 16.034 6.625 15.2989 6.625C13.5613 6.625 11.9573 6.1875 10.6875 5.5" stroke="white" stroke-opacity="0.5" stroke-width="1.3" stroke-miterlimit="10" stroke-linecap="round" stroke-linejoin="round"/>
<path d="M7.875 2.88603C8.80469 1.56581 10.332 1 12.125 1C15.0469 1 17.4375 2.63456 17.4375 6.59522C17.4375 8.29265 16.9727 10.1787 16.2422 11.6875" stroke="white" stroke-opacity="0.5" stroke-width="1.3" stroke-miterlimit="10" stroke-linecap="round" stroke-linejoin="round"/>
</svg>
