<svg width="19" height="19" viewBox="0 0 19 19" fill="none" xmlns="http://www.w3.org/2000/svg">
<path d="M17.9248 5.24168C17.8474 5.16357 17.7552 5.10157 17.6537 5.05927C17.5521 5.01696 17.4432 4.99518 17.3332 4.99518C17.2232 4.99518 17.1142 5.01696 17.0127 5.05927C16.9111 5.10157 16.819 5.16357 16.7415 5.24168L15.6665 6.32501V1.66668C15.6665 1.44566 15.5787 1.2337 15.4224 1.07742C15.2661 0.921141 15.0542 0.833344 14.8332 0.833344C14.6122 0.833344 14.4002 0.921141 14.2439 1.07742C14.0876 1.2337 13.9998 1.44566 13.9998 1.66668V6.32501L12.9248 5.24168C12.7679 5.08476 12.5551 4.9966 12.3332 4.9966C12.1113 4.9966 11.8984 5.08476 11.7415 5.24168C11.5846 5.3986 11.4964 5.61143 11.4964 5.83334C11.4964 6.05526 11.5846 6.26809 11.7415 6.42501L14.2415 8.92501C14.3208 9.00088 14.4142 9.06035 14.5165 9.10001C14.6163 9.1441 14.7241 9.16687 14.8332 9.16687C14.9422 9.16687 15.0501 9.1441 15.1498 9.10001C15.2521 9.06035 15.3456 9.00088 15.4248 8.92501L17.9248 6.42501C18.0029 6.34754 18.0649 6.25537 18.1072 6.15382C18.1496 6.05227 18.1713 5.94335 18.1713 5.83334C18.1713 5.72333 18.1496 5.61441 18.1072 5.51286C18.0649 5.41131 18.0029 5.31915 17.9248 5.24168ZM14.8332 10.8333C14.6122 10.8333 14.4002 10.9211 14.2439 11.0774C14.0876 11.2337 13.9998 11.4457 13.9998 11.6667V11.9833L12.7665 10.75C12.331 10.318 11.7424 10.0755 11.129 10.0755C10.5156 10.0755 9.92698 10.318 9.4915 10.75L8.90817 11.3333L6.8415 9.26668C6.39994 8.84635 5.81364 8.61191 5.204 8.61191C4.59437 8.61191 4.00807 8.84635 3.5665 9.26668L2.33317 10.5V5.83334C2.33317 5.61233 2.42097 5.40037 2.57725 5.24409C2.73353 5.08781 2.94549 5.00001 3.1665 5.00001H9.83317C10.0542 5.00001 10.2661 4.91221 10.4224 4.75593C10.5787 4.59965 10.6665 4.38769 10.6665 4.16668C10.6665 3.94566 10.5787 3.7337 10.4224 3.57742C10.2661 3.42114 10.0542 3.33334 9.83317 3.33334H3.1665C2.50346 3.33334 1.86758 3.59674 1.39874 4.06558C0.929896 4.53442 0.666504 5.1703 0.666504 5.83334V15.8333C0.666504 16.4964 0.929896 17.1323 1.39874 17.6011C1.86758 18.07 2.50346 18.3333 3.1665 18.3333H13.1665C13.8295 18.3333 14.4654 18.07 14.9343 17.6011C15.4031 17.1323 15.6665 16.4964 15.6665 15.8333V11.6667C15.6665 11.4457 15.5787 11.2337 15.4224 11.0774C15.2661 10.9211 15.0542 10.8333 14.8332 10.8333ZM3.1665 16.6667C2.94549 16.6667 2.73353 16.5789 2.57725 16.4226C2.42097 16.2663 2.33317 16.0544 2.33317 15.8333V12.8583L4.74984 10.4417C4.87226 10.325 5.03489 10.2599 5.204 10.2599C5.37312 10.2599 5.53574 10.325 5.65817 10.4417L8.29984 13.0833L11.8832 16.6667H3.1665ZM13.9998 15.8333C13.9986 15.9929 13.946 16.1478 13.8498 16.275L10.0915 12.5L10.6748 11.9167C10.7346 11.8557 10.8059 11.8073 10.8846 11.7742C10.9633 11.7411 11.0478 11.7241 11.1332 11.7241C11.2185 11.7241 11.303 11.7411 11.3817 11.7742C11.4604 11.8073 11.5318 11.8557 11.5915 11.9167L13.9998 14.3417V15.8333Z" fill="white"/>
</svg>
