<svg width="254" height="50" viewBox="0 0 254 50" fill="none" xmlns="http://www.w3.org/2000/svg">
<path d="M4.68 31.37C5.02 31.5167 5.29 31.74 5.49 32.04C5.69667 32.3333 5.8 32.67 5.8 33.05C5.8 33.59 5.61 34.05 5.23 34.43C4.85 34.81 4.39 35 3.85 35H0.8V28H3.62C4.14 28 4.58333 28.1867 4.95 28.56C5.31667 28.9267 5.5 29.3667 5.5 29.88C5.5 30.5333 5.22667 31.03 4.68 31.37ZM3.62 28.66H1.5V31.1H3.62C3.94667 31.1 4.22333 30.9833 4.45 30.75C4.68333 30.51 4.8 30.22 4.8 29.88C4.8 29.5467 4.68333 29.26 4.45 29.02C4.22333 28.78 3.94667 28.66 3.62 28.66ZM3.85 34.34C4.19667 34.34 4.49 34.2167 4.73 33.97C4.97667 33.7167 5.1 33.41 5.1 33.05C5.1 32.6967 4.97667 32.3933 4.73 32.14C4.49 31.8867 4.19667 31.76 3.85 31.76H1.5V34.34H3.85ZM11.7312 35.12C10.9778 35.12 10.3512 34.87 9.85117 34.37C9.35117 33.8633 9.10117 33.24 9.10117 32.5C9.10117 31.76 9.35117 31.14 9.85117 30.64C10.3512 30.1333 10.9778 29.88 11.7312 29.88C12.2245 29.88 12.6678 30 13.0612 30.24C13.4545 30.4733 13.7412 30.79 13.9212 31.19L13.3812 31.5C13.2478 31.2 13.0312 30.9633 12.7312 30.79C12.4378 30.61 12.1045 30.52 11.7312 30.52C11.1778 30.52 10.7112 30.7133 10.3312 31.1C9.95117 31.48 9.76117 31.9467 9.76117 32.5C9.76117 33.0533 9.95117 33.5233 10.3312 33.91C10.7112 34.29 11.1778 34.48 11.7312 34.48C12.1045 34.48 12.4378 34.3933 12.7312 34.22C13.0245 34.04 13.2545 33.8 13.4212 33.5L13.9712 33.82C13.7645 34.22 13.4612 34.5367 13.0612 34.77C12.6612 35.0033 12.2178 35.12 11.7312 35.12ZM18.9211 30V35H18.2611V30.64H16.0011V32.87C16.0011 33.7033 15.8411 34.2767 15.5211 34.59C15.2078 34.9033 14.7744 35.04 14.2211 35V34.38C14.6011 34.42 14.8811 34.33 15.0611 34.11C15.2478 33.89 15.3411 33.4767 15.3411 32.87V30H18.9211ZM23.9191 30H24.6191L22.4791 35.46C22.2858 35.9533 22.0091 36.34 21.6491 36.62C21.2958 36.9067 20.8991 37.0333 20.4591 37V36.38C21.0591 36.4467 21.5158 36.1 21.8291 35.34L21.9591 35.03L19.7191 30H20.4191L22.2991 34.19L23.9191 30ZM28.6568 30H29.3168V35H28.6568V33.1C28.2701 33.3 27.7935 33.4 27.2268 33.4C26.5735 33.4 26.0735 33.25 25.7268 32.95C25.3868 32.6433 25.2168 32.1933 25.2168 31.6V30H25.8768V31.6C25.8768 32.02 25.9868 32.3233 26.2068 32.51C26.4268 32.69 26.7601 32.78 27.2068 32.78C27.7268 32.78 28.2101 32.6833 28.6568 32.49V30ZM35.0195 30H35.6795V35H35.0195V34.02C34.5595 34.7533 33.8862 35.12 32.9995 35.12C32.2862 35.12 31.6762 34.8667 31.1695 34.36C30.6695 33.8533 30.4195 33.2333 30.4195 32.5C30.4195 31.7667 30.6695 31.1467 31.1695 30.64C31.6762 30.1333 32.2862 29.88 32.9995 29.88C33.8862 29.88 34.5595 30.2467 35.0195 30.98V30ZM31.6495 33.91C32.0295 34.29 32.4962 34.48 33.0495 34.48C33.6029 34.48 34.0695 34.29 34.4495 33.91C34.8295 33.5233 35.0195 33.0533 35.0195 32.5C35.0195 31.9467 34.8295 31.48 34.4495 31.1C34.0695 30.7133 33.6029 30.52 33.0495 30.52C32.4962 30.52 32.0295 30.7133 31.6495 31.1C31.2695 31.48 31.0795 31.9467 31.0795 32.5C31.0795 33.0533 31.2695 33.5233 31.6495 33.91ZM39.387 29.88C40.127 29.88 40.7236 30.1433 41.177 30.67C41.637 31.19 41.867 31.8067 41.867 32.52C41.867 32.5933 41.8603 32.6967 41.847 32.83H37.457C37.5236 33.3367 37.737 33.74 38.097 34.04C38.4636 34.3333 38.9136 34.48 39.447 34.48C39.827 34.48 40.1536 34.4033 40.427 34.25C40.707 34.09 40.917 33.8833 41.057 33.63L41.637 33.97C41.417 34.3233 41.117 34.6033 40.737 34.81C40.357 35.0167 39.9236 35.12 39.437 35.12C38.6503 35.12 38.0103 34.8733 37.517 34.38C37.0236 33.8867 36.777 33.26 36.777 32.5C36.777 31.7533 37.0203 31.13 37.507 30.63C37.9936 30.13 38.6203 29.88 39.387 29.88ZM39.387 30.52C38.867 30.52 38.4303 30.6767 38.077 30.99C37.7303 31.2967 37.5236 31.6967 37.457 32.19H41.187C41.1203 31.6633 40.917 31.2533 40.577 30.96C40.237 30.6667 39.8403 30.52 39.387 30.52ZM48.9568 30H49.6168V35H48.9568V32.82H46.0768V35H45.4168V30H46.0768V32.18H48.9568V30ZM53.3225 29.88C54.0625 29.88 54.6592 30.1433 55.1125 30.67C55.5725 31.19 55.8025 31.8067 55.8025 32.52C55.8025 32.5933 55.7958 32.6967 55.7825 32.83H51.3925C51.4592 33.3367 51.6725 33.74 52.0325 34.04C52.3992 34.3333 52.8492 34.48 53.3825 34.48C53.7625 34.48 54.0892 34.4033 54.3625 34.25C54.6425 34.09 54.8525 33.8833 54.9925 33.63L55.5725 33.97C55.3525 34.3233 55.0525 34.6033 54.6725 34.81C54.2925 35.0167 53.8592 35.12 53.3725 35.12C52.5858 35.12 51.9458 34.8733 51.4525 34.38C50.9592 33.8867 50.7125 33.26 50.7125 32.5C50.7125 31.7533 50.9558 31.13 51.4425 30.63C51.9292 30.13 52.5558 29.88 53.3225 29.88ZM53.3225 30.52C52.8025 30.52 52.3658 30.6767 52.0125 30.99C51.6658 31.2967 51.4592 31.6967 51.3925 32.19H55.1225C55.0558 31.6633 54.8525 31.2533 54.5125 30.96C54.1725 30.6667 53.7758 30.52 53.3225 30.52ZM61.0523 30V35H60.3923V30.64H57.5123V35H56.8523V30H61.0523ZM65.128 29.88C65.8414 29.88 66.448 30.1333 66.948 30.64C67.4547 31.1467 67.708 31.7667 67.708 32.5C67.708 33.2333 67.4547 33.8533 66.948 34.36C66.448 34.8667 65.8414 35.12 65.128 35.12C64.2414 35.12 63.568 34.7533 63.108 34.02V37H62.448V30H63.108V30.98C63.568 30.2467 64.2414 29.88 65.128 29.88ZM63.678 33.91C64.058 34.29 64.5247 34.48 65.078 34.48C65.6314 34.48 66.098 34.29 66.478 33.91C66.858 33.5233 67.048 33.0533 67.048 32.5C67.048 31.9467 66.858 31.48 66.478 31.1C66.098 30.7133 65.6314 30.52 65.078 30.52C64.5247 30.52 64.058 30.7133 63.678 31.1C63.298 31.48 63.108 31.9467 63.108 32.5C63.108 33.0533 63.298 33.5233 63.678 33.91ZM72.9955 34.37C72.4888 34.87 71.8688 35.12 71.1355 35.12C70.4021 35.12 69.7788 34.87 69.2655 34.37C68.7588 33.8633 68.5055 33.24 68.5055 32.5C68.5055 31.76 68.7588 31.14 69.2655 30.64C69.7788 30.1333 70.4021 29.88 71.1355 29.88C71.8688 29.88 72.4888 30.1333 72.9955 30.64C73.5088 31.14 73.7655 31.76 73.7655 32.5C73.7655 33.24 73.5088 33.8633 72.9955 34.37ZM69.7355 33.91C70.1155 34.29 70.5821 34.48 71.1355 34.48C71.6888 34.48 72.1555 34.29 72.5355 33.91C72.9155 33.5233 73.1055 33.0533 73.1055 32.5C73.1055 31.9467 72.9155 31.48 72.5355 31.1C72.1555 30.7133 71.6888 30.52 71.1355 30.52C70.5821 30.52 70.1155 30.7133 69.7355 31.1C69.3555 31.48 69.1655 31.9467 69.1655 32.5C69.1655 33.0533 69.3555 33.5233 69.7355 33.91ZM78.7184 35H77.9284L76.3684 32.94L74.8084 35H74.0184L75.9784 32.41L74.1484 30H74.9384L76.3684 31.89L77.7984 30H78.5884L76.7684 32.41L78.7184 35ZM83.4545 34.37C82.9478 34.87 82.3278 35.12 81.5945 35.12C80.8611 35.12 80.2378 34.87 79.7245 34.37C79.2178 33.8633 78.9645 33.24 78.9645 32.5C78.9645 31.76 79.2178 31.14 79.7245 30.64C80.2378 30.1333 80.8611 29.88 81.5945 29.88C82.3278 29.88 82.9478 30.1333 83.4545 30.64C83.9678 31.14 84.2245 31.76 84.2245 32.5C84.2245 33.24 83.9678 33.8633 83.4545 34.37ZM80.1945 33.91C80.5745 34.29 81.0411 34.48 81.5945 34.48C82.1478 34.48 82.6145 34.29 82.9945 33.91C83.3745 33.5233 83.5645 33.0533 83.5645 32.5C83.5645 31.9467 83.3745 31.48 82.9945 31.1C82.6145 30.7133 82.1478 30.52 81.5945 30.52C81.0411 30.52 80.5745 30.7133 80.1945 31.1C79.8145 31.48 79.6245 31.9467 79.6245 32.5C79.6245 33.0533 79.8145 33.5233 80.1945 33.91ZM89.3336 34.36H90.0336V36.34H89.3736V35H85.2936V36.34H84.6336V34.36H85.2436C85.5836 33.9133 85.7536 33.2833 85.7536 32.47V30H89.3336V34.36ZM86.0436 34.36H88.6736V30.64H86.4136V32.47C86.4136 33.2367 86.2903 33.8667 86.0436 34.36ZM94.672 30H95.232V35H94.572V31.15L91.592 35H91.032V30H91.692V33.85L94.672 30ZM101.528 30V35H100.868V31.01L99.1177 33.85H99.0377L97.2877 31.01V35H96.6277V30H97.3877L99.0777 32.74L100.768 30H101.528ZM107.117 34.37C106.61 34.87 105.99 35.12 105.257 35.12C104.523 35.12 103.9 34.87 103.387 34.37C102.88 33.8633 102.627 33.24 102.627 32.5C102.627 31.76 102.88 31.14 103.387 30.64C103.9 30.1333 104.523 29.88 105.257 29.88C105.99 29.88 106.61 30.1333 107.117 30.64C107.63 31.14 107.887 31.76 107.887 32.5C107.887 33.24 107.63 33.8633 107.117 34.37ZM103.857 33.91C104.237 34.29 104.703 34.48 105.257 34.48C105.81 34.48 106.277 34.29 106.657 33.91C107.037 33.5233 107.227 33.0533 107.227 32.5C107.227 31.9467 107.037 31.48 106.657 31.1C106.277 30.7133 105.81 30.52 105.257 30.52C104.703 30.52 104.237 30.7133 103.857 31.1C103.477 31.48 103.287 31.9467 103.287 32.5C103.287 33.0533 103.477 33.5233 103.857 33.91ZM111.321 35.12C110.568 35.12 109.941 34.87 109.441 34.37C108.941 33.8633 108.691 33.24 108.691 32.5C108.691 31.76 108.941 31.14 109.441 30.64C109.941 30.1333 110.568 29.88 111.321 29.88C111.814 29.88 112.258 30 112.651 30.24C113.044 30.4733 113.331 30.79 113.511 31.19L112.971 31.5C112.838 31.2 112.621 30.9633 112.321 30.79C112.028 30.61 111.694 30.52 111.321 30.52C110.768 30.52 110.301 30.7133 109.921 31.1C109.541 31.48 109.351 31.9467 109.351 32.5C109.351 33.0533 109.541 33.5233 109.921 33.91C110.301 34.29 110.768 34.48 111.321 34.48C111.694 34.48 112.028 34.3933 112.321 34.22C112.614 34.04 112.844 33.8 113.011 33.5L113.561 33.82C113.354 34.22 113.051 34.5367 112.651 34.77C112.251 35.0033 111.808 35.12 111.321 35.12ZM118.011 30V30.64H116.241V35H115.581V30.64H113.811V30H118.011ZM122.455 30H123.015V35H122.355V31.15L119.375 35H118.815V30H119.475V33.85L122.455 30ZM131.111 30V35H130.451V30.64H127.571V35H126.911V30H131.111ZM136.607 30V35H135.947V30.64H133.687V32.87C133.687 33.7033 133.527 34.2767 133.207 34.59C132.893 34.9033 132.46 35.04 131.907 35V34.38C132.287 34.42 132.567 34.33 132.747 34.11C132.933 33.89 133.027 33.4767 133.027 32.87V30H136.607ZM142.305 30H142.965V35H142.305V34.02C141.845 34.7533 141.171 35.12 140.285 35.12C139.571 35.12 138.961 34.8667 138.455 34.36C137.955 33.8533 137.705 33.2333 137.705 32.5C137.705 31.7667 137.955 31.1467 138.455 30.64C138.961 30.1333 139.571 29.88 140.285 29.88C141.171 29.88 141.845 30.2467 142.305 30.98V30ZM138.935 33.91C139.315 34.29 139.781 34.48 140.335 34.48C140.888 34.48 141.355 34.29 141.735 33.91C142.115 33.5233 142.305 33.0533 142.305 32.5C142.305 31.9467 142.115 31.48 141.735 31.1C141.355 30.7133 140.888 30.52 140.335 30.52C139.781 30.52 139.315 30.7133 138.935 31.1C138.555 31.48 138.365 31.9467 138.365 32.5C138.365 33.0533 138.555 33.5233 138.935 33.91ZM147.962 30V30.64H146.192V35H145.532V30.64H143.762V30H147.962ZM150.881 29.88C151.621 29.88 152.218 30.1433 152.671 30.67C153.131 31.19 153.361 31.8067 153.361 32.52C153.361 32.5933 153.354 32.6967 153.341 32.83H148.951C149.018 33.3367 149.231 33.74 149.591 34.04C149.958 34.3333 150.408 34.48 150.941 34.48C151.321 34.48 151.648 34.4033 151.921 34.25C152.201 34.09 152.411 33.8833 152.551 33.63L153.131 33.97C152.911 34.3233 152.611 34.6033 152.231 34.81C151.851 35.0167 151.418 35.12 150.931 35.12C150.144 35.12 149.504 34.8733 149.011 34.38C148.518 33.8867 148.271 33.26 148.271 32.5C148.271 31.7533 148.514 31.13 149.001 30.63C149.488 30.13 150.114 29.88 150.881 29.88ZM150.881 30.52C150.361 30.52 149.924 30.6767 149.571 30.99C149.224 31.2967 149.018 31.6967 148.951 32.19H152.681C152.614 31.6633 152.411 31.2533 152.071 30.96C151.731 30.6667 151.334 30.52 150.881 30.52ZM159.948 35H159.148L157.108 32.59V35H156.448V32.59L154.408 35H153.608L155.848 32.4L153.708 30H154.508L156.448 32.22V30H157.108V32.22L159.048 30H159.848L157.708 32.4L159.948 35ZM164.746 30H165.406V35H164.746V34.02C164.286 34.7533 163.613 35.12 162.726 35.12C162.013 35.12 161.403 34.8667 160.896 34.36C160.396 33.8533 160.146 33.2333 160.146 32.5C160.146 31.7667 160.396 31.1467 160.896 30.64C161.403 30.1333 162.013 29.88 162.726 29.88C163.613 29.88 164.286 30.2467 164.746 30.98V30ZM161.376 33.91C161.756 34.29 162.223 34.48 162.776 34.48C163.329 34.48 163.796 34.29 164.176 33.91C164.556 33.5233 164.746 33.0533 164.746 32.5C164.746 31.9467 164.556 31.48 164.176 31.1C163.796 30.7133 163.329 30.52 162.776 30.52C162.223 30.52 161.756 30.7133 161.376 31.1C160.996 31.48 160.806 31.9467 160.806 32.5C160.806 33.0533 160.996 33.5233 161.376 33.91ZM172.544 30H173.204V35H172.544V33.1C172.157 33.3 171.68 33.4 171.114 33.4C170.46 33.4 169.96 33.25 169.614 32.95C169.274 32.6433 169.104 32.1933 169.104 31.6V30H169.764V31.6C169.764 32.02 169.874 32.3233 170.094 32.51C170.314 32.69 170.647 32.78 171.094 32.78C171.614 32.78 172.097 32.6833 172.544 32.49V30ZM176.916 29.88C177.656 29.88 178.253 30.1433 178.706 30.67C179.166 31.19 179.396 31.8067 179.396 32.52C179.396 32.5933 179.39 32.6967 179.376 32.83H174.986C175.053 33.3367 175.266 33.74 175.626 34.04C175.993 34.3333 176.443 34.48 176.976 34.48C177.356 34.48 177.683 34.4033 177.956 34.25C178.236 34.09 178.446 33.8833 178.586 33.63L179.166 33.97C178.946 34.3233 178.646 34.6033 178.266 34.81C177.886 35.0167 177.453 35.12 176.966 35.12C176.18 35.12 175.54 34.8733 175.046 34.38C174.553 33.8867 174.306 33.26 174.306 32.5C174.306 31.7533 174.55 31.13 175.036 30.63C175.523 30.13 176.15 29.88 176.916 29.88ZM176.916 30.52C176.396 30.52 175.96 30.6767 175.606 30.99C175.26 31.2967 175.053 31.6967 174.986 32.19H178.716C178.65 31.6633 178.446 31.2533 178.106 30.96C177.766 30.6667 177.37 30.52 176.916 30.52ZM183.126 29.88C183.839 29.88 184.446 30.1333 184.946 30.64C185.453 31.1467 185.706 31.7667 185.706 32.5C185.706 33.2333 185.453 33.8533 184.946 34.36C184.446 34.8667 183.839 35.12 183.126 35.12C182.239 35.12 181.566 34.7533 181.106 34.02V37H180.446V30H181.106V30.98C181.566 30.2467 182.239 29.88 183.126 29.88ZM181.676 33.91C182.056 34.29 182.523 34.48 183.076 34.48C183.629 34.48 184.096 34.29 184.476 33.91C184.856 33.5233 185.046 33.0533 185.046 32.5C185.046 31.9467 184.856 31.48 184.476 31.1C184.096 30.7133 183.629 30.52 183.076 30.52C182.523 30.52 182.056 30.7133 181.676 31.1C181.296 31.48 181.106 31.9467 181.106 32.5C181.106 33.0533 181.296 33.5233 181.676 33.91ZM189.114 29.88C189.854 29.88 190.45 30.1433 190.904 30.67C191.364 31.19 191.594 31.8067 191.594 32.52C191.594 32.5933 191.587 32.6967 191.574 32.83H187.184C187.25 33.3367 187.464 33.74 187.824 34.04C188.19 34.3333 188.64 34.48 189.174 34.48C189.554 34.48 189.88 34.4033 190.154 34.25C190.434 34.09 190.644 33.8833 190.784 33.63L191.364 33.97C191.144 34.3233 190.844 34.6033 190.464 34.81C190.084 35.0167 189.65 35.12 189.164 35.12C188.377 35.12 187.737 34.8733 187.244 34.38C186.75 33.8867 186.504 33.26 186.504 32.5C186.504 31.7533 186.747 31.13 187.234 30.63C187.72 30.13 188.347 29.88 189.114 29.88ZM189.114 30.52C188.594 30.52 188.157 30.6767 187.804 30.99C187.457 31.2967 187.25 31.6967 187.184 32.19H190.914C190.847 31.6633 190.644 31.2533 190.304 30.96C189.964 30.6667 189.567 30.52 189.114 30.52ZM195.126 32.43C195.706 32.65 195.996 33.05 195.996 33.63C195.996 34.0433 195.832 34.3967 195.506 34.69C195.186 34.9767 194.726 35.12 194.126 35.12C193.119 35.12 192.459 34.72 192.146 33.92L192.706 33.59C192.912 34.1833 193.386 34.48 194.126 34.48C194.512 34.48 194.809 34.3967 195.016 34.23C195.229 34.0633 195.336 33.85 195.336 33.59C195.336 33.3567 195.249 33.1667 195.076 33.02C194.902 32.8733 194.669 32.8 194.376 32.8H193.646V32.16H194.176C194.462 32.16 194.686 32.09 194.846 31.95C195.012 31.8033 195.096 31.6033 195.096 31.35C195.096 31.11 194.999 30.9133 194.806 30.76C194.612 30.6 194.352 30.52 194.026 30.52C193.399 30.52 192.982 30.77 192.776 31.27L192.226 30.95C192.559 30.2367 193.159 29.88 194.026 29.88C194.552 29.88 194.972 30.02 195.286 30.3C195.599 30.5733 195.756 30.91 195.756 31.31C195.756 31.8233 195.546 32.1967 195.126 32.43ZM203.699 30V35H203.039V30.64H200.159V35H199.499V30H203.699ZM207.405 29.88C208.145 29.88 208.741 30.1433 209.195 30.67C209.655 31.19 209.885 31.8067 209.885 32.52C209.885 32.5933 209.878 32.6967 209.865 32.83H205.475C205.541 33.3367 205.755 33.74 206.115 34.04C206.481 34.3333 206.931 34.48 207.465 34.48C207.845 34.48 208.171 34.4033 208.445 34.25C208.725 34.09 208.935 33.8833 209.075 33.63L209.655 33.97C209.435 34.3233 209.135 34.6033 208.755 34.81C208.375 35.0167 207.941 35.12 207.455 35.12C206.668 35.12 206.028 34.8733 205.535 34.38C205.041 33.8867 204.795 33.26 204.795 32.5C204.795 31.7533 205.038 31.13 205.525 30.63C206.011 30.13 206.638 29.88 207.405 29.88ZM207.405 30.52C206.885 30.52 206.448 30.6767 206.095 30.99C205.748 31.2967 205.541 31.6967 205.475 32.19H209.205C209.138 31.6633 208.935 31.2533 208.595 30.96C208.255 30.6667 207.858 30.52 207.405 30.52ZM213.614 29.88C214.328 29.88 214.934 30.1333 215.434 30.64C215.941 31.1467 216.194 31.7667 216.194 32.5C216.194 33.2333 215.941 33.8533 215.434 34.36C214.934 34.8667 214.328 35.12 213.614 35.12C212.728 35.12 212.054 34.7533 211.594 34.02V37H210.934V30H211.594V30.98C212.054 30.2467 212.728 29.88 213.614 29.88ZM212.164 33.91C212.544 34.29 213.011 34.48 213.564 34.48C214.118 34.48 214.584 34.29 214.964 33.91C215.344 33.5233 215.534 33.0533 215.534 32.5C215.534 31.9467 215.344 31.48 214.964 31.1C214.584 30.7133 214.118 30.52 213.564 30.52C213.011 30.52 212.544 30.7133 212.164 31.1C211.784 31.48 211.594 31.9467 211.594 32.5C211.594 33.0533 211.784 33.5233 212.164 33.91ZM220.472 32.43C221.018 32.63 221.292 33.02 221.292 33.6C221.292 34.0067 221.155 34.3433 220.882 34.61C220.615 34.87 220.228 35 219.722 35H217.292V30H219.522C220.008 30 220.385 30.1267 220.652 30.38C220.918 30.6267 221.052 30.9467 221.052 31.34C221.052 31.84 220.858 32.2033 220.472 32.43ZM219.522 30.64H217.952V32.16H219.522C220.102 32.16 220.392 31.9 220.392 31.38C220.392 31.1467 220.315 30.9667 220.162 30.84C220.015 30.7067 219.802 30.64 219.522 30.64ZM219.722 34.36C220.015 34.36 220.238 34.29 220.392 34.15C220.552 34.01 220.632 33.8133 220.632 33.56C220.632 33.3267 220.552 33.1433 220.392 33.01C220.238 32.87 220.015 32.8 219.722 32.8H217.952V34.36H219.722ZM224.322 31.9C224.788 31.9 225.182 32.0467 225.502 32.34C225.828 32.6267 225.992 32.9967 225.992 33.45C225.992 33.9033 225.828 34.2767 225.502 34.57C225.182 34.8567 224.788 35 224.322 35H222.292V30H222.952V31.9H224.322ZM226.692 30H227.352V35H226.692V30ZM224.322 34.36C224.602 34.36 224.838 34.2767 225.032 34.11C225.232 33.9433 225.332 33.7233 225.332 33.45C225.332 33.1767 225.232 32.9567 225.032 32.79C224.838 32.6233 224.602 32.54 224.322 32.54H222.952V34.36H224.322ZM229.557 29.2V28.62H232.157V29.2H229.557ZM232.397 30H232.957V35H232.297V31.15L229.317 35H228.757V30H229.417V33.85L232.397 30ZM3.03 47.12C2.27667 47.12 1.65 46.87 1.15 46.37C0.65 45.8633 0.4 45.24 0.4 44.5C0.4 43.76 0.65 43.14 1.15 42.64C1.65 42.1333 2.27667 41.88 3.03 41.88C3.52333 41.88 3.96667 42 4.36 42.24C4.75333 42.4733 5.04 42.79 5.22 43.19L4.68 43.5C4.54667 43.2 4.33 42.9633 4.03 42.79C3.73667 42.61 3.40333 42.52 3.03 42.52C2.47667 42.52 2.01 42.7133 1.63 43.1C1.25 43.48 1.06 43.9467 1.06 44.5C1.06 45.0533 1.25 45.5233 1.63 45.91C2.01 46.29 2.47667 46.48 3.03 46.48C3.40333 46.48 3.73667 46.3933 4.03 46.22C4.32333 46.04 4.55333 45.8 4.72 45.5L5.27 45.82C5.06333 46.22 4.76 46.5367 4.36 46.77C3.96 47.0033 3.51667 47.12 3.03 47.12ZM10.4176 42V47H9.75758V42.64H6.87758V47H6.21758V42H10.4176ZM16.0033 46.37C15.4966 46.87 14.8766 47.12 14.1433 47.12C13.4099 47.12 12.7866 46.87 12.2733 46.37C11.7666 45.8633 11.5133 45.24 11.5133 44.5C11.5133 43.76 11.7666 43.14 12.2733 42.64C12.7866 42.1333 13.4099 41.88 14.1433 41.88C14.8766 41.88 15.4966 42.1333 16.0033 42.64C16.5166 43.14 16.7733 43.76 16.7733 44.5C16.7733 45.24 16.5166 45.8633 16.0033 46.37ZM12.7433 45.91C13.1233 46.29 13.5899 46.48 14.1433 46.48C14.6966 46.48 15.1633 46.29 15.5433 45.91C15.9233 45.5233 16.1133 45.0533 16.1133 44.5C16.1133 43.9467 15.9233 43.48 15.5433 43.1C15.1633 42.7133 14.6966 42.52 14.1433 42.52C13.5899 42.52 13.1233 42.7133 12.7433 43.1C12.3633 43.48 12.1733 43.9467 12.1733 44.5C12.1733 45.0533 12.3633 45.5233 12.7433 45.91ZM20.2077 47.12C19.4544 47.12 18.8277 46.87 18.3277 46.37C17.8277 45.8633 17.5777 45.24 17.5777 44.5C17.5777 43.76 17.8277 43.14 18.3277 42.64C18.8277 42.1333 19.4544 41.88 20.2077 41.88C20.7011 41.88 21.1444 42 21.5377 42.24C21.9311 42.4733 22.2177 42.79 22.3977 43.19L21.8577 43.5C21.7244 43.2 21.5077 42.9633 21.2077 42.79C20.9144 42.61 20.5811 42.52 20.2077 42.52C19.6544 42.52 19.1877 42.7133 18.8077 43.1C18.4277 43.48 18.2377 43.9467 18.2377 44.5C18.2377 45.0533 18.4277 45.5233 18.8077 45.91C19.1877 46.29 19.6544 46.48 20.2077 46.48C20.5811 46.48 20.9144 46.3933 21.2077 46.22C21.5011 46.04 21.7311 45.8 21.8977 45.5L22.4477 45.82C22.2411 46.22 21.9377 46.5367 21.5377 46.77C21.1377 47.0033 20.6944 47.12 20.2077 47.12ZM27.5365 46.37C27.0298 46.87 26.4098 47.12 25.6765 47.12C24.9432 47.12 24.3198 46.87 23.8065 46.37C23.2998 45.8633 23.0465 45.24 23.0465 44.5C23.0465 43.76 23.2998 43.14 23.8065 42.64C24.3198 42.1333 24.9432 41.88 25.6765 41.88C26.4098 41.88 27.0298 42.1333 27.5365 42.64C28.0498 43.14 28.3065 43.76 28.3065 44.5C28.3065 45.24 28.0498 45.8633 27.5365 46.37ZM24.2765 45.91C24.6565 46.29 25.1232 46.48 25.6765 46.48C26.2298 46.48 26.6965 46.29 27.0765 45.91C27.4565 45.5233 27.6465 45.0533 27.6465 44.5C27.6465 43.9467 27.4565 43.48 27.0765 43.1C26.6965 42.7133 26.2298 42.52 25.6765 42.52C25.1232 42.52 24.6565 42.7133 24.2765 43.1C23.8965 43.48 23.7065 43.9467 23.7065 44.5C23.7065 45.0533 23.8965 45.5233 24.2765 45.91ZM31.6309 47.12C30.9109 47.12 30.3109 46.8833 29.8309 46.41C29.3509 45.93 29.1109 45.31 29.1109 44.55C29.1109 43.6967 29.2376 43.0433 29.4909 42.59C29.7443 42.13 30.2576 41.7133 31.0309 41.34C31.1776 41.2667 31.3709 41.18 31.6109 41.08C31.8576 40.98 32.0409 40.9 32.1609 40.84C32.2876 40.78 32.4243 40.7033 32.5709 40.61C32.7176 40.51 32.8276 40.4 32.9009 40.28C32.9743 40.16 33.0209 40.0167 33.0409 39.85L33.5609 40.15C33.5343 40.31 33.4809 40.46 33.4009 40.6C33.3209 40.74 33.2376 40.8533 33.1509 40.94C33.0709 41.0267 32.9409 41.1233 32.7609 41.23C32.5876 41.33 32.4509 41.4033 32.3509 41.45C32.2576 41.49 32.0909 41.56 31.8509 41.66C31.6176 41.76 31.4609 41.8267 31.3809 41.86C30.9143 42.06 30.5709 42.27 30.3509 42.49C30.1309 42.7033 29.9743 42.9833 29.8809 43.33C30.1076 43.03 30.3943 42.81 30.7409 42.67C31.0943 42.5233 31.4376 42.45 31.7709 42.45C32.4376 42.45 32.9876 42.67 33.4209 43.11C33.8609 43.5433 34.0809 44.1 34.0809 44.78C34.0809 45.4533 33.8476 46.0133 33.3809 46.46C32.9209 46.9 32.3376 47.12 31.6309 47.12ZM31.6309 46.46C32.1509 46.46 32.5776 46.3033 32.9109 45.99C33.2509 45.67 33.4209 45.2667 33.4209 44.78C33.4209 44.2867 33.2609 43.8833 32.9409 43.57C32.6276 43.25 32.2076 43.09 31.6809 43.09C31.2076 43.09 30.7776 43.24 30.3909 43.54C30.0043 43.8333 29.8109 44.2267 29.8109 44.72C29.8109 45.2267 29.9843 45.6433 30.3309 45.97C30.6843 46.2967 31.1176 46.46 31.6309 46.46ZM41.7748 46.37C41.2681 46.87 40.6481 47.12 39.9148 47.12C39.1814 47.12 38.5581 46.87 38.0448 46.37C37.5381 45.8633 37.2848 45.24 37.2848 44.5C37.2848 43.76 37.5381 43.14 38.0448 42.64C38.5581 42.1333 39.1814 41.88 39.9148 41.88C40.6481 41.88 41.2681 42.1333 41.7748 42.64C42.2881 43.14 42.5448 43.76 42.5448 44.5C42.5448 45.24 42.2881 45.8633 41.7748 46.37ZM38.5148 45.91C38.8948 46.29 39.3614 46.48 39.9148 46.48C40.4681 46.48 40.9348 46.29 41.3148 45.91C41.6948 45.5233 41.8848 45.0533 41.8848 44.5C41.8848 43.9467 41.6948 43.48 41.3148 43.1C40.9348 42.7133 40.4681 42.52 39.9148 42.52C39.3614 42.52 38.8948 42.7133 38.5148 43.1C38.1348 43.48 37.9448 43.9467 37.9448 44.5C37.9448 45.0533 38.1348 45.5233 38.5148 45.91ZM47.8492 42V47H47.1892V42.64H44.3092V47H43.6492V42H47.8492ZM53.3449 42V47H52.6849V42.64H50.4249V44.87C50.4249 45.7033 50.2649 46.2767 49.9449 46.59C49.6316 46.9033 49.1983 47.04 48.6449 47V46.38C49.0249 46.42 49.3049 46.33 49.4849 46.11C49.6716 45.89 49.7649 45.4767 49.7649 44.87V42H53.3449ZM59.043 42H59.703V47H59.043V46.02C58.583 46.7533 57.9096 47.12 57.023 47.12C56.3096 47.12 55.6996 46.8667 55.193 46.36C54.693 45.8533 54.443 45.2333 54.443 44.5C54.443 43.7667 54.693 43.1467 55.193 42.64C55.6996 42.1333 56.3096 41.88 57.023 41.88C57.9096 41.88 58.583 42.2467 59.043 42.98V42ZM55.673 45.91C56.053 46.29 56.5196 46.48 57.073 46.48C57.6263 46.48 58.093 46.29 58.473 45.91C58.853 45.5233 59.043 45.0533 59.043 44.5C59.043 43.9467 58.853 43.48 58.473 43.1C58.093 42.7133 57.6263 42.52 57.073 42.52C56.5196 42.52 56.053 42.7133 55.673 43.1C55.293 43.48 55.103 43.9467 55.103 44.5C55.103 45.0533 55.293 45.5233 55.673 45.91ZM64.7004 42V42.64H62.9304V47H62.2704V42.64H60.5004V42H64.7004ZM67.5347 43.9C68.0014 43.9 68.3947 44.0467 68.7147 44.34C69.0414 44.6267 69.2047 44.9967 69.2047 45.45C69.2047 45.9033 69.0414 46.2767 68.7147 46.57C68.3947 46.8567 68.0014 47 67.5347 47H65.5047V42H66.1647V43.9H67.5347ZM69.9047 42H70.5647V47H69.9047V42ZM67.5347 46.36C67.8147 46.36 68.0514 46.2767 68.2447 46.11C68.4447 45.9433 68.5447 45.7233 68.5447 45.45C68.5447 45.1767 68.4447 44.9567 68.2447 44.79C68.0514 44.6233 67.8147 44.54 67.5347 44.54H66.1647V46.36H67.5347ZM78.5095 47H77.6295L75.1295 44.59V47H74.4695V42H75.1295V44.21L77.5095 42H78.4095L75.8295 44.4L78.5095 47ZM83.2129 42H83.8729V47H83.2129V46.02C82.7529 46.7533 82.0796 47.12 81.1929 47.12C80.4796 47.12 79.8696 46.8667 79.3629 46.36C78.8629 45.8533 78.6129 45.2333 78.6129 44.5C78.6129 43.7667 78.8629 43.1467 79.3629 42.64C79.8696 42.1333 80.4796 41.88 81.1929 41.88C82.0796 41.88 82.7529 42.2467 83.2129 42.98V42ZM79.8429 45.91C80.2229 46.29 80.6896 46.48 81.2429 46.48C81.7962 46.48 82.2629 46.29 82.6429 45.91C83.0229 45.5233 83.2129 45.0533 83.2129 44.5C83.2129 43.9467 83.0229 43.48 82.6429 43.1C82.2629 42.7133 81.7962 42.52 81.2429 42.52C80.6896 42.52 80.2229 42.7133 79.8429 43.1C79.4629 43.48 79.2729 43.9467 79.2729 44.5C79.2729 45.0533 79.4629 45.5233 79.8429 45.91ZM87.9503 41.88C88.6636 41.88 89.2703 42.1333 89.7703 42.64C90.277 43.1467 90.5303 43.7667 90.5303 44.5C90.5303 45.2333 90.277 45.8533 89.7703 46.36C89.2703 46.8667 88.6636 47.12 87.9503 47.12C87.0636 47.12 86.3903 46.7533 85.9303 46.02V49H85.2703V42H85.9303V42.98C86.3903 42.2467 87.0636 41.88 87.9503 41.88ZM86.5003 45.91C86.8803 46.29 87.347 46.48 87.9003 46.48C88.4536 46.48 88.9203 46.29 89.3003 45.91C89.6803 45.5233 89.8703 45.0533 89.8703 44.5C89.8703 43.9467 89.6803 43.48 89.3003 43.1C88.9203 42.7133 88.4536 42.52 87.9003 42.52C87.347 42.52 86.8803 42.7133 86.5003 43.1C86.1203 43.48 85.9303 43.9467 85.9303 44.5C85.9303 45.0533 86.1203 45.5233 86.5003 45.91ZM95.0324 42V42.64H93.2624V47H92.6024V42.64H90.8324V42H95.0324ZM99.9414 42H100.601V47H99.9414V46.02C99.4814 46.7533 98.8081 47.12 97.9214 47.12C97.2081 47.12 96.5981 46.8667 96.0914 46.36C95.5914 45.8533 95.3414 45.2333 95.3414 44.5C95.3414 43.7667 95.5914 43.1467 96.0914 42.64C96.5981 42.1333 97.2081 41.88 97.9214 41.88C98.8081 41.88 99.4814 42.2467 99.9414 42.98V42ZM96.5714 45.91C96.9514 46.29 97.4181 46.48 97.9714 46.48C98.5247 46.48 98.9914 46.29 99.3714 45.91C99.7514 45.5233 99.9414 45.0533 99.9414 44.5C99.9414 43.9467 99.7514 43.48 99.3714 43.1C98.9914 42.7133 98.5247 42.52 97.9714 42.52C97.4181 42.52 96.9514 42.7133 96.5714 43.1C96.1914 43.48 96.0014 43.9467 96.0014 44.5C96.0014 45.0533 96.1914 45.5233 96.5714 45.91ZM106.899 42V47H106.239V43.01L104.489 45.85H104.409L102.659 43.01V47H101.999V42H102.759L104.449 44.74L106.139 42H106.899ZM111.938 42H112.498V47H111.838V43.15L108.858 47H108.298V42H108.958V45.85L111.938 42ZM120.033 42H120.593V47H119.933V43.15L116.953 47H116.393V42H117.053V45.85L120.033 42ZM124.319 47.12C123.566 47.12 122.939 46.87 122.439 46.37C121.939 45.8633 121.689 45.24 121.689 44.5C121.689 43.76 121.939 43.14 122.439 42.64C122.939 42.1333 123.566 41.88 124.319 41.88C124.812 41.88 125.256 42 125.649 42.24C126.042 42.4733 126.329 42.79 126.509 43.19L125.969 43.5C125.836 43.2 125.619 42.9633 125.319 42.79C125.026 42.61 124.692 42.52 124.319 42.52C123.766 42.52 123.299 42.7133 122.919 43.1C122.539 43.48 122.349 43.9467 122.349 44.5C122.349 45.0533 122.539 45.5233 122.919 45.91C123.299 46.29 123.766 46.48 124.319 46.48C124.692 46.48 125.026 46.3933 125.319 46.22C125.612 46.04 125.842 45.8 126.009 45.5L126.559 45.82C126.352 46.22 126.049 46.5367 125.649 46.77C125.249 47.0033 124.806 47.12 124.319 47.12ZM131.707 42V47H131.047V42.64H128.167V47H127.507V42H131.707ZM137.292 46.37C136.786 46.87 136.166 47.12 135.432 47.12C134.699 47.12 134.076 46.87 133.562 46.37C133.056 45.8633 132.802 45.24 132.802 44.5C132.802 43.76 133.056 43.14 133.562 42.64C134.076 42.1333 134.699 41.88 135.432 41.88C136.166 41.88 136.786 42.1333 137.292 42.64C137.806 43.14 138.062 43.76 138.062 44.5C138.062 45.24 137.806 45.8633 137.292 46.37ZM134.032 45.91C134.412 46.29 134.879 46.48 135.432 46.48C135.986 46.48 136.452 46.29 136.832 45.91C137.212 45.5233 137.402 45.0533 137.402 44.5C137.402 43.9467 137.212 43.48 136.832 43.1C136.452 42.7133 135.986 42.52 135.432 42.52C134.879 42.52 134.412 42.7133 134.032 43.1C133.652 43.48 133.462 43.9467 133.462 44.5C133.462 45.0533 133.652 45.5233 134.032 45.91ZM143.071 42V47H142.411V42.64H140.151V44.87C140.151 45.7033 139.991 46.2767 139.671 46.59C139.358 46.9033 138.925 47.04 138.371 47V46.38C138.751 46.42 139.031 46.33 139.211 46.11C139.398 45.89 139.491 45.4767 139.491 44.87V42H143.071ZM146.5 43.9C146.966 43.9 147.36 44.0467 147.68 44.34C148.006 44.6267 148.17 44.9967 148.17 45.45C148.17 45.9033 148.006 46.2767 147.68 46.57C147.36 46.8567 146.966 47 146.5 47H144.47V42H145.13V43.9H146.5ZM146.5 46.36C146.78 46.36 147.016 46.2767 147.21 46.11C147.41 45.9433 147.51 45.7233 147.51 45.45C147.51 45.1767 147.41 44.9567 147.21 44.79C147.016 44.6233 146.78 44.54 146.5 44.54H145.13V46.36H146.5ZM151.649 44.43C152.229 44.65 152.519 45.05 152.519 45.63C152.519 46.0433 152.356 46.3967 152.029 46.69C151.709 46.9767 151.249 47.12 150.649 47.12C149.642 47.12 148.982 46.72 148.669 45.92L149.229 45.59C149.436 46.1833 149.909 46.48 150.649 46.48C151.036 46.48 151.332 46.3967 151.539 46.23C151.752 46.0633 151.859 45.85 151.859 45.59C151.859 45.3567 151.772 45.1667 151.599 45.02C151.426 44.8733 151.192 44.8 150.899 44.8H150.169V44.16H150.699C150.986 44.16 151.209 44.09 151.369 43.95C151.536 43.8033 151.619 43.6033 151.619 43.35C151.619 43.11 151.522 42.9133 151.329 42.76C151.136 42.6 150.876 42.52 150.549 42.52C149.922 42.52 149.506 42.77 149.299 43.27L148.749 42.95C149.082 42.2367 149.682 41.88 150.549 41.88C151.076 41.88 151.496 42.02 151.809 42.3C152.122 42.5733 152.279 42.91 152.279 43.31C152.279 43.8233 152.069 44.1967 151.649 44.43ZM156.927 42H157.627L155.487 47.46C155.294 47.9533 155.017 48.34 154.657 48.62C154.304 48.9067 153.907 49.0333 153.467 49V48.38C154.067 48.4467 154.524 48.1 154.837 47.34L154.967 47.03L152.727 42H153.427L155.307 46.19L156.927 42ZM159.225 41.2V40.62H161.825V41.2H159.225ZM162.065 42H162.625V47H161.965V43.15L158.985 47H158.425V42H159.085V45.85L162.065 42ZM167.62 42V42.64H165.85V47H165.19V42.64H163.42V42H167.62ZM170.539 41.88C171.279 41.88 171.876 42.1433 172.329 42.67C172.789 43.19 173.019 43.8067 173.019 44.52C173.019 44.5933 173.013 44.6967 172.999 44.83H168.609C168.676 45.3367 168.889 45.74 169.249 46.04C169.616 46.3333 170.066 46.48 170.599 46.48C170.979 46.48 171.306 46.4033 171.579 46.25C171.859 46.09 172.069 45.8833 172.209 45.63L172.789 45.97C172.569 46.3233 172.269 46.6033 171.889 46.81C171.509 47.0167 171.076 47.12 170.589 47.12C169.803 47.12 169.163 46.8733 168.669 46.38C168.176 45.8867 167.929 45.26 167.929 44.5C167.929 43.7533 168.173 43.13 168.659 42.63C169.146 42.13 169.773 41.88 170.539 41.88ZM170.539 42.52C170.019 42.52 169.583 42.6767 169.229 42.99C168.883 43.2967 168.676 43.6967 168.609 44.19H172.339C172.273 43.6633 172.069 43.2533 171.729 42.96C171.389 42.6667 170.993 42.52 170.539 42.52ZM179.749 44.43C180.296 44.63 180.569 45.02 180.569 45.6C180.569 46.0067 180.432 46.3433 180.159 46.61C179.892 46.87 179.506 47 178.999 47H176.569V42H178.799C179.286 42 179.662 42.1267 179.929 42.38C180.196 42.6267 180.329 42.9467 180.329 43.34C180.329 43.84 180.136 44.2033 179.749 44.43ZM178.799 42.64H177.229V44.16H178.799C179.379 44.16 179.669 43.9 179.669 43.38C179.669 43.1467 179.592 42.9667 179.439 42.84C179.292 42.7067 179.079 42.64 178.799 42.64ZM178.999 46.36C179.292 46.36 179.516 46.29 179.669 46.15C179.829 46.01 179.909 45.8133 179.909 45.56C179.909 45.3267 179.829 45.1433 179.669 45.01C179.516 44.87 179.292 44.8 178.999 44.8H177.229V46.36H178.999ZM184.974 42V42.64H183.204V47H182.544V42.64H180.774V42H184.974ZM189.773 46.37C189.266 46.87 188.646 47.12 187.913 47.12C187.179 47.12 186.556 46.87 186.043 46.37C185.536 45.8633 185.283 45.24 185.283 44.5C185.283 43.76 185.536 43.14 186.043 42.64C186.556 42.1333 187.179 41.88 187.913 41.88C188.646 41.88 189.266 42.1333 189.773 42.64C190.286 43.14 190.543 43.76 190.543 44.5C190.543 45.24 190.286 45.8633 189.773 46.37ZM186.513 45.91C186.893 46.29 187.359 46.48 187.913 46.48C188.466 46.48 188.933 46.29 189.313 45.91C189.693 45.5233 189.883 45.0533 189.883 44.5C189.883 43.9467 189.693 43.48 189.313 43.1C188.933 42.7133 188.466 42.52 187.913 42.52C187.359 42.52 186.893 42.7133 186.513 43.1C186.133 43.48 185.943 43.9467 185.943 44.5C185.943 45.0533 186.133 45.5233 186.513 45.91ZM194.327 41.88C195.041 41.88 195.647 42.1333 196.147 42.64C196.654 43.1467 196.907 43.7667 196.907 44.5C196.907 45.2333 196.654 45.8533 196.147 46.36C195.647 46.8667 195.041 47.12 194.327 47.12C193.441 47.12 192.767 46.7533 192.307 46.02V49H191.647V42H192.307V42.98C192.767 42.2467 193.441 41.88 194.327 41.88ZM192.877 45.91C193.257 46.29 193.724 46.48 194.277 46.48C194.831 46.48 195.297 46.29 195.677 45.91C196.057 45.5233 196.247 45.0533 196.247 44.5C196.247 43.9467 196.057 43.48 195.677 43.1C195.297 42.7133 194.831 42.52 194.277 42.52C193.724 42.52 193.257 42.7133 192.877 43.1C192.497 43.48 192.307 43.9467 192.307 44.5C192.307 45.0533 192.497 45.5233 192.877 45.91ZM202.195 46.37C201.688 46.87 201.068 47.12 200.335 47.12C199.601 47.12 198.978 46.87 198.465 46.37C197.958 45.8633 197.705 45.24 197.705 44.5C197.705 43.76 197.958 43.14 198.465 42.64C198.978 42.1333 199.601 41.88 200.335 41.88C201.068 41.88 201.688 42.1333 202.195 42.64C202.708 43.14 202.965 43.76 202.965 44.5C202.965 45.24 202.708 45.8633 202.195 46.37ZM198.935 45.91C199.315 46.29 199.781 46.48 200.335 46.48C200.888 46.48 201.355 46.29 201.735 45.91C202.115 45.5233 202.305 45.0533 202.305 44.5C202.305 43.9467 202.115 43.48 201.735 43.1C201.355 42.7133 200.888 42.52 200.335 42.52C199.781 42.52 199.315 42.7133 198.935 43.1C198.555 43.48 198.365 43.9467 198.365 44.5C198.365 45.0533 198.555 45.5233 198.935 45.91ZM204.869 41.2V40.62H207.469V41.2H204.869ZM207.709 42H208.269V47H207.609V43.15L204.629 47H204.069V42H204.729V45.85L207.709 42ZM210.505 46.94C210.398 47.0467 210.268 47.1 210.115 47.1C209.962 47.1 209.832 47.0467 209.725 46.94C209.618 46.8333 209.565 46.7033 209.565 46.55C209.565 46.3967 209.618 46.2667 209.725 46.16C209.832 46.0533 209.962 46 210.115 46C210.268 46 210.398 46.0533 210.505 46.16C210.612 46.2667 210.665 46.3967 210.665 46.55C210.665 46.7033 210.612 46.8333 210.505 46.94Z" fill="#797F97"/>
<path d="M10.464 13.544C9.33333 14.664 7.95733 15.224 6.336 15.224C4.71467 15.224 3.33867 14.664 2.208 13.544C1.088 12.4133 0.528 11.032 0.528 9.4C0.528 7.768 1.088 6.392 2.208 5.272C3.33867 4.14133 4.71467 3.576 6.336 3.576C7.95733 3.576 9.33333 4.14133 10.464 5.272C11.5947 6.392 12.16 7.768 12.16 9.4C12.16 11.032 11.5947 12.4133 10.464 13.544ZM3.76 12.04C4.45333 12.7227 5.312 13.064 6.336 13.064C7.36 13.064 8.21867 12.7227 8.912 12.04C9.60533 11.3467 9.952 10.4667 9.952 9.4C9.952 8.33333 9.60533 7.45333 8.912 6.76C8.21867 6.06667 7.36 5.72 6.336 5.72C5.312 5.72 4.45333 6.06667 3.76 6.76C3.06667 7.45333 2.72 8.33333 2.72 9.4C2.72 10.4667 3.06667 11.3467 3.76 12.04ZM17.4079 15.224C16.1492 15.224 15.1305 14.8187 14.3519 14.008C13.5839 13.1973 13.1999 12.168 13.1999 10.92C13.1999 9.55467 13.4025 8.504 13.8079 7.768C14.2132 7.02133 15.0292 6.344 16.2559 5.736C16.4372 5.65067 16.6932 5.53333 17.0239 5.384C17.3545 5.224 17.5785 5.112 17.6959 5.048C17.8239 4.984 17.9945 4.888 18.2079 4.76C18.4212 4.632 18.5705 4.52 18.6559 4.424C18.7519 4.31733 18.8532 4.184 18.9599 4.024C19.0665 3.864 19.1519 3.688 19.2159 3.496L20.9119 4.472C20.7732 5.12267 20.4585 5.62933 19.9679 5.992C19.4879 6.344 18.7625 6.70667 17.7919 7.08C17.1092 7.34667 16.6132 7.61333 16.3039 7.88C15.9945 8.14667 15.7705 8.46667 15.6319 8.84C16.2292 8.232 17.0292 7.928 18.0319 7.928C18.9172 7.928 19.7065 8.25333 20.3999 8.904C21.0932 9.544 21.4399 10.3973 21.4399 11.464C21.4399 12.5627 21.0665 13.464 20.3199 14.168C19.5839 14.872 18.6132 15.224 17.4079 15.224ZM15.9359 12.792C16.3305 13.1547 16.8159 13.336 17.3919 13.336C17.9679 13.336 18.4425 13.16 18.8159 12.808C19.1892 12.456 19.3759 12.008 19.3759 11.464C19.3759 10.92 19.1892 10.472 18.8159 10.12C18.4425 9.75733 17.9625 9.576 17.3759 9.576C16.8532 9.576 16.3839 9.74133 15.9679 10.072C15.5625 10.4027 15.3599 10.8453 15.3599 11.4C15.3599 11.9653 15.5519 12.4293 15.9359 12.792ZM31.014 7V15H29.014V10.328L26.982 13.528H26.726L24.678 10.296V15H22.694V7H24.726L26.854 10.36L28.982 7H31.014ZM34.6411 11.848C34.9185 12.8507 35.6705 13.352 36.8971 13.352C37.6865 13.352 38.2838 13.0853 38.6891 12.552L40.3531 13.512C39.5638 14.6533 38.4011 15.224 36.8651 15.224C35.5425 15.224 34.4811 14.824 33.6811 14.024C32.8811 13.224 32.4811 12.216 32.4811 11C32.4811 9.79467 32.8758 8.792 33.6651 7.992C34.4545 7.18133 35.4678 6.776 36.7051 6.776C37.8785 6.776 38.8438 7.18133 39.6011 7.992C40.3691 8.80267 40.7531 9.80533 40.7531 11C40.7531 11.2667 40.7265 11.5493 40.6731 11.848H34.6411ZM34.6091 10.248H38.6891C38.5718 9.704 38.3265 9.29867 37.9531 9.032C37.5905 8.76533 37.1745 8.632 36.7051 8.632C36.1505 8.632 35.6918 8.776 35.3291 9.064C34.9665 9.34133 34.7265 9.736 34.6091 10.248ZM47.442 7H49.506V15H47.442V11.96H44.258V15H42.194V7H44.258V10.024H47.442V7ZM61.1571 10.904C61.9038 11.2667 62.2771 11.8747 62.2771 12.728C62.2771 13.4 62.0425 13.9493 61.5731 14.376C61.1145 14.792 60.4585 15 59.6051 15H55.3971V7H59.2851C60.1278 7 60.7785 7.208 61.2371 7.624C61.7065 8.04 61.9411 8.584 61.9411 9.256C61.9411 9.96 61.6798 10.5093 61.1571 10.904ZM59.0931 8.696H57.3331V10.136H59.0931C59.6798 10.136 59.9731 9.896 59.9731 9.416C59.9731 8.936 59.6798 8.696 59.0931 8.696ZM59.3651 13.256C59.9625 13.256 60.2611 13 60.2611 12.488C60.2611 12.264 60.1811 12.088 60.0211 11.96C59.8611 11.832 59.6425 11.768 59.3651 11.768H57.3331V13.256H59.3651ZM69.649 7H71.713V15H69.649V14.056C69.0303 14.8347 68.161 15.224 67.041 15.224C65.9743 15.224 65.057 14.8187 64.289 14.008C63.5317 13.1867 63.153 12.184 63.153 11C63.153 9.816 63.5317 8.81867 64.289 8.008C65.057 7.18667 65.9743 6.776 67.041 6.776C68.161 6.776 69.0303 7.16533 69.649 7.944V7ZM65.841 12.632C66.257 13.048 66.785 13.256 67.425 13.256C68.065 13.256 68.593 13.048 69.009 12.632C69.4357 12.2053 69.649 11.6613 69.649 11C69.649 10.3387 69.4357 9.8 69.009 9.384C68.593 8.95733 68.065 8.744 67.425 8.744C66.785 8.744 66.257 8.95733 65.841 9.384C65.425 9.8 65.217 10.3387 65.217 11C65.217 11.6613 65.425 12.2053 65.841 12.632ZM82.9606 7H85.0246V15H73.5846V7H75.6486V13.064H78.2726V7H80.3366V13.064H82.9606V7ZM88.6568 11.848C88.9341 12.8507 89.6861 13.352 90.9128 13.352C91.7021 13.352 92.2994 13.0853 92.7048 12.552L94.3688 13.512C93.5794 14.6533 92.4168 15.224 90.8808 15.224C89.5581 15.224 88.4968 14.824 87.6968 14.024C86.8968 13.224 86.4967 12.216 86.4967 11C86.4967 9.79467 86.8914 8.792 87.6808 7.992C88.4701 7.18133 89.4834 6.776 90.7208 6.776C91.8941 6.776 92.8594 7.18133 93.6168 7.992C94.3848 8.80267 94.7688 9.80533 94.7688 11C94.7688 11.2667 94.7421 11.5493 94.6888 11.848H88.6568ZM88.6248 10.248H92.7048C92.5874 9.704 92.3421 9.29867 91.9688 9.032C91.6061 8.76533 91.1901 8.632 90.7208 8.632C90.1661 8.632 89.7074 8.776 89.3448 9.064C88.9821 9.34133 88.7421 9.736 88.6248 10.248ZM97.5536 5.976V4.184H102.194V5.976H97.5536ZM101.986 7H103.522V15H101.506V10.456L97.7456 15H96.2096V7H98.2256V11.544L101.986 7ZM113.221 15.224C112.015 15.224 111.007 14.8187 110.197 14.008C109.397 13.1973 108.997 12.1947 108.997 11C108.997 9.80533 109.397 8.80267 110.197 7.992C111.007 7.18133 112.015 6.776 113.221 6.776C113.999 6.776 114.709 6.96267 115.349 7.336C115.989 7.70933 116.474 8.21067 116.805 8.84L115.029 9.88C114.869 9.54933 114.623 9.288 114.293 9.096C113.973 8.904 113.61 8.808 113.205 8.808C112.586 8.808 112.074 9.016 111.669 9.432C111.263 9.83733 111.061 10.36 111.061 11C111.061 11.6293 111.263 12.152 111.669 12.568C112.074 12.9733 112.586 13.176 113.205 13.176C113.621 13.176 113.989 13.0853 114.309 12.904C114.639 12.712 114.885 12.4507 115.045 12.12L116.837 13.144C116.485 13.7733 115.989 14.28 115.349 14.664C114.709 15.0373 113.999 15.224 113.221 15.224ZM122.894 7H125.102L122.19 15C121.38 17.2507 119.972 18.3173 117.966 18.2V16.28C118.51 16.2907 118.937 16.1893 119.246 15.976C119.566 15.7627 119.822 15.4053 120.014 14.904L116.782 7H118.974L121.118 12.376L122.894 7ZM134.405 7V15H132.405V10.328L130.373 13.528H130.117L128.069 10.296V15H126.085V7H128.117L130.245 10.36L132.373 7H134.405ZM144.608 7V15H142.608V10.328L140.576 13.528H140.32L138.272 10.296V15H136.288V7H138.32L140.448 10.36L142.576 7H144.608ZM150.107 9.56C151.014 9.56 151.744 9.81067 152.299 10.312C152.854 10.8027 153.131 11.4587 153.131 12.28C153.131 13.1013 152.854 13.7627 152.299 14.264C151.744 14.7547 151.014 15 150.107 15H146.491V7H148.555V9.56H150.107ZM154.011 7H156.075V15H154.011V7ZM150.123 13.176C150.411 13.176 150.646 13.096 150.827 12.936C151.019 12.7653 151.115 12.5467 151.115 12.28C151.115 12.0133 151.019 11.7947 150.827 11.624C150.646 11.4533 150.411 11.368 150.123 11.368H148.555V13.176H150.123ZM180.817 7H182.881V15H180.817V11.96H177.633V15H175.569V7H177.633V10.024H180.817V7ZM190.852 7H192.916V15H190.852V14.056C190.233 14.8347 189.364 15.224 188.244 15.224C187.177 15.224 186.26 14.8187 185.492 14.008C184.735 13.1867 184.356 12.184 184.356 11C184.356 9.816 184.735 8.81867 185.492 8.008C186.26 7.18667 187.177 6.776 188.244 6.776C189.364 6.776 190.233 7.16533 190.852 7.944V7ZM187.044 12.632C187.46 13.048 187.988 13.256 188.628 13.256C189.268 13.256 189.796 13.048 190.212 12.632C190.639 12.2053 190.852 11.6613 190.852 11C190.852 10.3387 190.639 9.8 190.212 9.384C189.796 8.95733 189.268 8.744 188.628 8.744C187.988 8.744 187.46 8.95733 187.044 9.384C186.628 9.8 186.42 10.3387 186.42 11C186.42 11.6613 186.628 12.2053 187.044 12.632Z" fill="white"/>
<path d="M166.6 11.112H164.616V11.992H168.184V13.4H164.616V15H162.424V13.4H161.224V11.992H162.424V11.112H161.224V9.176H162.424V3.8H166.6C167.656 3.8 168.546 4.16267 169.272 4.888C170.008 5.61333 170.376 6.488 170.376 7.512C170.376 8.536 170.013 9.39467 169.288 10.088C168.562 10.7707 167.666 11.112 166.6 11.112ZM164.616 5.864V9.176H166.6C167.048 9.176 167.421 9.016 167.72 8.696C168.029 8.376 168.184 7.98133 168.184 7.512C168.184 7.04267 168.029 6.65333 167.72 6.344C167.421 6.024 167.048 5.864 166.6 5.864H164.616Z" fill="#0094FF"/>
<path d="M209.876 8.984V9.848C209.876 11.448 209.364 12.744 208.34 13.736C207.316 14.728 205.993 15.224 204.372 15.224C202.644 15.224 201.209 14.664 200.068 13.544C198.937 12.4133 198.372 11.0373 198.372 9.416C198.372 7.784 198.932 6.40267 200.052 5.272C201.182 4.14133 202.58 3.576 204.244 3.576C205.289 3.576 206.244 3.816 207.108 4.296C207.972 4.76533 208.644 5.39467 209.124 6.184L207.236 7.272C206.969 6.81333 206.564 6.44 206.02 6.152C205.486 5.864 204.889 5.72 204.228 5.72C203.161 5.72 202.281 6.072 201.588 6.776C200.905 7.46933 200.564 8.34933 200.564 9.416C200.564 10.472 200.91 11.3467 201.604 12.04C202.308 12.7227 203.236 13.064 204.388 13.064C205.241 13.064 205.945 12.8773 206.5 12.504C207.065 12.12 207.449 11.5973 207.652 10.936H204.26V8.984H209.876Z" fill="#FF922B"/>
</svg>
