<svg width="45" height="19" viewBox="0 0 45 19" fill="none" xmlns="http://www.w3.org/2000/svg">
<path d="M2.56771 0.497004C2.9669 0.497004 3.35934 0.546705 3.745 0.646105C4.13744 0.738874 4.45206 0.864787 4.68887 1.02383V2.82298C4.39792 2.65731 4.11037 2.51484 3.8262 2.39556C3.54202 2.26965 3.2071 2.2067 2.82144 2.2067C2.59816 2.2067 2.40532 2.23983 2.24294 2.3061C2.08055 2.37237 1.99936 2.48171 1.99936 2.63412C1.99936 2.7998 2.09747 2.92569 2.29368 3.01184C2.48989 3.09137 2.73009 3.18413 3.01427 3.29017L3.745 3.55855C4.23893 3.7441 4.58738 3.99591 4.79036 4.314C5.00012 4.63208 5.10498 4.95016 5.10498 5.26824C5.10498 5.69236 4.97982 6.07008 4.72947 6.40141C4.47912 6.72613 4.14082 6.98457 3.71456 7.17674C3.28829 7.36229 2.81129 7.45506 2.28353 7.45506C1.87757 7.45506 1.47498 7.38548 1.07579 7.24632C0.676592 7.10716 0.328139 6.93487 0.0304321 6.72944V4.93028C0.355203 5.16884 0.703655 5.36434 1.07579 5.51675C1.45468 5.66916 1.8336 5.74537 2.21249 5.74537C2.4493 5.74537 2.63875 5.71886 2.78084 5.66585C2.9297 5.60621 3.00412 5.50681 3.00412 5.36764C3.00412 5.26824 2.95 5.18209 2.84173 5.1092C2.73347 5.03631 2.58801 4.97335 2.40532 4.92034L1.44116 4.62214C1.06226 4.50286 0.767934 4.34051 0.558186 4.13507C0.348437 3.92964 0.202967 3.70102 0.121774 3.44921C0.0405812 3.19077 -1.52588e-05 2.92902 -1.52588e-05 2.66394C-1.52588e-05 2.19345 0.121774 1.79915 0.365353 1.48107C0.608931 1.15636 0.926936 0.911179 1.31937 0.745506C1.71181 0.579838 2.12792 0.497004 2.56771 0.497004ZM8.43389 0.745506V2.23652H9.79387V3.57843H8.43389V4.99986C8.43389 5.24506 8.48464 5.44053 8.58613 5.58633C8.69439 5.72549 8.84323 5.79507 9.03269 5.79507C9.33039 5.79507 9.60441 5.72218 9.85476 5.57639V6.90836C9.7465 7.05415 9.57397 7.18337 9.33716 7.29602C9.10711 7.40205 8.82293 7.45506 8.48464 7.45506C8.15986 7.45506 7.86216 7.38217 7.59152 7.23638C7.32087 7.09059 7.10098 6.88184 6.93182 6.61015C6.76944 6.33846 6.68824 6.01044 6.68824 5.62609V3.57843H5.81542V2.53472C6.14696 2.44857 6.47174 2.26303 6.78974 1.97808C7.11451 1.68651 7.35131 1.27564 7.50017 0.745506H8.43389ZM12.8995 2.08742C13.1701 2.08742 13.434 2.14706 13.6911 2.26634C13.955 2.37899 14.1715 2.52478 14.3407 2.7037V2.23652H16.0864V7.30596H14.3407V6.46105C14.2121 6.73938 14.0159 6.97463 13.752 7.1668C13.4881 7.35897 13.1701 7.45506 12.798 7.45506C12.4123 7.45506 12.0503 7.35897 11.7121 7.1668C11.3738 6.97463 11.0963 6.67974 10.8798 6.28213C10.6701 5.8779 10.5652 5.37095 10.5652 4.7613C10.5652 4.19141 10.6701 3.70765 10.8798 3.31005C11.0963 2.91244 11.3805 2.61093 11.7323 2.4055C12.0909 2.19345 12.48 2.08742 12.8995 2.08742ZM13.2649 3.75735C13.0145 3.75735 12.8048 3.85675 12.6356 4.05555C12.4732 4.25435 12.392 4.48961 12.392 4.7613C12.392 5.03299 12.4766 5.26161 12.6458 5.44717C12.8149 5.63272 13.0382 5.72549 13.3156 5.72549C13.4645 5.72549 13.6167 5.68903 13.7723 5.61615C13.9279 5.53663 14.0599 5.42065 14.1681 5.26824C14.2832 5.1092 14.3407 4.90709 14.3407 4.6619V4.17483C14.1918 4.05555 14.0227 3.95615 13.8332 3.87663C13.6505 3.79711 13.4611 3.75735 13.2649 3.75735ZM19.2529 2.23652V2.89256C19.4153 2.67388 19.6115 2.48502 19.8414 2.32598C20.0783 2.16694 20.3692 2.08742 20.7144 2.08742C21.2421 2.08742 21.6717 2.26303 22.0032 2.61424C22.3415 2.96545 22.5107 3.48566 22.5107 4.17483V7.30596H20.7651L20.755 4.44322C20.755 4.19141 20.6839 4.01579 20.5418 3.91639C20.3997 3.81036 20.2407 3.75735 20.0648 3.75735C19.8753 3.75735 19.7164 3.80705 19.5878 3.90645C19.4591 3.99922 19.3476 4.11189 19.2529 4.24442V7.30596H17.5073V2.23652H19.2529ZM29.0467 0.149101V7.30596H27.3011V6.46105C27.1725 6.73938 26.9763 6.97463 26.7124 7.1668C26.4486 7.35897 26.1306 7.45506 25.7584 7.45506C25.3727 7.45506 25.0108 7.35897 24.6724 7.1668C24.3341 6.97463 24.0568 6.67974 23.8403 6.28213C23.6305 5.8779 23.5256 5.37095 23.5256 4.7613C23.5256 4.19141 23.6305 3.70765 23.8403 3.31005C24.0568 2.91244 24.3409 2.61093 24.6928 2.4055C25.0514 2.19345 25.4405 2.08742 25.8599 2.08742C26.1306 2.08742 26.3945 2.14706 26.6515 2.26634C26.9154 2.37899 27.1319 2.52478 27.3011 2.7037V0.149101H29.0467ZM26.2253 3.75735C25.9749 3.75735 25.7652 3.85675 25.596 4.05555C25.4336 4.25435 25.3524 4.48961 25.3524 4.7613C25.3524 5.03299 25.437 5.26161 25.6061 5.44717C25.7753 5.63272 25.9986 5.72549 26.2761 5.72549C26.4248 5.72549 26.5772 5.68903 26.7327 5.61615C26.8883 5.53663 27.0203 5.42065 27.1286 5.26824C27.2436 5.1092 27.3011 4.90709 27.3011 4.6619V4.17483C27.1522 4.05555 26.9831 3.95615 26.7936 3.87663C26.6109 3.79711 26.4214 3.75735 26.2253 3.75735ZM32.954 2.08742C33.3128 2.08742 33.6612 2.15369 33.9995 2.28622C34.3377 2.41875 34.6422 2.6043 34.9129 2.84286C35.1836 3.08143 35.3967 3.36638 35.5522 3.69771C35.7146 4.02243 35.7958 4.38027 35.7958 4.77124C35.7958 5.16221 35.7146 5.52338 35.5522 5.85471C35.3967 6.17942 35.1836 6.46105 34.9129 6.69962C34.6422 6.93818 34.3377 7.12373 33.9995 7.25626C33.6612 7.38879 33.3128 7.45506 32.954 7.45506C32.5955 7.45506 32.247 7.38879 31.9088 7.25626C31.5705 7.12373 31.266 6.93818 30.9953 6.69962C30.7247 6.46105 30.5082 6.17942 30.3458 5.85471C30.1902 5.52338 30.1123 5.16221 30.1123 4.77124C30.1123 4.38027 30.1902 4.02243 30.3458 3.69771C30.5082 3.36638 30.7247 3.08143 30.9953 2.84286C31.266 2.6043 31.5705 2.41875 31.9088 2.28622C32.247 2.15369 32.5955 2.08742 32.954 2.08742ZM32.954 3.72753C32.8323 3.72753 32.6936 3.75404 32.538 3.80705C32.3891 3.86006 32.2607 3.96278 32.1523 4.11519C32.044 4.26099 31.99 4.47967 31.99 4.77124C31.99 5.05619 32.044 5.27488 32.1523 5.42728C32.2607 5.57969 32.3891 5.68242 32.538 5.73543C32.6936 5.78844 32.8323 5.81495 32.954 5.81495C33.0827 5.81495 33.2213 5.78844 33.3702 5.73543C33.5191 5.68242 33.6476 5.57969 33.7559 5.42728C33.8642 5.27488 33.9183 5.05619 33.9183 4.77124C33.9183 4.47967 33.8642 4.26099 33.7559 4.11519C33.6476 3.96278 33.5191 3.86006 33.3702 3.80705C33.2213 3.75404 33.0827 3.72753 32.954 3.72753ZM40.2513 2.23652V3.57843H39.074V7.30596H37.3284V3.57843H36.5571V2.23652H37.3284V1.97808C37.3284 1.59372 37.4164 1.25576 37.5923 0.964188C37.7681 0.665986 38.0085 0.430736 38.3128 0.258442C38.6174 0.0861479 38.9623 0 39.3481 0C39.6052 0 39.8251 0.023193 40.0078 0.0695806C40.1973 0.115968 40.3596 0.175609 40.4949 0.248502V1.64011C40.2851 1.52746 40.0315 1.47113 39.7336 1.47113C39.5781 1.47113 39.4293 1.52083 39.2871 1.62023C39.1452 1.713 39.074 1.85549 39.074 2.04766V2.23652H40.2513ZM44.6458 2.23652V3.57843H43.4685V7.30596H41.7229V3.57843H40.9515V2.23652H41.7229V1.97808C41.7229 1.59372 41.8109 1.25576 41.9869 0.964188C42.1628 0.665986 42.4029 0.430736 42.7074 0.258442C43.0119 0.0861479 43.357 0 43.7426 0C43.9997 0 44.2197 0.023193 44.4022 0.0695806C44.5917 0.115968 44.7541 0.175609 44.8894 0.248502V1.64011C44.6798 1.52746 44.4259 1.47113 44.1283 1.47113C43.9727 1.47113 43.8238 1.52083 43.6817 1.62023C43.5396 1.713 43.4685 1.85549 43.4685 2.04766V2.23652H44.6458Z" fill="white"/>
<g filter="url(#filter0_d_243_316)">
<path d="M9.6233 12.2581L12.2815 6.71757C12.6242 6.00307 13.3577 5.54691 14.1637 5.54691H33.5068C34.4048 5.54691 35.009 6.44831 34.6515 7.25535L32.2076 12.7736C31.878 13.5182 31.1284 14 30.2997 14H10.7527C9.83832 14 9.23445 13.0687 9.6233 12.2581Z" fill="#FF922B"/>
</g>
<path d="M16.3721 7.80018C16.593 7.80018 16.8074 7.83625 17.0154 7.9084C17.2277 7.98053 17.4184 8.08663 17.5873 8.22664C17.7564 8.3667 17.8907 8.53644 17.9904 8.73587C18.0943 8.93532 18.1463 9.16023 18.1463 9.41061C18.1463 9.73734 18.0683 10.0195 17.9124 10.2572C17.7564 10.4906 17.5528 10.6688 17.3016 10.7919C17.0501 10.9149 16.7837 10.9764 16.5021 10.9764C16.3374 10.9764 16.1901 10.9616 16.0602 10.9319C15.9302 10.8979 15.8175 10.8555 15.7222 10.8046V12.0649H14.5068V7.80018H16.3721ZM15.7222 8.9141V9.90072C15.7958 9.92619 15.8738 9.94741 15.9562 9.96438C16.0427 9.98134 16.1338 9.98984 16.229 9.98984C16.4197 9.98984 16.5778 9.93254 16.7034 9.81799C16.8336 9.69915 16.8985 9.56337 16.8985 9.41061C16.8985 9.23662 16.8336 9.11143 16.7034 9.03505C16.5778 8.95443 16.4197 8.9141 16.229 8.9141H15.7222ZM20.5771 7.73653L22.5917 12.0649H21.1748L20.9604 11.492H19.5826L19.3682 12.0649H17.9513L19.9661 7.73653H20.5771ZM20.2716 9.65884L19.9401 10.5373H20.6029L20.2716 9.65884ZM24.561 7.70471C24.8166 7.70471 25.0679 7.73653 25.3149 7.80018C25.5662 7.8596 25.7677 7.94022 25.9193 8.04206V9.19417C25.733 9.08809 25.5489 8.99685 25.3669 8.92047C25.1849 8.83985 24.9703 8.79954 24.7235 8.79954C24.5806 8.79954 24.457 8.82074 24.3531 8.86317C24.2491 8.90562 24.1971 8.97563 24.1971 9.07324C24.1971 9.17932 24.2599 9.25996 24.3855 9.31512C24.5111 9.36604 24.665 9.42546 24.847 9.49335L25.3149 9.66522C25.6313 9.78403 25.8542 9.94529 25.9844 10.149C26.1185 10.3527 26.1857 10.5564 26.1857 10.76C26.1857 11.0316 26.1056 11.2735 25.9453 11.4857C25.7849 11.6936 25.5684 11.8591 25.2954 11.9822C25.0223 12.101 24.717 12.1604 24.3791 12.1604C24.1191 12.1604 23.8612 12.1158 23.6056 12.0267C23.35 11.9376 23.1269 11.8273 22.9361 11.6957V10.5436C23.1441 10.6964 23.3673 10.8216 23.6056 10.9192C23.8483 11.0168 24.0908 11.0656 24.3335 11.0656C24.4851 11.0656 24.6064 11.0486 24.6975 11.0147C24.7927 10.9764 24.8405 10.9128 24.8405 10.8237C24.8405 10.76 24.8058 10.7049 24.7366 10.6582C24.6671 10.6115 24.5739 10.5712 24.457 10.5373L23.8396 10.3463C23.5969 10.2699 23.4085 10.1659 23.2741 10.0344C23.1398 9.90284 23.0466 9.75645 22.9946 9.59519C22.9426 9.42969 22.9168 9.26208 22.9168 9.09232C22.9168 8.79105 22.9946 8.53855 23.1506 8.33486C23.3065 8.12694 23.5104 7.96992 23.7616 7.86383C24.0128 7.75775 24.2794 7.70471 24.561 7.70471ZM28.285 7.70471C28.5406 7.70471 28.792 7.73653 29.0389 7.80018C29.2901 7.8596 29.4916 7.94022 29.6433 8.04206V9.19417C29.4569 9.08809 29.2729 8.99685 29.0909 8.92047C28.9089 8.83985 28.6945 8.79954 28.4474 8.79954C28.3045 8.79954 28.181 8.82074 28.077 8.86317C27.973 8.90562 27.921 8.97563 27.921 9.07324C27.921 9.17932 27.9838 9.25996 28.1095 9.31512C28.2351 9.36604 28.389 9.42546 28.5709 9.49335L29.0389 9.66522C29.3552 9.78403 29.5784 9.94529 29.7083 10.149C29.8427 10.3527 29.9097 10.5564 29.9097 10.76C29.9097 11.0316 29.8296 11.2735 29.6692 11.4857C29.5089 11.6936 29.2924 11.8591 29.0193 11.9822C28.7465 12.101 28.441 12.1604 28.103 12.1604C27.843 12.1604 27.5852 12.1158 27.3296 12.0267C27.074 11.9376 26.8508 11.8273 26.6603 11.6957V10.5436C26.8683 10.6964 27.0912 10.8216 27.3296 10.9192C27.5723 11.0168 27.815 11.0656 28.0575 11.0656C28.2091 11.0656 28.3305 11.0486 28.4214 11.0147C28.5169 10.9764 28.5645 10.9128 28.5645 10.8237C28.5645 10.76 28.5298 10.7049 28.4605 10.6582C28.391 10.6115 28.2979 10.5712 28.181 10.5373L27.5635 10.3463C27.321 10.2699 27.1324 10.1659 26.998 10.0344C26.8639 9.90284 26.7707 9.75645 26.7187 9.59519C26.6667 9.42969 26.6408 9.26208 26.6408 9.09232C26.6408 8.79105 26.7187 8.53855 26.8747 8.33486C27.0307 8.12694 27.2343 7.96992 27.4855 7.86383C27.737 7.75775 28.0034 7.70471 28.285 7.70471Z" fill="white"/>
<defs>
<filter id="filter0_d_243_316" x="5.50334" y="2.54691" width="33.2526" height="16.4531" filterUnits="userSpaceOnUse" color-interpolation-filters="sRGB">
<feFlood flood-opacity="0" result="BackgroundImageFix"/>
<feColorMatrix in="SourceAlpha" type="matrix" values="0 0 0 0 0 0 0 0 0 0 0 0 0 0 0 0 0 0 127 0" result="hardAlpha"/>
<feOffset dy="1"/>
<feGaussianBlur stdDeviation="2"/>
<feComposite in2="hardAlpha" operator="out"/>
<feColorMatrix type="matrix" values="0 0 0 0 1 0 0 0 0 0.571006 0 0 0 0 0.166667 0 0 0 0.3 0"/>
<feBlend mode="normal" in2="BackgroundImageFix" result="effect1_dropShadow_243_316"/>
<feBlend mode="normal" in="SourceGraphic" in2="effect1_dropShadow_243_316" result="shape"/>
</filter>
</defs>
</svg>
