<svg width="122" height="44" viewBox="0 0 122 44" fill="none" xmlns="http://www.w3.org/2000/svg">
<g clip-path="url(#clip0_43_108)">
<path d="M6.85311 3.45512C7.77309 3.45512 8.67749 3.57264 9.5663 3.80768C10.4707 4.02705 11.1958 4.32478 11.7415 4.70085V8.95512C11.071 8.56337 10.4083 8.22649 9.75342 7.94444C9.09851 7.6467 8.32665 7.49786 7.43785 7.49786C6.92328 7.49786 6.47888 7.57619 6.10464 7.7329C5.73041 7.88961 5.54329 8.14815 5.54329 8.50854C5.54329 8.90029 5.7694 9.19799 6.22159 9.4017C6.67378 9.58974 7.22734 9.8091 7.88225 10.0598L9.5663 10.6944C10.7046 11.1332 11.5076 11.7286 11.9754 12.4808C12.4588 13.2329 12.7005 13.985 12.7005 14.7372C12.7005 15.74 12.412 16.6332 11.8351 17.4167C11.2581 18.1845 10.4785 18.7956 9.49613 19.25C8.51377 19.6888 7.41446 19.9081 6.1982 19.9081C5.26262 19.9081 4.33482 19.7436 3.41484 19.4145C2.49485 19.0855 1.69181 18.6781 1.00572 18.1923V13.938C1.75418 14.5021 2.55722 14.9644 3.41484 15.3248C4.28804 15.6852 5.16127 15.8654 6.03447 15.8654C6.58022 15.8654 7.01684 15.8027 7.34429 15.6773C7.68735 15.5363 7.85886 15.3013 7.85886 14.9722C7.85886 14.7372 7.73413 14.5335 7.48463 14.3611C7.23513 14.1888 6.89989 14.0399 6.47888 13.9145L4.25687 13.2094C3.38366 12.9273 2.70536 12.5435 2.22197 12.0577C1.73859 11.5719 1.40334 11.0313 1.21622 10.4359C1.02911 9.82478 0.935547 9.20585 0.935547 8.57905C0.935547 7.46653 1.21622 6.53418 1.77757 5.78204C2.33892 5.01423 3.07179 4.43448 3.97619 4.04273C4.8806 3.65099 5.83957 3.45512 6.85311 3.45512ZM20.3723 4.04273V7.56837H23.5065V10.7414H20.3723V14.1026C20.3723 14.6823 20.4892 15.1446 20.7231 15.4893C20.9726 15.8184 21.3156 15.9829 21.7523 15.9829C22.4383 15.9829 23.0699 15.8105 23.6468 15.4658V18.6154C23.3973 18.9601 22.9997 19.2657 22.454 19.532C21.9238 19.7828 21.2689 19.9081 20.4892 19.9081C19.7408 19.9081 19.0547 19.7358 18.4309 19.391C17.8072 19.0463 17.3005 18.5527 16.9106 17.9102C16.5364 17.2678 16.3493 16.4922 16.3493 15.5833V10.7414H14.3378V8.2735C15.1018 8.06978 15.8503 7.63106 16.5832 6.95726C17.3316 6.26781 17.8774 5.29628 18.2204 4.04273H20.3723ZM30.6637 7.2158C31.2874 7.2158 31.8956 7.35683 32.4881 7.63888C33.0962 7.90525 33.5952 8.24999 33.985 8.67307V7.56837H38.0078V19.5555H33.985V17.5577C33.6887 18.2158 33.2365 18.7721 32.6284 19.2265C32.0203 19.6809 31.2874 19.9081 30.4298 19.9081C29.541 19.9081 28.7068 19.6809 27.9271 19.2265C27.1475 18.7721 26.5081 18.0748 26.0092 17.1346C25.5258 16.1788 25.2841 14.98 25.2841 13.5385C25.2841 12.1909 25.5258 11.047 26.0092 10.1068C26.5081 9.16666 27.163 8.45371 27.9739 7.96794C28.8003 7.46653 29.6969 7.2158 30.6637 7.2158ZM31.5057 11.1645C30.9288 11.1645 30.4454 11.3996 30.0556 11.8696C29.6813 12.3397 29.4942 12.896 29.4942 13.5385C29.4942 14.1809 29.6891 14.7215 30.079 15.1602C30.4688 15.599 30.9834 15.8184 31.6227 15.8184C31.9657 15.8184 32.3166 15.7322 32.6752 15.5598C33.0338 15.3718 33.3379 15.0976 33.5874 14.7372C33.8525 14.3611 33.985 13.8832 33.985 13.3034V12.1517C33.6419 11.8696 33.2521 11.6346 32.8155 11.4466C32.3945 11.2585 31.9579 11.1645 31.5057 11.1645ZM45.3054 7.56837V9.11965C45.6796 8.60256 46.1321 8.15598 46.6623 7.77991C47.208 7.40384 47.8786 7.2158 48.6735 7.2158C49.8897 7.2158 50.88 7.63106 51.6441 8.46153C52.4237 9.292 52.8136 10.5221 52.8136 12.1517V19.5555H48.7906L48.767 12.7863C48.767 12.1909 48.6035 11.7756 48.276 11.5406C47.9486 11.2899 47.5822 11.1645 47.1765 11.1645C46.7402 11.1645 46.3738 11.282 46.0774 11.5171C45.781 11.7364 45.5239 12.0029 45.3054 12.3162V19.5555H41.2824V7.56837H45.3054ZM67.8765 2.63247V19.5555H63.8535V17.5577C63.5571 18.2158 63.105 18.7721 62.4969 19.2265C61.8888 19.6809 61.156 19.9081 60.2983 19.9081C59.4095 19.9081 58.5753 19.6809 57.7958 19.2265C57.0159 18.7721 56.3767 18.0748 55.8775 17.1346C55.3943 16.1788 55.1526 14.98 55.1526 13.5385C55.1526 12.1909 55.3943 11.047 55.8775 10.1068C56.3767 9.16666 57.0316 8.45371 57.8422 7.96794C58.6689 7.46653 59.5655 7.2158 60.5322 7.2158C61.156 7.2158 61.7641 7.35683 62.3566 7.63888C62.9647 7.90525 63.4635 8.24999 63.8535 8.67307V2.63247H67.8765ZM61.3742 11.1645C60.7971 11.1645 60.314 11.3996 59.924 11.8696C59.5498 12.3397 59.3627 12.896 59.3627 13.5385C59.3627 14.1809 59.5577 14.7215 59.9476 15.1602C60.3372 15.599 60.8518 15.8184 61.491 15.8184C61.8341 15.8184 62.1852 15.7322 62.5437 15.5598C62.9022 15.3718 63.2064 15.0976 63.4557 14.7372C63.721 14.3611 63.8535 13.8832 63.8535 13.3034V12.1517C63.5103 11.8696 63.1207 11.6346 62.684 11.4466C62.263 11.2585 61.8263 11.1645 61.3742 11.1645ZM76.8817 7.2158C77.708 7.2158 78.5111 7.37251 79.2906 7.68589C80.0701 7.99927 80.7718 8.43803 81.3957 9.00213C82.0195 9.56623 82.5105 10.24 82.8694 11.0235C83.2436 11.7913 83.4307 12.6375 83.4307 13.562C83.4307 14.4864 83.2436 15.3405 82.8694 16.1239C82.5105 16.8917 82.0195 17.5577 81.3957 18.1218C80.7718 18.6859 80.0701 19.1246 79.2906 19.438C78.5111 19.7514 77.708 19.9081 76.8817 19.9081C76.055 19.9081 75.2519 19.7514 74.4724 19.438C73.6928 19.1246 72.9911 18.6859 72.3673 18.1218C71.7434 17.5577 71.2446 16.8917 70.8704 16.1239C70.5118 15.3405 70.3326 14.4864 70.3326 13.562C70.3326 12.6375 70.5118 11.7913 70.8704 11.0235C71.2446 10.24 71.7434 9.56623 72.3673 9.00213C72.9911 8.43803 73.6928 7.99927 74.4724 7.68589C75.2519 7.37251 76.055 7.2158 76.8817 7.2158ZM76.8817 11.094C76.601 11.094 76.281 11.1567 75.9225 11.282C75.5793 11.4074 75.2833 11.6503 75.0337 12.0107C74.7841 12.3554 74.6595 12.8725 74.6595 13.562C74.6595 14.2358 74.7841 14.7529 75.0337 15.1132C75.2833 15.4736 75.5793 15.7165 75.9225 15.8419C76.281 15.9672 76.601 16.0299 76.8817 16.0299C77.1777 16.0299 77.4973 15.9672 77.8405 15.8419C78.1836 15.7165 78.4796 15.4736 78.7293 15.1132C78.9789 14.7529 79.1035 14.2358 79.1035 13.562C79.1035 12.8725 78.9789 12.3554 78.7293 12.0107C78.4796 11.6503 78.1836 11.4074 77.8405 11.282C77.4973 11.1567 77.1777 11.094 76.8817 11.094ZM93.6986 7.56837V10.7414H90.9854V19.5555H86.9624V10.7414H85.1848V7.56837H86.9624V6.95726C86.9624 6.04841 87.1652 5.24927 87.5705 4.55982C87.9758 3.85469 88.5293 3.29842 89.2314 2.89102C89.9327 2.48361 90.7283 2.27991 91.6167 2.27991C92.2095 2.27991 92.7162 2.33475 93.1372 2.44444C93.574 2.55412 93.9482 2.69515 94.2599 2.86751V6.15811C93.7764 5.89174 93.1919 5.75854 92.5059 5.75854C92.147 5.75854 91.8038 5.87606 91.4768 6.1111C91.1489 6.33046 90.9854 6.66738 90.9854 7.12179V7.56837H93.6986ZM103.826 7.56837V10.7414H101.113V19.5555H97.0903V10.7414H95.3127V7.56837H97.0903V6.95726C97.0903 6.04841 97.2927 5.24927 97.698 4.55982C98.1037 3.85469 98.6572 3.29842 99.3589 2.89102C100.061 2.48361 100.856 2.27991 101.745 2.27991C102.337 2.27991 102.844 2.33475 103.265 2.44444C103.701 2.55412 104.076 2.69515 104.388 2.86751V6.15811C103.904 5.89174 103.319 5.75854 102.633 5.75854C102.275 5.75854 101.932 5.87606 101.604 6.1111C101.277 6.33046 101.113 6.66738 101.113 7.12179V7.56837H103.826Z" fill="white"/>
<path d="M18.5712 22.3761V38.359H14.1974V30.6026L10.993 34.2458H9.6832L6.47883 30.6026V38.359H2.10498V22.3761H3.64869L10.3381 29.1923L17.0275 22.3761H18.5712ZM28.044 26.0193C28.8704 26.0193 29.6735 26.176 30.4531 26.4893C31.2328 26.8027 31.9345 27.2415 32.5582 27.8056C33.1819 28.3697 33.6731 29.0435 34.0317 29.827C34.406 30.5948 34.5931 31.4409 34.5931 32.3654C34.5931 33.2899 34.406 34.1439 34.0317 34.9274C33.6731 35.6952 33.1819 36.3611 32.5582 36.9252C31.9345 37.4893 31.2328 37.928 30.4531 38.2417C29.6735 38.5549 28.8704 38.7118 28.044 38.7118C27.2176 38.7118 26.4145 38.5549 25.6349 38.2417C24.8552 37.928 24.1536 37.4893 23.5298 36.9252C22.9061 36.3611 22.4071 35.6952 22.0329 34.9274C21.6743 34.1439 21.4949 33.2899 21.4949 32.3654C21.4949 31.4409 21.6743 30.5948 22.0329 29.827C22.4071 29.0435 22.9061 28.3697 23.5298 27.8056C24.1536 27.2415 24.8552 26.8027 25.6349 26.4893C26.4145 26.176 27.2176 26.0193 28.044 26.0193ZM28.044 29.8975C27.7633 29.8975 27.4437 29.9602 27.085 30.0855C26.742 30.2108 26.4457 30.4537 26.1962 30.8141C25.9467 31.1589 25.822 31.676 25.822 32.3654C25.822 33.0392 25.9467 33.5563 26.1962 33.9167C26.4457 34.2771 26.742 34.52 27.085 34.6453C27.4437 34.7707 27.7633 34.8334 28.044 34.8334C28.3403 34.8334 28.6599 34.7707 29.003 34.6453C29.346 34.52 29.6423 34.2771 29.8918 33.9167C30.1413 33.5563 30.266 33.0392 30.266 32.3654C30.266 31.676 30.1413 31.1589 29.8918 30.8141C29.6423 30.4537 29.346 30.2108 29.003 30.0855C28.6599 29.9602 28.3403 29.8975 28.044 29.8975ZM41.072 26.3718V27.9231C41.4462 27.406 41.8983 26.9594 42.4286 26.5834C42.9742 26.2073 43.6449 26.0193 44.4401 26.0193C45.6564 26.0193 46.6466 26.4345 47.4108 27.265C48.1903 28.0955 48.5799 29.3255 48.5799 30.9552V38.359H44.5569L44.5337 31.5898C44.5337 30.9943 44.3697 30.5791 44.0427 30.344C43.7148 30.0933 43.3485 29.968 42.9432 29.968C42.5064 29.968 42.1401 30.0855 41.8437 30.3205C41.5477 30.5399 41.2902 30.8063 41.072 31.1197V38.359H37.049V26.3718H41.072ZM57.2576 26.0193C58.3803 26.0193 59.3784 26.27 60.2515 26.7714C61.1245 27.2728 61.803 27.9779 62.2865 28.8868C62.7854 29.7799 63.035 30.8455 63.035 32.0834V33.4701H54.9186C55.09 34.0499 55.4332 34.4808 55.9478 34.7628C56.4623 35.0449 57.0548 35.1859 57.7254 35.1859C58.6299 35.1859 59.4094 35.0606 60.0643 34.8099C60.735 34.5435 61.2338 34.3163 61.5613 34.1282V37.5834C61.156 37.834 60.5946 38.0849 59.8772 38.3357C59.1755 38.5862 58.3803 38.7118 57.4915 38.7118C56.6495 38.7118 55.831 38.5704 55.0354 38.2883C54.2559 38.0063 53.5542 37.599 52.9307 37.0663C52.3069 36.5335 51.8155 35.8911 51.457 35.1389C51.0985 34.3711 50.9188 33.5093 50.9188 32.5534C50.9188 31.3626 51.192 30.2735 51.7376 29.2864C52.299 28.2992 53.0553 27.5079 54.0062 26.9124C54.9733 26.317 56.057 26.0193 57.2576 26.0193ZM57.1408 29.3569C56.6259 29.3569 56.1817 29.4979 55.8074 29.7799C55.4332 30.0463 55.1604 30.4616 54.989 31.0257H59.2223C59.2223 30.4616 59.0041 30.0463 58.5674 29.7799C58.1464 29.4979 57.6707 29.3569 57.1408 29.3569ZM68.3678 26.3718L71.0107 32.7415L73.5599 26.3718H78.0507L69.4905 44H64.9997L68.7653 37.3248L63.7363 26.3718H68.3678Z" fill="#FF922B"/>
<path d="M80.3468 33.187L84.1273 25.1016C84.7444 23.7824 86.064 22.9402 87.5145 22.9402H116.298C118.991 22.9402 120.803 25.714 119.731 28.1973L116.241 36.2828C115.648 37.6576 114.299 38.547 112.808 38.547H83.734C80.9916 38.547 79.1807 35.6811 80.3468 33.187Z" fill="#FF922B"/>
<path d="M90.4477 27.6572C90.9649 27.6572 91.3597 27.7409 91.6318 27.9084C91.9125 28.0671 92.1666 28.2345 92.3948 28.4108V30.394C92.1931 30.2442 91.9603 30.1252 91.6973 30.037C91.4432 29.9489 91.1273 29.9048 90.7501 29.9048C90.5484 29.9048 90.3381 29.9577 90.1188 30.0635C89.8995 30.1693 89.715 30.3235 89.566 30.5262C89.4171 30.7201 89.3422 30.9669 89.3422 31.2666C89.3422 31.7073 89.4826 32.0422 89.7632 32.2714C90.0439 32.5006 90.3729 32.6152 90.7501 32.6152C91.1273 32.6152 91.4432 32.5711 91.6973 32.4829C91.9603 32.386 92.1931 32.267 92.3948 32.126V34.1091C92.1666 34.2854 91.9125 34.4441 91.6318 34.5851C91.3597 34.7261 90.9649 34.7966 90.4477 34.7966C89.9477 34.7966 89.4826 34.7041 89.0529 34.519C88.6229 34.3251 88.2461 34.0651 87.9216 33.7389C87.6058 33.404 87.3558 33.025 87.1717 32.6019C86.9962 32.1788 86.9082 31.7337 86.9082 31.2666C86.9082 30.7994 86.9962 30.3499 87.1717 29.918C87.3558 29.4861 87.6058 29.1027 87.9216 28.7678C88.2461 28.424 88.6229 28.1552 89.0529 27.9613C89.4826 27.7586 89.9477 27.6572 90.4477 27.6572ZM96.8022 27.6572C97.267 27.6572 97.7187 27.7453 98.1573 27.9216C98.5959 28.0979 98.9907 28.3447 99.3414 28.662C99.6924 28.9793 99.9686 29.3583 100.17 29.799C100.381 30.2309 100.486 30.7069 100.486 31.2269C100.486 31.747 100.381 32.2273 100.17 32.668C99.9686 33.0999 99.6924 33.4745 99.3414 33.7918C98.9907 34.1091 98.5959 34.3559 98.1573 34.5322C97.7187 34.7085 97.267 34.7966 96.8022 34.7966C96.3374 34.7966 95.8857 34.7085 95.4471 34.5322C95.0085 34.3559 94.6137 34.1091 94.263 33.7918C93.912 33.4745 93.6313 33.0999 93.421 32.668C93.2193 32.2273 93.1182 31.747 93.1182 31.2269C93.1182 30.7069 93.2193 30.2309 93.421 29.799C93.6313 29.3583 93.912 28.9793 94.263 28.662C94.6137 28.3447 95.0085 28.0979 95.4471 27.9216C95.8857 27.7453 96.3374 27.6572 96.8022 27.6572ZM96.8022 29.8387C96.6443 29.8387 96.4646 29.874 96.2629 29.9445C96.0698 30.015 95.9033 30.1516 95.7629 30.3543C95.6226 30.5483 95.5522 30.8391 95.5522 31.2269C95.5522 31.6059 95.6226 31.8968 95.7629 32.0995C95.9033 32.3022 96.0698 32.4389 96.2629 32.5094C96.4646 32.5799 96.6443 32.6152 96.8022 32.6152C96.9687 32.6152 97.1487 32.5799 97.3415 32.5094C97.5346 32.4389 97.7011 32.3022 97.8414 32.0995C97.9818 31.8968 98.0521 31.6059 98.0521 31.2269C98.0521 30.8391 97.9818 30.5483 97.8414 30.3543C97.7011 30.1516 97.5346 30.015 97.3415 29.9445C97.1487 29.874 96.9687 29.8387 96.8022 29.8387ZM104.13 27.8555V28.7281C104.341 28.4373 104.565 28.1861 104.801 27.9745C105.038 27.763 105.38 27.6572 105.828 27.6572C106.275 27.6572 106.674 27.763 107.025 27.9745C107.376 28.1773 107.652 28.4813 107.854 28.8868C108.064 28.5342 108.341 28.2434 108.683 28.0142C109.034 27.7762 109.424 27.6572 109.854 27.6572C110.538 27.6572 111.095 27.8908 111.525 28.3579C111.963 28.8251 112.182 29.517 112.182 30.4337V34.5983H109.919L109.906 30.7906C109.906 30.4557 109.818 30.2221 109.643 30.0899C109.476 29.9489 109.279 29.8784 109.051 29.8784C108.849 29.8784 108.674 29.9401 108.525 30.0635C108.384 30.1869 108.262 30.3279 108.156 30.4865V34.5983H105.893L105.88 30.7906C105.88 30.4557 105.792 30.2221 105.617 30.0899C105.45 29.9489 105.253 29.8784 105.025 29.8784C104.823 29.8784 104.652 29.9445 104.512 30.0767C104.38 30.2001 104.253 30.3499 104.13 30.5262V34.5983H101.867V27.8555H104.13Z" fill="white"/>
</g>
<defs>
<clipPath id="clip0_43_108">
<rect width="122" height="44" fill="white"/>
</clipPath>
</defs>
</svg>
