<svg width="152" height="29" viewBox="0 0 152 29" fill="none" xmlns="http://www.w3.org/2000/svg">
<g clip-path="url(#clip0_113_838)">
<path d="M82.569 14.6382V18.8467C82.569 19.003 82.4441 19.1381 82.283 19.1381H79.0349C76.4114 19.0949 75.3583 17.8571 75.318 15.1662C75.3582 12.5588 76.2978 11.2577 79.0504 11.2186V11.2246H85.8966V8.34359H79.0504C74.173 8.36893 72.1638 10.4906 72.0668 15L72.0627 15.3538L72.0668 15.3597C72.1711 19.7361 74.1761 21.8852 78.913 21.957V21.9604H83.9256C85.083 21.9604 85.9131 20.9719 85.9131 19.9296V14.6376H82.569V14.6382ZM109.408 21.9534V16.3467H117.739V13.565H109.408V9.36396C109.408 9.20344 109.535 9.07038 109.695 9.07038H117.932V6.19046H108.052C106.896 6.19046 106.064 7.17684 106.064 8.22129V21.9534H109.408ZM61.6306 19.0883C61.4675 19.0883 61.3436 18.9542 61.3436 18.7958V16.3626H69.6714V13.583H61.3436V11.5099C61.3436 11.3515 61.4675 11.2163 61.6306 11.2163H69.8686V8.33535H59.9879C58.8295 8.33535 57.9974 9.32595 57.9974 10.3683V19.9363C57.9974 20.9818 58.8295 21.9703 59.9879 21.9703H69.8686V19.0883H61.6306ZM52.5443 5.86688C50.9801 5.86688 49.9818 6.72019 49.2415 8.43631L44.8866 18.6971L40.5285 8.43631C39.7872 6.72019 38.7889 5.86688 37.2236 5.86688C35.7596 5.86688 34.2471 6.9388 34.2471 9.26744V21.9709H37.585V9.61489L41.9688 19.7891C42.5584 21.2106 43.5051 22.103 44.8835 22.1051H44.8868C46.2641 22.1025 47.2129 21.2106 47.8014 19.7891L52.1842 9.61489V21.9709H55.5222V9.26744C55.5222 6.9388 54.0075 5.86688 52.5445 5.86688H52.5443ZM93.5191 16.3628L95.5748 11.413C95.6398 11.2577 95.7575 11.2165 95.8463 11.2165H95.848C95.9368 11.2165 96.0565 11.2578 96.1195 11.413L98.1782 16.3628H93.5187H93.5191ZM98.5937 9.85736C98.0331 8.61542 96.919 8.01029 95.8484 8.01029H95.8467C94.775 8.01029 93.661 8.61542 93.1045 9.85736L87.6418 21.9705H91.1955L92.3859 19.0917H99.3106L100.502 21.9705H104.056L98.5941 9.85736H98.5937ZM147.854 8.33566V17.4485L142.114 9.4382C141.63 8.81512 141.091 8.33566 139.983 8.33566C138.966 8.33566 137.71 9.15834 137.71 10.7203V21.9791H141.053V12.8683L146.767 20.905C147.264 21.5978 147.778 21.9791 148.922 21.9791C149.94 21.9791 151.196 21.2324 151.196 19.5934V8.33566H147.854ZM127.823 19.2806C124.409 19.2806 123.427 17.9985 123.427 15.144V15.1292C123.427 12.3591 124.364 10.9978 127.823 10.9978C131.286 10.9978 132.22 12.3591 132.22 15.1292V15.144C132.22 17.9985 131.236 19.2806 127.823 19.2806ZM135.474 15.1292C135.473 10.3557 133.611 8.12952 127.823 8.12952C122.039 8.12952 120.175 10.3557 120.172 15.1292V15.1387C120.172 19.8382 122.087 22.1046 127.823 22.1046C133.56 22.1046 135.474 19.8382 135.474 15.1387V15.1292Z" fill="#00985F"/>
<path d="M11.6135 12.0996C10.6905 12.0996 9.94092 11.334 9.94092 10.3909C9.94092 9.44572 10.6905 8.68007 11.6135 8.68007C12.5365 8.68007 13.284 9.44572 13.284 10.3909C13.284 11.334 12.5365 12.0996 11.6135 12.0996ZM14.1771 0.82077C6.78986 0.82077 0.804688 6.94388 0.804688 14.499C0.804688 21.0551 5.3155 26.534 11.3337 27.8679V15.5931L11.3345 15.5923C11.348 14.9998 11.8095 14.5225 12.3835 14.5003V14.4995H12.94H14.0726C14.1511 14.4995 14.2151 14.4361 14.2192 14.3569L14.2201 0.82322L14.1771 0.82077ZM23.3922 21.9608C22.4702 21.9608 21.7207 21.1952 21.7207 20.25C21.7207 19.308 22.4702 18.5423 23.3922 18.5423C24.3142 18.5423 25.0638 19.308 25.0638 20.25C25.0638 21.1952 24.3142 21.9608 23.3922 21.9608ZM19.474 21.9608C18.5521 21.9608 17.8035 21.1952 17.8035 20.25C17.8035 19.308 18.5521 18.5423 19.474 18.5423C20.3971 18.5423 21.1456 19.308 21.1456 20.25C21.1456 21.1952 20.3971 21.9608 19.474 21.9608ZM15.5538 21.9608C14.6318 21.9608 13.8812 21.1952 13.8812 20.25C13.8812 19.308 14.6318 18.5423 15.5538 18.5423C16.4778 18.5423 17.2264 19.308 17.2264 20.25C17.2264 21.1952 16.4778 21.9608 15.5538 21.9608ZM15.8274 0.92386V14.4986V15.0267V15.0362L15.8241 15.0396C15.8191 15.65 15.3326 16.1432 14.7338 16.1432H14.2196H13.0881C13.0055 16.1432 12.9394 16.2108 12.9394 16.2942V28.1201C13.3472 28.1581 13.7581 28.1793 14.1763 28.1793C21.5625 28.1793 27.5487 22.054 27.5487 14.4989C27.5487 7.51718 22.4339 1.7563 15.8272 0.924113" fill="#00985F"/>
</g>
<defs>
<clipPath id="clip0_113_838">
<rect width="152" height="29" fill="white"/>
</clipPath>
</defs>
</svg>
