<svg width="14" height="16" viewBox="0 0 14 16" fill="none" xmlns="http://www.w3.org/2000/svg">
<path d="M6.99988 8.00037C5.96848 8.00037 4.97933 7.57894 4.25002 6.82879C3.52071 6.07865 3.11099 5.06123 3.11099 4.00037C3.11099 2.9395 3.52071 1.92208 4.25002 1.17194C4.97933 0.421794 5.96848 0.000366211 6.99988 0.000366211C8.03128 0.000366211 9.02043 0.421794 9.74974 1.17194C10.479 1.92208 10.8888 2.9395 10.8888 4.00037C10.8888 5.06123 10.479 6.07865 9.74974 6.82879C9.02043 7.57894 8.03128 8.00037 6.99988 8.00037ZM6.99988 6.40037C7.3063 6.40037 7.60971 6.33829 7.89281 6.21768C8.1759 6.09707 8.43312 5.92028 8.64979 5.69742C8.86646 5.47456 9.03834 5.20999 9.1556 4.91881C9.27286 4.62762 9.33321 4.31554 9.33321 4.00037C9.33321 3.68519 9.27286 3.37311 9.1556 3.08193C9.03834 2.79074 8.86646 2.52617 8.64979 2.30331C8.43312 2.08045 8.1759 1.90367 7.89281 1.78306C7.60971 1.66244 7.3063 1.60037 6.99988 1.60037C6.38104 1.60037 5.78755 1.85322 5.34996 2.30331C4.91238 2.7534 4.66654 3.36385 4.66654 4.00037C4.66654 4.63689 4.91238 5.24734 5.34996 5.69742C5.78755 6.14751 6.38104 6.40037 6.99988 6.40037ZM13.9999 15.2004C13.9999 15.4125 13.9179 15.616 13.7721 15.7661C13.6262 15.9161 13.4284 16.0004 13.2221 16.0004C13.0158 16.0004 12.818 15.9161 12.6721 15.7661C12.5263 15.616 12.4443 15.4125 12.4443 15.2004V13.6004C12.4443 12.9638 12.1985 12.3534 11.7609 11.9033C11.3233 11.4532 10.7298 11.2004 10.111 11.2004H3.88877C3.26993 11.2004 2.67644 11.4532 2.23885 11.9033C1.80127 12.3534 1.55543 12.9638 1.55543 13.6004V15.2004C1.55543 15.4125 1.47349 15.616 1.32763 15.7661C1.18177 15.9161 0.983935 16.0004 0.777656 16.0004C0.571376 16.0004 0.373545 15.9161 0.227684 15.7661C0.0818221 15.616 -0.00012207 15.4125 -0.00012207 15.2004V13.6004C-0.00012207 12.5395 0.409599 11.5221 1.13891 10.7719C1.86822 10.0218 2.85737 9.60037 3.88877 9.60037H10.111C11.1424 9.60037 12.1315 10.0218 12.8608 10.7719C13.5902 11.5221 13.9999 12.5395 13.9999 13.6004V15.2004Z" fill="#FF922B"/>
</svg>
