<svg width="18" height="18" viewBox="0 0 18 18" fill="none" xmlns="http://www.w3.org/2000/svg">
<path d="M8.99988 9.00037C7.96848 9.00037 6.97933 8.57894 6.25002 7.82879C5.52071 7.07865 5.11099 6.06123 5.11099 5.00037C5.11099 3.9395 5.52071 2.92208 6.25002 2.17194C6.97933 1.42179 7.96848 1.00037 8.99988 1.00037C10.0313 1.00037 11.0204 1.42179 11.7497 2.17194C12.479 2.92208 12.8888 3.9395 12.8888 5.00037C12.8888 6.06123 12.479 7.07865 11.7497 7.82879C11.0204 8.57894 10.0313 9.00037 8.99988 9.00037V9.00037ZM8.99988 7.40037C9.3063 7.40037 9.60971 7.33829 9.89281 7.21768C10.1759 7.09707 10.4331 6.92028 10.6498 6.69742C10.8665 6.47456 11.0383 6.20999 11.1556 5.91881C11.2729 5.62763 11.3332 5.31554 11.3332 5.00037C11.3332 4.68519 11.2729 4.37311 11.1556 4.08193C11.0383 3.79074 10.8665 3.52617 10.6498 3.30331C10.4331 3.08045 10.1759 2.90367 9.89281 2.78306C9.60971 2.66244 9.3063 2.60037 8.99988 2.60037C8.38104 2.60037 7.78755 2.85322 7.34996 3.30331C6.91238 3.7534 6.66654 4.36385 6.66654 5.00037C6.66654 5.63689 6.91238 6.24734 7.34996 6.69742C7.78755 7.14751 8.38104 7.40037 8.99988 7.40037V7.40037ZM15.9999 16.2004C15.9999 16.4125 15.9179 16.616 15.7721 16.7661C15.6262 16.9161 15.4284 17.0004 15.2221 17.0004C15.0158 17.0004 14.818 16.9161 14.6721 16.7661C14.5263 16.616 14.4443 16.4125 14.4443 16.2004V14.6004C14.4443 13.9638 14.1985 13.3534 13.7609 12.9033C13.3233 12.4532 12.7298 12.2004 12.111 12.2004H5.88877C5.26993 12.2004 4.67644 12.4532 4.23885 12.9033C3.80127 13.3534 3.55543 13.9638 3.55543 14.6004V16.2004C3.55543 16.4125 3.47349 16.616 3.32763 16.7661C3.18177 16.9161 2.98394 17.0004 2.77766 17.0004C2.57138 17.0004 2.37355 16.9161 2.22768 16.7661C2.08182 16.616 1.99988 16.4125 1.99988 16.2004V14.6004C1.99988 13.5395 2.4096 12.5221 3.13891 11.7719C3.86822 11.0218 4.85737 10.6004 5.88877 10.6004H12.111C13.1424 10.6004 14.1315 11.0218 14.8608 11.7719C15.5902 12.5221 15.9999 13.5395 15.9999 14.6004V16.2004Z" fill="#FF922B"/>
</svg>
