<svg width="56" height="21" viewBox="0 0 56 21" fill="none" xmlns="http://www.w3.org/2000/svg">
<path d="M3.71971 1.60764C4.20902 1.60764 4.69006 1.66912 5.1628 1.79209C5.64384 1.90685 6.02949 2.06261 6.31977 2.25936V4.48507C5.96313 4.28012 5.61066 4.10387 5.26232 3.95631C4.91399 3.80055 4.50346 3.72268 4.03072 3.72268C3.75703 3.72268 3.52066 3.76366 3.32161 3.84564C3.12256 3.92763 3.02304 4.06289 3.02304 4.25144C3.02304 4.45639 3.1433 4.61213 3.38381 4.71871C3.62432 4.81709 3.91875 4.93185 4.26709 5.06302L5.1628 5.39503C5.76824 5.62458 6.19536 5.93609 6.44417 6.32959C6.70128 6.72308 6.82982 7.11658 6.82982 7.51007C6.82982 8.03474 6.6764 8.50202 6.36953 8.9119C6.06265 9.3136 5.64798 9.63332 5.12548 9.87105C4.60298 10.1006 4.01828 10.2154 3.37137 10.2154C2.87375 10.2154 2.38027 10.1293 1.89096 9.95713C1.40163 9.78497 0.974507 9.57184 0.609587 9.3177V7.09198C1.00768 7.38711 1.4348 7.62895 1.89096 7.81749C2.35539 8.00604 2.81985 8.10032 3.28429 8.10032C3.57456 8.10032 3.80679 8.06752 3.98096 8.00194C4.16342 7.92816 4.25465 7.8052 4.25465 7.63304C4.25465 7.51007 4.1883 7.4035 4.0556 7.31333C3.92289 7.22316 3.74459 7.14526 3.52066 7.07969L2.33881 6.71079C1.87437 6.56322 1.5136 6.36238 1.25649 6.10824C0.999388 5.85411 0.821075 5.57128 0.721551 5.25977C0.622028 4.94005 0.572266 4.61625 0.572266 4.28833C0.572266 3.70629 0.721551 3.21851 1.02012 2.82501C1.31869 2.42331 1.7085 2.12001 2.18953 1.91505C2.67057 1.71011 3.18063 1.60764 3.71971 1.60764ZM10.9103 1.91505V3.75957H12.5773V5.41963H10.9103V7.17806C10.9103 7.48139 10.9725 7.72321 11.0969 7.90357C11.2296 8.07572 11.4121 8.1618 11.6443 8.1618C12.0092 8.1618 12.3451 8.07163 12.652 7.89127V9.53904C12.5193 9.7194 12.3078 9.87925 12.0175 10.0186C11.7355 10.1498 11.3872 10.2154 10.9725 10.2154C10.5744 10.2154 10.2095 10.1252 9.87774 9.94483C9.54599 9.76447 9.27646 9.50624 9.06911 9.17013C8.87006 8.83403 8.77054 8.42824 8.77054 7.95276V5.41963H7.70066V4.12847C8.10705 4.02189 8.50515 3.79236 8.89494 3.43985C9.29304 3.07915 9.58331 2.57087 9.76578 1.91505H10.9103ZM16.3841 3.57511C16.7159 3.57511 17.0393 3.6489 17.3545 3.79646C17.6779 3.93581 17.9433 4.11617 18.1507 4.33751V3.75957H20.2905V10.0309H18.1507V8.98568C17.9931 9.32999 17.7526 9.62102 17.4291 9.85875C17.1057 10.0965 16.7159 10.2154 16.2597 10.2154C15.787 10.2154 15.3432 10.0965 14.9286 9.85875C14.5139 9.62102 14.1738 9.25621 13.9085 8.76434C13.6513 8.26427 13.5228 7.63713 13.5228 6.88294C13.5228 6.17793 13.6513 5.57948 13.9085 5.08761C14.1738 4.59574 14.5222 4.22275 14.9535 3.96861C15.393 3.70629 15.8699 3.57511 16.3841 3.57511ZM16.832 5.64097C16.5251 5.64097 16.268 5.76394 16.0607 6.00987C15.8616 6.25581 15.7621 6.54684 15.7621 6.88294C15.7621 7.21904 15.8657 7.50187 16.0731 7.73142C16.2804 7.96096 16.5541 8.07572 16.8942 8.07572C17.0766 8.07572 17.2632 8.03063 17.454 7.94046C17.6447 7.84209 17.8065 7.69862 17.9392 7.51007C18.0802 7.31333 18.1507 7.0633 18.1507 6.75997V6.15743C17.9682 6.00987 17.7609 5.8869 17.5286 5.78853C17.3047 5.69016 17.0725 5.64097 16.832 5.64097ZM24.1719 3.75957V4.57115C24.371 4.30062 24.6114 4.06698 24.8933 3.87024C25.1837 3.67349 25.5402 3.57511 25.9634 3.57511C26.6103 3.57511 27.1368 3.79236 27.5432 4.22684C27.9578 4.66132 28.1652 5.30486 28.1652 6.15743V10.0309H26.0255L26.0131 6.48944C26.0131 6.17793 25.926 5.96068 25.7518 5.83772C25.5776 5.70654 25.3828 5.64097 25.1672 5.64097C24.9349 5.64097 24.74 5.70245 24.5824 5.82542C24.4247 5.94018 24.288 6.07956 24.1719 6.24351V10.0309H22.0322V3.75957H24.1719ZM36.1769 1.17725V10.0309H34.0371V8.98568C33.8795 9.32999 33.639 9.62102 33.3156 9.85875C32.9921 10.0965 32.6024 10.2154 32.1462 10.2154C31.6735 10.2154 31.2298 10.0965 30.815 9.85875C30.4003 9.62102 30.0604 9.25621 29.795 8.76434C29.5379 8.26427 29.4093 7.63713 29.4093 6.88294C29.4093 6.17793 29.5379 5.57948 29.795 5.08761C30.0604 4.59574 30.4087 4.22275 30.84 3.96861C31.2795 3.70629 31.7565 3.57511 32.2706 3.57511C32.6024 3.57511 32.9259 3.6489 33.241 3.79646C33.5644 3.93581 33.8297 4.11617 34.0371 4.33751V1.17725H36.1769ZM32.7185 5.64097C32.4115 5.64097 32.1546 5.76394 31.9471 6.00987C31.7481 6.25581 31.6486 6.54684 31.6486 6.88294C31.6486 7.21904 31.7523 7.50187 31.9595 7.73142C32.1669 7.96096 32.4406 8.07572 32.7808 8.07572C32.9631 8.07572 33.1498 8.03063 33.3405 7.94046C33.5312 7.84209 33.693 7.69862 33.8258 7.51007C33.9667 7.31333 34.0371 7.0633 34.0371 6.75997V6.15743C33.8546 6.00987 33.6474 5.8869 33.4151 5.78853C33.1912 5.69016 32.9589 5.64097 32.7185 5.64097ZM40.9664 3.57511C41.4061 3.57511 41.8332 3.6571 42.2479 3.82105C42.6625 3.985 43.0357 4.21455 43.3675 4.50967C43.6993 4.80479 43.9605 5.1573 44.1511 5.56719C44.3502 5.96889 44.4497 6.41157 44.4497 6.89524C44.4497 7.3789 44.3502 7.8257 44.1511 8.23558C43.9605 8.63728 43.6993 8.98568 43.3675 9.28081C43.0357 9.57593 42.6625 9.80547 42.2479 9.96942C41.8332 10.1334 41.4061 10.2154 40.9664 10.2154C40.5269 10.2154 40.0997 10.1334 39.6851 9.96942C39.2705 9.80547 38.8973 9.57593 38.5655 9.28081C38.2337 8.98568 37.9683 8.63728 37.7693 8.23558C37.5786 7.8257 37.4831 7.3789 37.4831 6.89524C37.4831 6.41157 37.5786 5.96889 37.7693 5.56719C37.9683 5.1573 38.2337 4.80479 38.5655 4.50967C38.8973 4.21455 39.2705 3.985 39.6851 3.82105C40.0997 3.6571 40.5269 3.57511 40.9664 3.57511ZM40.9664 5.60408C40.8171 5.60408 40.6471 5.63688 40.4564 5.70245C40.2739 5.76803 40.1165 5.89511 39.9837 6.08365C39.8509 6.26401 39.7846 6.53454 39.7846 6.89524C39.7846 7.24775 39.8509 7.51828 39.9837 7.70682C40.1165 7.89537 40.2739 8.02245 40.4564 8.08802C40.6471 8.1536 40.8171 8.1864 40.9664 8.1864C41.124 8.1864 41.294 8.1536 41.4765 8.08802C41.6591 8.02245 41.8165 7.89537 41.9493 7.70682C42.0821 7.51828 42.1483 7.24775 42.1483 6.89524C42.1483 6.53454 42.0821 6.26401 41.9493 6.08365C41.8165 5.89511 41.6591 5.76803 41.4765 5.70245C41.294 5.63688 41.124 5.60408 40.9664 5.60408ZM49.9112 3.75957V5.41963H48.4681V10.0309H46.3283V5.41963H45.3829V3.75957H46.3283V3.43985C46.3283 2.96437 46.4362 2.54628 46.6518 2.18558C46.8674 1.81668 47.1619 1.52566 47.535 1.31251C47.9084 1.09937 48.3312 0.992798 48.8041 0.992798C49.1192 0.992798 49.3887 1.02149 49.6126 1.07888C49.8449 1.13626 50.044 1.21004 50.2098 1.30022V3.02176C49.9526 2.8824 49.6417 2.81272 49.2766 2.81272C49.0859 2.81272 48.9036 2.8742 48.7292 2.99717C48.5553 3.11193 48.4681 3.2882 48.4681 3.52593V3.75957H49.9112ZM55.2978 3.75957V5.41963H53.8547V10.0309H51.715V5.41963H50.7695V3.75957H51.715V3.43985C51.715 2.96437 51.8228 2.54628 52.0386 2.18558C52.2542 1.81668 52.5486 1.52566 52.9218 1.31251C53.295 1.09937 53.718 0.992798 54.1907 0.992798C54.5058 0.992798 54.7755 1.02149 54.9992 1.07888C55.2315 1.13626 55.4306 1.21004 55.5964 1.30022V3.02176C55.3394 2.8824 55.0283 2.81272 54.6634 2.81272C54.4728 2.81272 54.2902 2.8742 54.1161 2.99717C53.9419 3.11193 53.8547 3.2882 53.8547 3.52593V3.75957H55.2978Z" fill="white"/>
<g filter="url(#filter0_d_0_1)">
<path d="M15.7281 14.1525L18.2722 8.80069C18.6002 8.11054 19.3022 7.66992 20.0737 7.66992H38.5867C39.4462 7.66992 40.0244 8.54061 39.6822 9.32015L37.3432 14.6504C37.0277 15.3696 36.3104 15.835 35.5172 15.835H16.809C15.9339 15.835 15.3559 14.9354 15.7281 14.1525Z" fill="#4A4A4A"/>
</g>
<path d="M22.1876 9.84643C22.399 9.84643 22.6042 9.88127 22.8033 9.95096C23.0065 10.0206 23.189 10.1231 23.3506 10.2584C23.5125 10.3936 23.641 10.5576 23.7364 10.7502C23.8359 10.9429 23.8857 11.1601 23.8857 11.402C23.8857 11.7176 23.811 11.9902 23.6617 12.2197C23.5125 12.4451 23.3176 12.6173 23.0771 12.7362C22.8365 12.855 22.5815 12.9145 22.312 12.9145C22.1544 12.9145 22.0134 12.9001 21.889 12.8714C21.7646 12.8386 21.6567 12.7976 21.5656 12.7485V13.9658H20.4023V9.84643H22.1876ZM21.5656 10.9224V11.8754C21.636 11.9 21.7107 11.9205 21.7895 11.9369C21.8723 11.9533 21.9595 11.9615 22.0507 11.9615C22.2332 11.9615 22.3845 11.9061 22.5047 11.7955C22.6293 11.6807 22.6914 11.5495 22.6914 11.402C22.6914 11.2339 22.6293 11.113 22.5047 11.0392C22.3845 10.9613 22.2332 10.9224 22.0507 10.9224H21.5656ZM26.2121 9.78494L28.1403 13.9658H26.7842L26.579 13.4125H25.2603L25.0551 13.9658H23.699L25.6273 9.78494H26.2121ZM25.9197 11.6418L25.6025 12.4902H26.2368L25.9197 11.6418ZM30.0251 9.75421C30.2697 9.75421 30.5102 9.78494 30.7466 9.84643C30.9871 9.90382 31.18 9.98169 31.3251 10.0801V11.1929C31.1467 11.0904 30.9706 11.0023 30.7964 10.9285C30.6222 10.8507 30.4168 10.8117 30.1806 10.8117C30.0438 10.8117 29.9256 10.8322 29.8261 10.8732C29.7265 10.9142 29.6768 10.9818 29.6768 11.0761C29.6768 11.1786 29.7369 11.2565 29.8571 11.3097C29.9773 11.3589 30.1246 11.4163 30.2988 11.4819L30.7466 11.6479C31.0494 11.7627 31.2628 11.9184 31.3874 12.1152C31.5158 12.3119 31.5801 12.5087 31.5801 12.7054C31.5801 12.9678 31.5034 13.2014 31.35 13.4063C31.1965 13.6072 30.9893 13.767 30.7279 13.8859C30.4666 14.0007 30.1744 14.0581 29.8509 14.0581C29.6021 14.0581 29.3553 14.015 29.1107 13.9289C28.866 13.8429 28.6525 13.7363 28.4699 13.6092V12.4964C28.669 12.6439 28.8826 12.7648 29.1107 12.8591C29.343 12.9534 29.5751 13.0006 29.8073 13.0006C29.9524 13.0006 30.0685 12.9841 30.1557 12.9514C30.2468 12.9145 30.2926 12.853 30.2926 12.7669C30.2926 12.7054 30.2594 12.6521 30.1931 12.6071C30.1266 12.562 30.0374 12.523 29.9256 12.4902L29.3346 12.3058C29.1023 12.232 28.922 12.1316 28.7934 12.0045C28.6648 11.8774 28.5756 11.736 28.5259 11.5803C28.4761 11.4204 28.4514 11.2585 28.4514 11.0945C28.4514 10.8035 28.5259 10.5596 28.6752 10.3629C28.8244 10.1621 29.0195 10.0104 29.26 9.90791C29.5004 9.80544 29.7556 9.75421 30.0251 9.75421ZM33.5892 9.75421C33.8339 9.75421 34.0745 9.78494 34.3108 9.84643C34.5512 9.90382 34.7441 9.98169 34.8892 10.0801V11.1929C34.7109 11.0904 34.5347 11.0023 34.3606 10.9285C34.1864 10.8507 33.9812 10.8117 33.7447 10.8117C33.608 10.8117 33.4897 10.8322 33.3902 10.8732C33.2907 10.9142 33.2409 10.9818 33.2409 11.0761C33.2409 11.1786 33.301 11.2565 33.4213 11.3097C33.5415 11.3589 33.6888 11.4163 33.8629 11.4819L34.3108 11.6479C34.6135 11.7627 34.8271 11.9184 34.9515 12.1152C35.0801 12.3119 35.1442 12.5087 35.1442 12.7054C35.1442 12.9678 35.0676 13.2014 34.9141 13.4063C34.7606 13.6072 34.5534 13.767 34.2921 13.8859C34.0309 14.0007 33.7385 14.0581 33.4151 14.0581C33.1663 14.0581 32.9195 14.015 32.6748 13.9289C32.4302 13.8429 32.2166 13.7363 32.0343 13.6092V12.4964C32.2333 12.6439 32.4467 12.7648 32.6748 12.8591C32.9071 12.9534 33.1394 13.0006 33.3715 13.0006C33.5166 13.0006 33.6328 12.9841 33.7198 12.9514C33.8112 12.9145 33.8568 12.853 33.8568 12.7669C33.8568 12.7054 33.8235 12.6521 33.7572 12.6071C33.6908 12.562 33.6016 12.523 33.4897 12.4902L32.8988 12.3058C32.6667 12.232 32.4861 12.1316 32.3575 12.0045C32.2292 11.8774 32.14 11.736 32.0902 11.5803C32.0405 11.4204 32.0156 11.2585 32.0156 11.0945C32.0156 10.8035 32.0902 10.5596 32.2395 10.3629C32.3888 10.1621 32.5837 10.0104 32.8241 9.90791C33.0648 9.80544 33.3197 9.75421 33.5892 9.75421Z" fill="white"/>
<defs>
<filter id="filter0_d_0_1" x="11.6133" y="4.66992" width="32.1689" height="16.165" filterUnits="userSpaceOnUse" color-interpolation-filters="sRGB">
<feFlood flood-opacity="0" result="BackgroundImageFix"/>
<feColorMatrix in="SourceAlpha" type="matrix" values="0 0 0 0 0 0 0 0 0 0 0 0 0 0 0 0 0 0 127 0" result="hardAlpha"/>
<feOffset dy="1"/>
<feGaussianBlur stdDeviation="2"/>
<feComposite in2="hardAlpha" operator="out"/>
<feColorMatrix type="matrix" values="0 0 0 0 1 0 0 0 0 0.571006 0 0 0 0 0.166667 0 0 0 0.5 0"/>
<feBlend mode="normal" in2="BackgroundImageFix" result="effect1_dropShadow_0_1"/>
<feBlend mode="normal" in="SourceGraphic" in2="effect1_dropShadow_0_1" result="shape"/>
</filter>
</defs>
</svg>
