<svg width="93" height="38" viewBox="0 0 93 38" fill="none" xmlns="http://www.w3.org/2000/svg">
<path d="M17.0016 4.89914C15.9118 6.18268 14.1681 7.19505 12.4243 7.05043C12.2063 5.31494 13.06 3.47098 14.0591 2.33206C15.1489 1.01237 17.0561 0.0723121 18.6001 0C18.7817 1.8078 18.0733 3.57945 17.0016 4.89914ZM18.5819 7.39391C16.0571 7.24929 13.8956 8.82207 12.6968 8.82207C11.4798 8.82207 9.6452 7.46622 7.64716 7.50238C5.0497 7.53854 2.63388 9.00286 1.3079 11.3349C-1.41671 15.999 0.599502 22.9049 3.23329 26.7012C4.52294 28.5814 6.06688 30.6422 8.10126 30.5699C10.0267 30.4976 10.7895 29.3225 13.1145 29.3225C15.4577 29.3225 16.1298 30.5699 18.1642 30.5338C20.2712 30.4976 21.5972 28.6537 22.8868 26.7736C24.3581 24.6403 24.9575 22.5614 24.9938 22.4529C24.9575 22.4167 20.9251 20.8801 20.8888 16.2521C20.8524 12.3834 24.0675 10.5395 24.2128 10.431C22.3964 7.75547 19.5628 7.46622 18.5819 7.39391ZM33.1677 2.15128V30.3349H37.5634V20.6993H43.6483C49.2065 20.6993 53.1118 16.903 53.1118 11.4072C53.1118 5.91151 49.2792 2.15128 43.7936 2.15128H33.1677ZM37.5634 5.8392H42.6311C46.4456 5.8392 48.6253 7.86394 48.6253 11.4253C48.6253 14.9867 46.4456 17.0295 42.613 17.0295H37.5634V5.8392ZM61.1403 30.5519C63.9013 30.5519 66.4624 29.1598 67.6249 26.9543H67.7157V30.3349H71.7845V16.3064C71.7845 12.2388 68.5149 9.61751 63.4835 9.61751C58.8153 9.61751 55.3642 12.275 55.237 15.9267H59.1968C59.5237 14.1912 61.1403 13.0523 63.3563 13.0523C66.0446 13.0523 67.5522 14.2997 67.5522 16.5956V18.1503L62.0667 18.4757C56.9626 18.7831 54.2016 20.862 54.2016 24.4776C54.2016 28.1294 57.0534 30.5519 61.1403 30.5519ZM62.321 27.2074C59.9778 27.2074 58.4884 26.0866 58.4884 24.3692C58.4884 22.5975 59.9233 21.5671 62.6661 21.4044L67.5522 21.0971V22.6879C67.5522 25.3273 65.2999 27.2074 62.321 27.2074ZM77.2155 38C81.5022 38 83.5184 36.373 85.2804 31.4377L93.0001 9.88868H88.5317L83.355 26.5385H83.2642L78.0874 9.88868H73.4919L80.9391 30.4072L80.5395 31.6546C79.8675 33.7697 78.7776 34.5833 76.8341 34.5833C76.489 34.5833 75.8169 34.5471 75.5444 34.5109V37.8915C75.7987 37.9638 76.8886 38 77.2155 38Z" fill="white"/>
</svg>
