<svg width="15" height="13" viewBox="0 0 15 13" fill="none" xmlns="http://www.w3.org/2000/svg">
<path d="M7.5 6.5C7.12916 6.5 6.76665 6.60997 6.45831 6.81599C6.14996 7.02202 5.90964 7.31486 5.76773 7.65747C5.62581 8.00008 5.58868 8.37708 5.66103 8.74079C5.73337 9.10451 5.91195 9.4386 6.17417 9.70083C6.4364 9.96305 6.77049 10.1416 7.13421 10.214C7.49792 10.2863 7.87492 10.2492 8.21753 10.1073C8.56014 9.96536 8.85298 9.72504 9.05901 9.41669C9.26503 9.10835 9.375 8.74584 9.375 8.375C9.375 7.87772 9.17746 7.4008 8.82583 7.04917C8.4742 6.69754 7.99728 6.5 7.5 6.5ZM7.5 9C7.37639 9 7.25555 8.96334 7.15277 8.89467C7.04999 8.82599 6.96988 8.72838 6.92257 8.61418C6.87527 8.49997 6.86289 8.37431 6.88701 8.25307C6.91112 8.13183 6.97065 8.02047 7.05806 7.93306C7.14547 7.84565 7.25683 7.78612 7.37807 7.76201C7.49931 7.73789 7.62497 7.75027 7.73918 7.79757C7.85338 7.84488 7.95099 7.92499 8.01967 8.02777C8.08834 8.13055 8.125 8.25139 8.125 8.375C8.125 8.54076 8.05915 8.69973 7.94194 8.81694C7.82473 8.93415 7.66576 9 7.5 9ZM7.05625 0.431396C7.11569 0.374495 7.18578 0.329892 7.2625 0.300146C7.33731 0.26708 7.41821 0.25 7.5 0.25C7.58179 0.25 7.66269 0.26708 7.7375 0.300146C7.81422 0.329892 7.88431 0.374495 7.94375 0.431396L9.375 1.83765C9.49601 1.95865 9.56398 2.12277 9.56398 2.2939C9.56398 2.46502 9.49601 2.62914 9.375 2.75015C9.25399 2.87115 9.08988 2.93913 8.91875 2.93913C8.74762 2.93913 8.58351 2.87115 8.4625 2.75015L8.125 2.3814V4.62515C8.125 4.79091 8.05915 4.94988 7.94194 5.06709C7.82473 5.1843 7.66576 5.25015 7.5 5.25015C7.33424 5.25015 7.17527 5.1843 7.05806 5.06709C6.94085 4.94988 6.875 4.79091 6.875 4.62515V2.3814L6.5375 2.75015C6.41649 2.87115 6.25238 2.93913 6.08125 2.93913C5.91012 2.93913 5.74601 2.87115 5.625 2.75015C5.50399 2.62914 5.43602 2.46502 5.43602 2.2939C5.43602 2.12277 5.50399 1.95865 5.625 1.83765L7.05625 0.431396ZM11.875 8.375C11.875 8.25139 11.8383 8.13055 11.7697 8.02777C11.701 7.92499 11.6034 7.84488 11.4892 7.79757C11.375 7.75027 11.2493 7.73789 11.1281 7.76201C11.0068 7.78612 10.8955 7.84565 10.8081 7.93306C10.7206 8.02047 10.6611 8.13183 10.637 8.25307C10.6129 8.37431 10.6253 8.49997 10.6726 8.61418C10.7199 8.72838 10.8 8.82599 10.9028 8.89467C11.0055 8.96334 11.1264 9 11.25 9C11.4158 9 11.5747 8.93415 11.6919 8.81694C11.8092 8.69973 11.875 8.54076 11.875 8.375ZM12.5 4H10.625C10.4592 4 10.3003 4.06585 10.1831 4.18306C10.0658 4.30027 10 4.45924 10 4.625C10 4.79076 10.0658 4.94973 10.1831 5.06694C10.3003 5.18415 10.4592 5.25 10.625 5.25H12.5C12.6658 5.25 12.8247 5.31585 12.9419 5.43306C13.0592 5.55027 13.125 5.70924 13.125 5.875V10.875C13.125 11.0408 13.0592 11.1997 12.9419 11.3169C12.8247 11.4342 12.6658 11.5 12.5 11.5H2.5C2.33424 11.5 2.17527 11.4342 2.05806 11.3169C1.94085 11.1997 1.875 11.0408 1.875 10.875V5.875C1.875 5.70924 1.94085 5.55027 2.05806 5.43306C2.17527 5.31585 2.33424 5.25 2.5 5.25H4.375C4.54076 5.25 4.69973 5.18415 4.81694 5.06694C4.93415 4.94973 5 4.79076 5 4.625C5 4.45924 4.93415 4.30027 4.81694 4.18306C4.69973 4.06585 4.54076 4 4.375 4H2.5C2.00272 4 1.52581 4.19754 1.17417 4.54917C0.822544 4.9008 0.625 5.37772 0.625 5.875V10.875C0.625 11.3723 0.822544 11.8492 1.17417 12.2008C1.52581 12.5525 2.00272 12.75 2.5 12.75H12.5C12.9973 12.75 13.4742 12.5525 13.8258 12.2008C14.1775 11.8492 14.375 11.3723 14.375 10.875V5.875C14.375 5.37772 14.1775 4.9008 13.8258 4.54917C13.4742 4.19754 12.9973 4 12.5 4ZM3.125 8.375C3.125 8.49861 3.16166 8.61945 3.23033 8.72223C3.29901 8.82501 3.39662 8.90512 3.51082 8.95243C3.62503 8.99973 3.75069 9.01211 3.87193 8.98799C3.99317 8.96388 4.10453 8.90435 4.19194 8.81694C4.27935 8.72953 4.33888 8.61817 4.36299 8.49693C4.38711 8.37569 4.37473 8.25003 4.32742 8.13582C4.28012 8.02162 4.20001 7.92401 4.09723 7.85533C3.99445 7.78666 3.87361 7.75 3.75 7.75C3.58424 7.75 3.42527 7.81585 3.30806 7.93306C3.19085 8.05027 3.125 8.20924 3.125 8.375Z" fill="white"/>
</svg>
