<svg width="18" height="18" viewBox="0 0 18 18" fill="none" xmlns="http://www.w3.org/2000/svg">
<path d="M3.92764 3.96859L1.64839 3.31348L0 9.29268L2.28943 9.94779L2.55399 8.99112L3.83607 10.0518L6.83776 7.6289L8.40475 7.10897L10.4296 8.27361L11.0707 7.72249L9.5749 5.28921L6.63426 5.12284L4.37535 5.49718L4.17185 5.362L3.37818 6.8906L3.11362 6.78661L3.65291 4.98765L3.92764 3.96859ZM14.225 3.60464L18 8.388L16.1685 9.8958L15.7004 9.29268L14.459 10.8005L13.1668 10.5717C12.2713 10.9669 11.1419 12.0691 10.918 13.0362L11.6099 14.2736L11.437 14.4816C11.1622 14.7935 10.8672 15.0743 10.511 15.3135C10.1956 15.1159 9.86998 14.9183 9.55455 14.7208C9.63595 14.1696 10.0226 13.5665 10.1244 13.3377L9.94121 13.2649C9.62578 13.6601 8.69983 14.5752 8.27247 14.8767C7.95704 14.6792 7.63143 14.4816 7.316 14.284C7.38722 13.9201 8.22159 12.9426 8.37422 12.641L8.22159 12.5059C7.52968 13.2026 6.76653 13.9825 6.26795 14.128L5.19955 13.1922C5.75919 12.3603 6.82759 11.4868 7.4788 10.8733L7.37705 10.5613C6.70548 11.1228 5.54551 12.0795 4.86376 12.641C4.28378 12.4747 3.95817 12.1211 3.85642 11.5908C4.97569 10.4573 6.42058 9.18869 7.87564 8.08644L8.65913 7.82647L10.7858 9.04311L11.9559 8.03445L10.8163 6.17309C11.2131 5.96512 11.5896 5.79875 11.9457 5.67396L13.9096 7.55611L14.1538 7.35854L12.6885 5.47639L12.3934 5.10204L14.225 3.60464ZM15.1001 11.4972L13.6755 11.2476L13.3296 11.6844L14.5404 12.4747C14.7439 12.1627 14.9271 11.8403 15.1001 11.4972ZM12.5461 14.6272C12.831 14.388 13.1159 14.128 13.3804 13.8577L12.2205 12.9946L11.8135 13.3273L12.5461 14.6272ZM13.6246 13.6081C13.8485 13.3585 14.0622 13.109 14.2657 12.8386L12.6987 11.7987L12.2103 12.3603L13.6246 13.6081Z" fill="white"/>
</svg>
