<svg width="152" height="23" viewBox="0 0 152 23" fill="none" xmlns="http://www.w3.org/2000/svg">
<path d="M20.9246 4.42914C21.4794 5.12922 21.9492 5.88979 22.3243 6.69559L11.6841 14.3498L7.2373 11.6296V8.35694L11.6841 11.0772L20.9246 4.42914Z" fill="#21A038"/>
<path d="M2.69856 11.3986C2.69856 11.2517 2.70223 11.1058 2.70957 10.9608L0.0146768 10.8319C0.00550431 11.0199 3.25665e-06 11.2097 3.25665e-06 11.4012C-0.00114334 12.8978 0.300492 14.3797 0.887615 15.7622C1.47473 17.1447 2.33578 18.4004 3.42135 19.4574L5.33291 17.5928C4.49727 16.7806 3.83435 15.8153 3.38226 14.7523C2.93017 13.6892 2.69782 12.5495 2.69856 11.3986Z" fill="url(#paint0_linear_113_810)"/>
<path d="M11.6808 2.63277C11.8312 2.63277 11.9807 2.63815 12.1293 2.64531L12.2641 0.0145334C12.0709 0.00558217 11.8764 0.00110709 11.6808 0.00110709C10.1465 -0.000718751 8.62711 0.293216 7.20964 0.866033C5.79217 1.43885 4.50461 2.27927 3.4209 3.33904L5.33245 5.20447C6.16475 4.38873 7.15408 3.74157 8.24356 3.30023C9.33304 2.85889 10.5011 2.63205 11.6808 2.63277Z" fill="url(#paint1_linear_113_810)"/>
<path d="M11.6809 20.1646C11.5305 20.1646 11.381 20.1646 11.2315 20.1529L11.0967 22.7828C11.2905 22.7924 11.4853 22.7972 11.6809 22.7972C13.2145 22.7987 14.7332 22.5046 16.15 21.9316C17.5667 21.3586 18.8534 20.5181 19.9363 19.4583L18.0284 17.5938C17.1959 18.4091 16.2067 19.0559 15.1174 19.4971C14.0282 19.9383 12.8603 20.1651 11.6809 20.1646Z" fill="url(#paint2_linear_113_810)"/>
<path d="M16.7447 4.16235L19.0158 2.52875C16.94 0.888393 14.3488 -0.00455344 11.6777 1.74616e-05V2.63258C13.4865 2.63039 15.2532 3.16381 16.7447 4.16235Z" fill="url(#paint3_linear_113_810)"/>
<path d="M23.3618 11.3986C23.3632 10.7137 23.3019 10.0301 23.1783 9.3559L20.6642 11.164C20.6642 11.242 20.6642 11.3198 20.6642 11.3986C20.6648 12.6234 20.4017 13.8346 19.892 14.9538C19.3822 16.073 18.6371 17.0752 17.7051 17.8954L19.5185 19.8513C20.7302 18.7837 21.6986 17.4796 22.3606 16.0235C23.0228 14.5673 23.3638 12.9916 23.3618 11.3986Z" fill="#21A038"/>
<path d="M11.6812 20.1646C10.426 20.165 9.18474 19.9082 8.03772 19.4108C6.89075 18.9133 5.8636 18.1863 5.0228 17.2769L3.01953 19.0457C4.11332 20.2284 5.44961 21.1735 6.94178 21.8198C8.43393 22.466 10.0486 22.799 11.6812 22.7971V20.1646Z" fill="url(#paint4_linear_113_810)"/>
<path d="M5.65762 4.90171L3.84513 2.94586C2.63305 4.01319 1.66439 5.31722 1.00197 6.77338C0.339562 8.22953 -0.00180596 9.80531 7.18497e-06 11.3985H2.69856C2.69801 10.1738 2.96113 8.96254 3.47088 7.84334C3.98063 6.72418 4.72563 5.72198 5.65762 4.90171Z" fill="url(#paint5_linear_113_810)"/>
<path d="M67.4088 6.51864L70.751 4.14294H59.5654V18.4188H70.751V16.0431H62.7571V12.3863H69.5763V10.0107H62.7571V6.51864H67.4088Z" fill="#21A038"/>
<path d="M52.039 9.70432H48.1556V6.51768H54.3534L57.6936 4.13477H44.9658V18.4107H51.6283C55.3636 18.4107 57.5073 16.7772 57.5073 13.9286C57.5073 11.2034 55.5656 9.70432 52.039 9.70432ZM51.4846 16.0342H48.1556V12.0785H51.4846C53.5049 12.0785 54.4521 12.7414 54.4521 14.0564C54.4521 15.3713 53.4442 16.0342 51.4846 16.0342Z" fill="#21A038"/>
<path d="M78.9735 4.1409H72.8848V18.4167H76.076V14.3726H78.9735C82.8581 14.3726 85.2612 12.4004 85.2612 9.24914C85.2612 6.09796 82.8581 4.1409 78.9735 4.1409ZM78.9061 11.9951H76.076V6.51841H78.9061C80.9495 6.51841 82.0772 7.49153 82.0772 9.25786C82.0772 11.0242 80.9495 11.9951 78.9061 11.9951Z" fill="#21A038"/>
<path d="M40.1765 15.0477C39.3521 15.4784 38.4284 15.7015 37.491 15.6962C34.6853 15.6962 32.6498 13.7636 32.6498 11.1023C32.6498 8.441 34.6853 6.50419 37.491 6.50419C38.5029 6.48761 39.4937 6.78363 40.3187 7.34906L42.5511 5.76283L42.4001 5.65933C41.0979 4.55469 39.358 3.96964 37.3663 3.96964C35.2061 3.96964 33.2473 4.67086 31.8488 5.94658C31.1416 6.60343 30.5824 7.39387 30.2058 8.26857C29.8293 9.14327 29.6435 10.0834 29.6602 11.0305C29.6452 11.9871 29.8302 12.9369 30.2039 13.8231C30.5777 14.7093 31.1327 15.5136 31.8357 16.1883C33.2408 17.5147 35.1952 18.2455 37.3401 18.2455C39.5812 18.2455 41.54 17.4914 42.8663 16.1186L40.8681 14.6824L40.1765 15.0477Z" fill="#21A038"/>
<path d="M97.9156 9.70432H94.0338V6.51768H102.376V4.13477H90.8418V18.4107H97.4958C101.231 18.4107 103.375 16.7772 103.375 13.9286C103.383 11.2034 101.442 9.70432 97.9156 9.70432ZM97.3611 16.0342H94.0338V12.0785H97.3611C99.3813 12.0785 100.328 12.7414 100.328 14.0564C100.328 15.3713 99.3292 16.0342 97.3611 16.0342Z" fill="#21A038"/>
<path d="M139.657 18.3902H136.422V4.11435H139.657V10.1103H141.418L146.174 4.11435H149.841L144.2 10.9056L150.75 18.3902H146.457L141.643 12.7757H139.657V18.3902Z" fill="#21A038"/>
<path d="M115.128 15.6772H108.284L107.124 18.4494H103.681L110.1 4.17355H113.543L119.858 18.4494H116.289L115.128 15.6772ZM114.056 13.0905L111.727 7.54608L109.384 13.0905H114.056Z" fill="#21A038"/>
<path d="M124.214 4.17355V10.1349H130.909V4.17355H134.245V18.4494H130.909V12.8242H124.214V18.4494H120.878V4.17355H124.214Z" fill="#21A038"/>
<defs>
<linearGradient id="paint0_linear_113_810" x1="3.96712" y1="19.1289" x2="1.14521" y2="10.7697" gradientUnits="userSpaceOnUse">
<stop offset="0.14" stop-color="#F1E813"/>
<stop offset="0.3" stop-color="#E6E418"/>
<stop offset="0.58" stop-color="#C9DA26"/>
<stop offset="0.89" stop-color="#A2CC39"/>
</linearGradient>
<linearGradient id="paint1_linear_113_810" x1="4.19139" y1="3.8045" x2="11.7374" y2="0.857732" gradientUnits="userSpaceOnUse">
<stop offset="0.06" stop-color="#0FA7DF"/>
<stop offset="0.54" stop-color="#0098F8"/>
<stop offset="0.92" stop-color="#0290EA"/>
</linearGradient>
<linearGradient id="paint2_linear_113_810" x1="10.9188" y1="21.2083" x2="19.4852" y2="19.2252" gradientUnits="userSpaceOnUse">
<stop offset="0.12" stop-color="#A2CC39"/>
<stop offset="0.28" stop-color="#86C239"/>
<stop offset="0.87" stop-color="#219F38"/>
</linearGradient>
<linearGradient id="paint3_linear_113_810" x1="11.1164" y1="0.881716" x2="18.4263" y2="3.19327" gradientUnits="userSpaceOnUse">
<stop offset="0.06" stop-color="#0290EA"/>
<stop offset="0.79" stop-color="#0C89CA"/>
</linearGradient>
<linearGradient id="paint4_linear_113_810" x1="3.69646" y1="18.7252" x2="11.6389" y2="21.767" gradientUnits="userSpaceOnUse">
<stop offset="0.13" stop-color="#F1E813"/>
<stop offset="0.3" stop-color="#EAE616"/>
<stop offset="0.53" stop-color="#D8DF1F"/>
<stop offset="0.8" stop-color="#BAD52D"/>
<stop offset="0.98" stop-color="#A2CC39"/>
</linearGradient>
<linearGradient id="paint5_linear_113_810" x1="1.00531" y1="11.7172" x2="4.07893" y2="3.52397" gradientUnits="userSpaceOnUse">
<stop offset="0.07" stop-color="#A2CC39"/>
<stop offset="0.26" stop-color="#81C45E"/>
<stop offset="0.92" stop-color="#0FA7DF"/>
</linearGradient>
</defs>
</svg>
