<svg width="18" height="16" viewBox="0 0 18 16" fill="none" xmlns="http://www.w3.org/2000/svg">
<path d="M16.5615 0.95324L0.892323 7.074C0.372059 7.25762 0.402663 7.99211 0.922927 8.14513L3.89149 9.03264C4.53417 9.21626 5.05444 9.70592 5.23806 10.3486L6.401 14.0517C6.55402 14.5413 7.1661 14.6943 7.53334 14.3271L9.12474 12.7051C9.40017 12.4297 9.79802 12.3991 10.1041 12.6133L13.6235 15.184C14.1132 15.5512 14.817 15.2758 14.9395 14.6637L17.602 1.87135C17.7856 1.22867 17.1735 0.70841 16.5615 0.95324ZM14.6028 3.76879L8.29844 9.33867C7.9618 9.64471 7.71697 10.0732 7.68636 10.5322C7.62515 10.9913 6.98248 11.0525 6.82946 10.624L6.55402 9.70592C6.3398 9.03264 6.61523 8.32875 7.1967 7.9615L14.3886 3.49335C14.5722 3.37094 14.7558 3.61577 14.6028 3.76879Z" fill="white" fill-opacity="0.5"/>
</svg>
