<svg width="14" height="16" viewBox="0 0 14 16" fill="none" xmlns="http://www.w3.org/2000/svg">
<path fill-rule="evenodd" clip-rule="evenodd" d="M7.17457 0.891541C6.80027 0.891541 6.49686 1.19497 6.49686 1.56925V11.0572C6.49686 11.8058 5.89002 12.4126 5.14144 12.4126C4.39286 12.4126 3.78602 11.8058 3.78602 11.0572C3.78602 10.3086 4.39286 9.70178 5.14144 9.70178C5.51572 9.70178 5.81915 9.39837 5.81915 9.02407V6.99094C5.81915 6.61665 5.51572 6.31323 5.14144 6.31323C2.52141 6.31323 0.397461 8.43717 0.397461 11.0572C0.397461 13.6772 2.52141 15.8012 5.14144 15.8012C7.76147 15.8012 9.88541 13.6772 9.88541 11.0572V7.43951C10.8823 8.01611 12.04 8.34636 13.274 8.34636C13.6483 8.34636 13.9517 8.04295 13.9517 7.66865V5.63552C13.9517 5.26123 13.6483 4.95781 13.274 4.95781C11.4025 4.95781 9.88541 3.4407 9.88541 1.56925C9.88541 1.19497 9.582 0.891541 9.2077 0.891541H7.17457Z" fill="white" fill-opacity="0.5"/>
</svg>
