<svg width="16" height="16" viewBox="0 0 16 16" fill="none" xmlns="http://www.w3.org/2000/svg">
<path d="M8 15.5C6.01088 15.5 4.10322 14.7098 2.6967 13.3033C1.29018 11.8968 0.5 9.98912 0.5 8C0.5 6.01088 1.29018 4.10322 2.6967 2.6967C4.10322 1.29018 6.01088 0.5 8 0.5C9.98912 0.5 11.8968 1.29018 13.3033 2.6967C14.7098 4.10322 15.5 6.01088 15.5 8C15.5 9.98912 14.7098 11.8968 13.3033 13.3033C11.8968 14.7098 9.98912 15.5 8 15.5ZM8 14C9.5913 14 11.1174 13.3679 12.2426 12.2426C13.3679 11.1174 14 9.5913 14 8C14 6.4087 13.3679 4.88258 12.2426 3.75736C11.1174 2.63214 9.5913 2 8 2C6.4087 2 4.88258 2.63214 3.75736 3.75736C2.63214 4.88258 2 6.4087 2 8C2 9.5913 2.63214 11.1174 3.75736 12.2426C4.88258 13.3679 6.4087 14 8 14ZM6.9425 5.4425C6.87257 5.51243 6.78955 5.5679 6.69819 5.60575C6.60682 5.64359 6.50889 5.66307 6.41 5.66307C6.31111 5.66307 6.21318 5.64359 6.12181 5.60575C6.03045 5.5679 5.94743 5.51243 5.8775 5.4425C5.80757 5.37257 5.7521 5.28955 5.71426 5.19819C5.67641 5.10682 5.65693 5.00889 5.65693 4.91C5.65693 4.81111 5.67641 4.71318 5.71426 4.62181C5.7521 4.53045 5.80757 4.44743 5.8775 4.3775C6.44042 3.81458 7.20391 3.49833 8 3.49833C8.79609 3.49833 9.55958 3.81458 10.1225 4.3775C10.6854 4.94042 11.0017 5.70391 11.0017 6.5C11.0017 7.29609 10.6854 8.05958 10.1225 8.6225L8.5325 10.2125C8.46257 10.2824 8.37955 10.3379 8.28819 10.3757C8.19682 10.4136 8.09889 10.4331 8 10.4331C7.90111 10.4331 7.80318 10.4136 7.71181 10.3757C7.62045 10.3379 7.53743 10.2824 7.4675 10.2125C7.39757 10.1426 7.3421 10.0596 7.30426 9.96819C7.26641 9.87682 7.24693 9.77889 7.24693 9.68C7.24693 9.58111 7.26641 9.48318 7.30426 9.39181C7.3421 9.30045 7.39757 9.21743 7.4675 9.1475L9.0575 7.5575C9.2865 7.26915 9.40145 6.90664 9.38043 6.53901C9.35941 6.17139 9.20391 5.82434 8.94353 5.56397C8.68316 5.30359 8.33611 5.14809 7.96849 5.12707C7.60086 5.10605 7.23835 5.221 6.95 5.45L6.9425 5.4425ZM8 12.5C7.80109 12.5 7.61032 12.421 7.46967 12.2803C7.32902 12.1397 7.25 11.9489 7.25 11.75C7.25 11.5511 7.32902 11.3603 7.46967 11.2197C7.61032 11.079 7.80109 11 8 11C8.19891 11 8.38968 11.079 8.53033 11.2197C8.67098 11.3603 8.75 11.5511 8.75 11.75C8.75 11.9489 8.67098 12.1397 8.53033 12.2803C8.38968 12.421 8.19891 12.5 8 12.5Z" fill="#FF922B"/>
</svg>
