<svg width="109" height="61" viewBox="0 0 109 61" fill="none" xmlns="http://www.w3.org/2000/svg">
<path d="M33.7557 9.33118H22.2119V29.8847H33.7557V9.33118Z" fill="#FF5F00"/>
<path d="M22.9445 19.6071C22.9427 17.6277 23.3954 15.6737 24.2684 13.8933C25.1414 12.1128 26.4118 10.5525 27.9834 9.33038C26.0372 7.81469 23.6998 6.87211 21.2385 6.61036C18.7772 6.34861 16.2911 6.77826 14.0646 7.85021C11.8381 8.92216 9.96085 10.5932 8.64751 12.6722C7.33416 14.7512 6.6377 17.1544 6.6377 19.6071C6.6377 22.0598 7.33416 24.463 8.64751 26.542C9.96085 28.6211 11.8381 30.2921 14.0646 31.364C16.2911 32.436 18.7772 32.8656 21.2385 32.6039C23.6998 32.3421 26.0372 31.3995 27.9834 29.8838C26.4118 28.6617 25.1414 27.1014 24.2684 25.3209C23.3954 23.5405 22.9427 21.5866 22.9445 19.6071Z" fill="#EB001B"/>
<path d="M49.3285 19.6071C49.3286 22.0598 48.6322 24.4629 47.3189 26.542C46.0056 28.621 44.1285 30.292 41.902 31.364C39.6755 32.4359 37.1895 32.8656 34.7282 32.6039C32.2669 32.3421 29.9296 31.3995 27.9834 29.8838C29.5536 28.6605 30.823 27.0999 31.6959 25.3197C32.5687 23.5396 33.0223 21.5862 33.0223 19.6071C33.0223 17.628 32.5687 15.6747 31.6959 13.8945C30.823 12.1143 29.5536 10.5537 27.9834 9.33037C29.9296 7.81468 32.2669 6.8721 34.7282 6.61036C37.1895 6.34861 39.6755 6.77828 41.902 7.85024C44.1285 8.9222 46.0056 10.5932 47.3189 12.6722C48.6322 14.7513 49.3286 17.1545 49.3285 19.6071Z" fill="white"/>
<path d="M48.0695 27.7065V27.2857H48.2406V27.2H47.8047V27.2857H47.9759V27.7065H48.0695ZM48.9158 27.7065V27.1992H48.7822L48.6285 27.5481L48.4748 27.1992H48.3411V27.7065H48.4354V27.3238L48.5796 27.6538H48.6774L48.8216 27.323V27.7065H48.9158Z" fill="#F79E1B"/>
<g clip-path="url(#clip0_113_717)">
<path d="M78.0744 28.7962H73.666L76.4234 11.9249H80.8316L78.0744 28.7962Z" fill="white"/>
<path d="M94.0551 12.3373C93.1856 11.9959 91.8065 11.619 90.1011 11.619C85.7477 11.619 82.682 13.9163 82.6632 17.2006C82.627 19.6239 84.8581 20.9698 86.5268 21.7777C88.2324 22.6034 88.8121 23.1423 88.8121 23.8782C88.7948 25.0084 87.4339 25.5294 86.1647 25.5294C84.4047 25.5294 83.4616 25.2608 82.0284 24.632L81.448 24.3624L80.8311 28.1497C81.865 28.6158 83.7699 29.0295 85.7477 29.0476C90.3733 29.0476 93.3847 26.7859 93.4204 23.2859C93.438 21.3653 92.2599 19.8937 89.72 18.6911C88.1781 17.9192 87.2339 17.3986 87.2339 16.6088C87.2519 15.8908 88.0325 15.1553 89.773 15.1553C91.2062 15.1193 92.2592 15.4602 93.0569 15.8013L93.4556 15.9805L94.0551 12.3373Z" fill="white"/>
<path d="M99.9143 22.8193C100.277 21.85 101.674 18.0988 101.674 18.0988C101.656 18.1348 102.037 17.1117 102.254 16.4836L102.562 17.9373C102.562 17.9373 103.397 21.9758 103.579 22.8193C102.89 22.8193 100.785 22.8193 99.9143 22.8193ZM105.356 11.9249H101.946C100.894 11.9249 100.096 12.2297 99.6419 13.3247L93.0938 28.7959H97.7194C97.7194 28.7959 98.4809 26.7136 98.6446 26.2652C99.1521 26.2652 103.652 26.2652 104.305 26.2652C104.431 26.8575 104.831 28.7959 104.831 28.7959H108.912L105.356 11.9249Z" fill="white"/>
<path d="M69.9836 11.9249L65.6663 23.4295L65.1946 21.0962C64.3964 18.4039 61.8931 15.4788 59.0996 14.0244L63.0541 28.7783H67.7159L74.6452 11.9249H69.9836Z" fill="white"/>
<path d="M61.6575 11.9249H54.5647L54.4922 12.2658C60.025 13.6658 63.6892 17.0406 65.1947 21.0969L63.6528 13.3431C63.399 12.2655 62.6189 11.9604 61.6575 11.9249Z" fill="#0094FF"/>
</g>
<path fill-rule="evenodd" clip-rule="evenodd" d="M32.2479 42.8722C32.7771 42.869 34.3498 42.7264 35.0159 44.9903C35.4646 46.5153 36.1794 49.0133 37.1603 52.4844H37.5598C38.6117 48.825 39.3343 46.3269 39.7276 44.9903C40.4007 42.7028 42.0834 42.8723 42.7565 42.8723L47.9496 42.8723V59.1389H42.6566V49.5527H42.3017L39.3512 59.1389H35.3689L32.4184 49.5456H32.0634V59.1389H26.7705V42.8723L32.2479 42.8722ZM55.5501 42.8723V52.4656H55.9724L59.5614 44.5771C60.2581 43.0072 61.743 42.8723 61.743 42.8723H66.865V59.1389H61.4615V49.5456H61.0393L57.5206 57.4341C56.8239 58.9969 55.2686 59.1389 55.2686 59.1389H50.1466V42.8723H55.5501ZM85.5418 50.6023C84.7881 52.753 82.4211 54.2934 79.8005 54.2934H74.1339V59.1389H68.9955V50.6023H85.5418Z" fill="white"/>
<path fill-rule="evenodd" clip-rule="evenodd" d="M80.0479 42.8723H68.7256C68.995 46.4938 72.0922 49.5941 75.2985 49.5941H85.8984C86.5101 46.5842 84.4043 42.8723 80.0479 42.8723Z" fill="url(#paint0_linear_113_717)"/>
<defs>
<linearGradient id="paint0_linear_113_717" x1="86.0023" y1="47.1006" x2="68.7256" y2="47.1006" gradientUnits="userSpaceOnUse">
<stop stop-color="#42BA55"/>
<stop offset="1" stop-color="#02AEFF"/>
</linearGradient>
<clipPath id="clip0_113_717">
<rect width="54.4204" height="17.4286" fill="white" transform="translate(54.4922 11.619)"/>
</clipPath>
</defs>
</svg>
