<svg width="20" height="12" viewBox="0 0 20 12" fill="none" xmlns="http://www.w3.org/2000/svg">
<path d="M17.3133 8.26656C15.7207 6.70782 15.924 6.94502 17.8554 4.26806C19.0075 2.64156 19.4819 1.62499 19.3464 1.18448C19.2786 0.913396 18.3637 0.981167 18.3637 0.981167H15.5173C15.5173 0.981167 15.0768 0.981166 14.9074 1.28614C14.6024 1.86219 14.4669 2.57379 13.8569 3.62424C12.5693 5.89457 12.061 6.03011 11.8577 5.89457C11.3833 5.55571 11.485 4.57303 11.485 3.86144C11.485 1.65888 11.7899 0.743968 10.875 0.472883C10.6717 0.405112 10.5023 0.405112 10.1973 0.371226C9.82457 0.337341 9.45183 0.337341 9.11297 0.337341C8.26583 0.337341 7.62201 0.371226 7.18149 0.57454C6.84264 0.743967 6.60544 1.11671 6.77487 1.15059C6.97818 1.18448 7.38481 1.28614 7.62201 1.59111C7.92698 1.99773 7.89309 2.94653 7.89309 2.94653C7.89309 2.94653 8.06252 5.55572 7.48646 5.86068C7.11372 6.09788 6.57155 5.62349 5.45333 3.55647C4.87728 2.50602 4.80951 1.79442 4.43676 1.32002C4.19957 1.01505 3.75905 0.913395 3.75905 0.913395H1.04821C1.04821 0.913395 0.573813 0.87951 0.506042 1.01505C0.3705 1.18448 0.506042 1.52334 0.506042 1.52334C0.506042 1.52334 2.64083 6.77559 5.04671 9.41867C7.18149 11.9262 9.68902 11.7907 9.68902 11.7907C9.68902 11.7907 11.1461 11.8584 11.3494 11.4857C11.485 11.3501 11.5188 10.9435 11.5188 10.9435C11.5188 10.9435 11.485 9.31701 12.1966 9.07981C12.9082 8.84261 13.7892 10.6385 14.738 11.3163C15.4496 11.8584 15.6529 11.7907 15.9917 11.7907C16.6694 11.7907 18.5332 11.7907 18.5332 11.7907C18.5332 11.7907 19.8547 11.6551 19.2447 10.5369C19.1431 10.4691 18.8381 9.75752 17.3133 8.26656Z" fill="white" fill-opacity="0.5"/>
</svg>
