<svg width="15" height="8" viewBox="0 0 15 8" fill="none" xmlns="http://www.w3.org/2000/svg">
<path fill-rule="evenodd" clip-rule="evenodd" d="M14.6558 0.541707C14.7601 0.229449 14.6558 0 14.1595 0H12.5185C12.1491 0 11.956 0.155353 11.8442 0.34265C11.8154 0.390771 11.7932 0.441738 11.769 0.492268C11.5981 0.848388 10.8274 2.38667 9.7879 3.43002C9.40543 3.77349 9.23156 3.88277 9.02293 3.88277C8.91863 3.88277 8.76764 3.77349 8.76764 3.46126V0.541709C8.76764 0.166998 8.64655 0 8.29881 0H5.72008C5.45934 0 5.30252 0.173912 5.30252 0.338734C5.30252 0.693951 5.89359 0.775868 5.95451 1.77509V3.94525C5.95451 4.42105 5.85883 4.50732 5.6502 4.50732C5.09389 4.50732 3.74067 2.67247 2.93808 0.57292C2.78079 0.164842 2.62304 0 2.20364 0H0.562635C0.0937766 0 0 0.19821 0 0.416779C0 0.807107 0.556337 2.74308 2.5904 5.30354C3.94643 7.05213 5.85699 8 7.59552 8C8.63862 8 8.76766 7.78947 8.76766 7.42684V6.10526C8.76766 5.68421 8.86648 5.60018 9.1968 5.60018C9.44019 5.60018 9.85744 5.70946 10.831 6.55255C11.9437 7.55175 12.1271 8 12.753 8H14.394C14.8628 8 15.0973 7.78947 14.962 7.37401C14.814 6.95994 14.2828 6.35917 13.5779 5.64701C13.1954 5.24109 12.6217 4.80396 12.4478 4.58534C12.3048 4.42021 12.2699 4.30898 12.3006 4.19463C12.3534 3.99861 12.5109 3.85013 12.6347 3.68928C13.1364 3.03754 14.4864 1.23893 14.6558 0.541707Z" fill="#FF922B"/>
</svg>
