<svg width="8" height="14" viewBox="0 0 8 14" fill="none" xmlns="http://www.w3.org/2000/svg">
<path d="M7.77577 4.08334C7.77574 3.18445 7.47912 2.31068 6.9319 1.59755C6.38467 0.88442 5.61743 0.37178 4.74917 0.139135C3.88091 -0.09351 2.96014 -0.0331587 2.12967 0.310829C1.2992 0.654817 0.605437 1.26322 0.15598 2.04167C0.00145864 2.30968 -0.0403059 2.62809 0.0398677 2.92689C0.120041 3.22568 0.315591 3.48041 0.583524 3.63507C0.851456 3.78973 1.16984 3.83165 1.46868 3.75163C1.76751 3.67161 2.02234 3.47619 2.17714 3.20834C2.33095 2.94255 2.55188 2.72183 2.81781 2.56827C3.08375 2.41471 3.38535 2.3337 3.69244 2.33334C4.15656 2.33334 4.60168 2.51771 4.92987 2.8459C5.25806 3.17409 5.44244 3.61921 5.44244 4.08334C5.44244 4.54747 5.25806 4.99259 4.92987 5.32078C4.60168 5.64896 4.15656 5.83334 3.69244 5.83334H3.68959C3.61464 5.84084 3.54065 5.85597 3.46878 5.87849C3.39017 5.88665 3.31256 5.90254 3.23706 5.92591C3.17282 5.96081 3.11207 6.00177 3.05562 6.04824C2.98862 6.08469 2.92532 6.12757 2.86662 6.17628C2.81416 6.23889 2.76839 6.30681 2.73005 6.37893C2.68754 6.43154 2.6498 6.48783 2.61726 6.54713C2.59191 6.62754 2.57515 6.71041 2.56727 6.79436C2.54695 6.86144 2.53306 6.9303 2.52577 7V8.16667L2.52848 8.17991L2.52976 8.75285C2.53056 9.06176 2.65383 9.35775 2.87253 9.57591C3.09123 9.79408 3.38752 9.91662 3.69643 9.91667H3.69927C4.00869 9.9159 4.30512 9.79225 4.52338 9.57293C4.74163 9.35361 4.86383 9.05657 4.86309 8.74716L4.86131 7.97555C5.70079 7.72599 6.43757 7.21268 6.9625 6.51164C7.48744 5.8106 7.7726 4.95913 7.77577 4.08334ZM2.87269 12.005C2.70888 12.1675 2.59693 12.3748 2.55097 12.6009C2.505 12.827 2.52711 13.0616 2.61448 13.2752C2.70185 13.4887 2.85057 13.6715 3.04183 13.8005C3.23309 13.9296 3.45831 13.999 3.68902 14C3.99843 13.9975 4.29508 13.8764 4.51788 13.6617C4.73442 13.4403 4.85568 13.143 4.85568 12.8334C4.85568 12.5237 4.73442 12.2264 4.51788 12.0051C4.29453 11.797 4.0006 11.6812 3.6953 11.6812C3.39001 11.6812 3.09606 11.7969 2.87269 12.005Z" fill="white"/>
</svg>
