<svg width="12" height="19" viewBox="0 0 12 19" fill="none" xmlns="http://www.w3.org/2000/svg">
<path d="M4.23817 15.4016C3.89693 15.747 3.68489 16.2009 3.6381 16.6861C3.5913 17.1712 3.71264 17.6578 3.98148 18.063C4.25032 18.4682 4.65008 18.7671 5.11281 18.9088C5.57554 19.0506 6.0727 19.0265 6.51978 18.8405C6.77418 18.7259 7.00767 18.569 7.21055 18.3764C7.39883 18.182 7.54809 17.9527 7.65012 17.7013C7.76978 17.4442 7.82717 17.1622 7.81758 16.8784C7.81527 16.3249 7.59726 15.7945 7.21055 15.4016C7.01595 15.2038 6.78444 15.0469 6.52936 14.9398C6.27428 14.8326 6.00069 14.7775 5.72436 14.7775C5.44803 14.7775 5.17443 14.8326 4.91935 14.9398C4.66427 15.0469 4.43276 15.2038 4.23817 15.4016ZM5.72436 4.21961C6.27952 4.21961 6.81193 4.44189 7.20449 4.83755C7.59705 5.23322 7.81758 5.76986 7.81758 6.32941C7.81758 6.88897 7.59705 7.4256 7.20449 7.82127C6.81193 8.21693 6.27952 8.43921 5.72436 8.43921C5.1692 8.43921 4.63678 8.6615 4.24423 9.05716C3.85167 9.45283 3.63114 9.98946 3.63114 10.549C3.63114 11.1086 3.85167 11.6452 4.24423 12.0409C4.63678 12.4365 5.1692 12.6588 5.72436 12.6588C6.8265 12.6581 7.90904 12.365 8.86322 11.8091C9.81739 11.2531 10.6096 10.4538 11.1602 9.49148C11.7108 8.52917 12.0004 7.43775 12 6.32688C11.9996 5.216 11.7091 4.12481 11.1577 3.16295C10.6063 2.20108 9.81347 1.40242 8.85886 0.84722C7.90424 0.292015 6.82147 -0.000177844 5.71933 8.12096e-08C4.61718 0.000178007 3.5345 0.29272 2.58006 0.848233C1.62562 1.40375 0.83305 2.20266 0.281979 3.1647C0.143578 3.4055 0.0538067 3.67152 0.0178382 3.94744C-0.0181303 4.22336 0.000413458 4.50372 0.0724018 4.77238C0.14439 5.04105 0.268401 5.2927 0.437291 5.51285C0.606181 5.733 0.816615 5.9173 1.05647 6.05514C1.53711 6.3302 2.10618 6.40249 2.6395 6.25625C3.17283 6.11 3.62712 5.75709 3.90325 5.27451C4.08768 4.95254 4.35323 4.68541 4.67303 4.50016C4.99283 4.31492 5.35551 4.21813 5.72436 4.21961Z" fill="white" fill-opacity="0.25"/>
</svg>
