<svg width="136" height="68" viewBox="0 0 136 68" fill="none" xmlns="http://www.w3.org/2000/svg">
<path d="M22.9425 16.9059C25.573 16.9048 28.1699 17.4963 30.5404 18.6365L31.6284 19.2032L30.0417 20.6085L27.6651 18.1605L23.5692 21.7532L21.1575 19.1726L13.6254 25.8672L18.4477 31.1259L16.5664 32.7579L21.3241 38.0165L19.4428 39.6485L26.2484 47.1285L30.2763 43.4713L33.7896 47.3926C33.0949 47.9139 32.3356 48.4387 31.523 48.8954C28.919 50.3529 25.9844 51.117 23.0003 51.1145C13.4304 51.0941 5.6671 43.4214 5.6671 33.9853C5.6331 24.6126 13.3964 16.9059 22.9425 16.9059ZM19.7692 32.9403L23.899 29.2831L27.5994 33.3653L23.4695 37.0226L19.7692 32.9403ZM22.7102 39.9942L26.806 36.3041L30.5392 40.3841L26.4094 44.0413L22.7102 39.9942ZM16.8304 25.9873L20.958 22.3301L24.6572 26.4123L20.5274 30.0696L16.8304 25.9873ZM24.3932 24.0267L27.4532 21.284L30.2298 24.3213L27.1698 27.098L24.3932 24.0267ZM29.8785 36.5987L32.9385 33.8561L35.7152 36.9251L32.654 39.6667L29.8785 36.5987ZM32.5985 42.7709L35.6585 40.0282L38.4318 43.0655L35.3718 45.8399L32.5985 42.7709ZM33.8554 28.6733L35.9033 26.8441L37.7529 28.8694L35.705 30.6975L33.8554 28.6733ZM31.2124 22.6327L33.2604 20.7717L35.1111 22.8287L33.062 24.6579L31.2124 22.6327ZM36.4643 34.7163L38.5122 32.8871L40.3936 34.9123L38.3128 36.7404L36.4643 34.7163ZM27.248 30.1773L30.308 27.4346L33.0824 30.4719L30.0224 33.2146L27.248 30.1773ZM48.6068 25.6054H50.266L52.8568 35.5153H52.9872L54.8889 25.6054H57.0694L54.0604 38.8733H52.0476L49.5135 29.5256H49.382L46.9204 38.8733H44.9088L41.8771 25.5929H43.9647L46.0523 35.5028H46.1826L48.6068 25.6054ZM59.718 33.2327H63.985C63.8921 31.2664 62.9424 30.481 61.945 30.481C60.8083 30.481 59.9311 31.3616 59.7271 33.2327H59.718ZM65.4844 36.7551V38.1786C64.6458 38.6659 63.5283 39.0399 62.1978 39.0399C59.0675 39.0399 57.7812 37.0906 57.7812 34.1326C57.7812 31.2845 59.216 29.2253 62.0119 29.2253C64.3409 29.2253 65.7768 30.7439 65.7768 33.796V34.4896H59.7022C59.7022 36.737 60.6145 37.7309 62.5355 37.7309C63.5419 37.7309 64.4622 37.3739 65.498 36.7563L65.4844 36.7551ZM70.1141 37.5496C70.7102 37.8103 71.363 37.8511 71.83 37.8511C73.2092 37.8511 74.2519 36.9897 74.2519 33.9547C74.2519 31.5747 73.3951 30.8074 72.1462 30.8074C71.4004 30.8074 70.8598 31.0137 70.1141 31.4251V37.5496ZM70.1334 30.039C70.691 29.7398 71.6407 29.3454 72.6494 29.3454C74.9614 29.3454 76.2103 30.9547 76.2103 33.9535C76.2103 37.4669 74.533 39.1612 71.8311 39.1612C70.5664 39.1263 69.325 38.8129 68.1954 38.2432V25.1464L70.122 24.6783V30.005L70.1334 30.039ZM85.0072 38.879H83.815L80.0115 29.4757H79.8449V38.879H78.1676V25.5963H80.4342L84.6083 36.0683H84.7012L88.6906 25.5963H91.0026V38.879H88.9671V29.24H88.7994L85.0072 38.879ZM99.2158 34.1326C99.2158 31.6053 98.1913 30.5365 96.9242 30.5365C95.6946 30.5365 94.6315 31.6041 94.6315 34.1326C94.6315 36.6996 95.6017 37.7287 96.9242 37.7287C98.2468 37.7287 99.2158 36.6996 99.2158 34.1326ZM92.6742 34.1326C92.6742 30.8539 94.4649 29.2253 96.9242 29.2253C99.3836 29.2253 101.174 30.8539 101.174 34.1326C101.174 37.3354 99.4788 39.0399 96.9242 39.0399C94.3697 39.0399 92.6742 37.3343 92.6742 34.1326ZM102.624 30.6C103.462 30.0934 105.234 29.2128 107.377 29.2128C109.613 29.2128 110.451 30.0934 110.451 32.0235V38.8053H108.524V32.4553C108.524 30.9763 107.799 30.7133 106.847 30.7133C106.102 30.7133 105.15 31.0511 104.573 31.3877V38.8053H102.646L102.624 30.6ZM114.553 33.2203H118.821C118.731 31.2539 117.779 30.4685 116.781 30.4685C115.645 30.4685 114.77 31.3491 114.563 33.2203H114.553ZM120.321 36.7427V38.1661C119.482 38.6535 118.365 39.0275 117.034 39.0275C113.906 39.0275 112.618 37.0781 112.618 34.1201C112.618 31.2721 114.052 29.2128 116.848 29.2128C119.178 29.2128 120.614 30.7315 120.614 33.7835V34.4771H114.537C114.537 36.7245 115.451 37.7185 117.371 37.7185C118.376 37.7185 119.297 37.3615 120.333 36.7438L120.321 36.7427ZM128.357 29.2128H130.334L126.96 38.5775C126.027 41.1615 124.89 42.5102 122.748 42.5102V40.9757C124.018 40.9757 124.788 39.9636 125.246 38.5764L121.667 29.2117H123.707L126.093 36.1046H126.206L128.357 29.2128Z" fill="#106DB3"/>
</svg>
