<svg width="135" height="33" viewBox="0 0 135 33" fill="none" xmlns="http://www.w3.org/2000/svg">
<path d="M130.514 9.88092L127.481 17.3601C127.481 17.464 127.377 17.5679 127.377 17.6718L127.272 17.8795L127.167 17.6718C127.167 17.5679 127.063 17.464 127.063 17.3601L124.03 9.88092H120.056L125.285 22.7618L123.088 27.6441H127.063L134.384 9.88092H130.514Z" fill="white"/>
<path d="M101.229 10.6084C100.497 10.089 99.6607 9.77741 98.6146 9.67349C96.8365 9.46574 95.1631 10.089 94.117 11.3356V9.88125H90.5615V22.7622H94.117V16.0101C94.117 14.4519 94.431 14.1403 94.6404 13.7248C95.0584 12.9976 95.8951 12.5821 96.8365 12.686C97.7779 12.686 98.7193 13.1015 99.1373 13.8286C99.4513 14.3481 99.4513 14.9713 99.4513 15.3868C99.4513 16.5295 99.4513 22.7622 99.4513 22.7622H103.008V14.9713C103.008 12.8938 102.379 11.5433 101.229 10.6084Z" fill="white"/>
<path d="M83.7638 9.98484C81.9864 9.36158 80.1037 9.46542 78.3256 10.2965C77.0709 10.8159 76.1295 11.7508 75.3974 12.8935C74.7694 13.9322 74.4561 15.0749 74.4561 16.4253C74.4561 17.7757 74.7694 18.9184 75.3974 19.9572C76.0248 20.9959 76.8615 21.7231 77.9076 22.3464C78.9529 22.8658 80.2083 23.1774 81.3584 23.1774C81.9864 23.1774 82.6138 23.0735 83.2412 22.9696C83.7638 22.8658 84.2872 22.658 84.8099 22.3464C85.856 21.7231 86.6927 20.9959 87.32 20.0611C87.9474 19.0222 88.2614 17.8796 88.2614 16.5292C88.1567 13.4128 86.4833 11.0236 83.7638 9.98484ZM84.7052 16.4253C84.7052 17.568 84.2872 18.5029 83.5552 19.1261C83.0318 19.6455 82.2998 19.8533 81.2537 19.8533C80.313 19.8533 79.5803 19.5416 78.9529 19.1261C78.2209 18.5029 77.9076 17.568 77.8029 16.4253C77.8029 15.1788 78.2209 14.0361 79.1623 13.309C79.685 12.8935 80.313 12.6857 81.1497 12.6857C81.9864 12.6857 82.6138 12.8935 83.1365 13.309C84.2872 14.0361 84.8099 15.1788 84.7052 16.4253Z" fill="white"/>
<path d="M70.3764 10.6077C69.7489 10.0883 68.8076 9.77673 67.7618 9.67281C67.5525 9.67281 67.3434 9.67281 67.1343 9.67281C65.67 9.67281 64.5196 10.2961 63.4737 11.5427L63.2645 11.7504H62.8462C62.5324 11.3349 62.2187 10.9193 61.8003 10.7116C61.1727 10.0883 60.3361 9.77673 59.2902 9.67281C57.6168 9.46506 56.2572 9.98448 55.1068 11.231V9.88057H51.5508V22.7615H55.1068V16.0094V15.9055C55.1068 14.4512 55.3159 14.1396 55.5251 13.7241C55.9434 12.9969 56.7801 12.5814 57.6168 12.5814C58.4535 12.5814 59.2903 12.9969 59.7085 13.7241C60.0224 14.2435 60.0224 14.8667 60.0224 15.49V22.6576H63.6829V15.8016C63.6829 14.5551 63.892 14.0357 64.1012 13.6202C64.5195 12.893 65.3562 12.5814 66.1929 12.5814C67.0296 12.5814 67.7618 13.1008 68.1801 13.7241C68.3892 14.1396 68.4939 14.659 68.4939 15.0745C68.4939 15.2822 68.4939 15.3861 68.4939 15.5939V22.7615H72.0498V14.9706C72.0498 14.2435 71.9452 13.6202 71.8406 12.9969C71.6315 11.9582 71.1085 11.1272 70.3764 10.6077Z" fill="white"/>
<path d="M116.5 18.8145C115.977 19.3339 114.722 20.2688 113.048 20.3726C111.689 20.3726 110.538 20.0611 109.806 19.23C109.493 18.8145 109.179 18.399 109.074 17.8796H119.01V17.7757C119.114 17.2563 119.114 16.7369 119.114 16.3214C119.114 15.9059 119.01 15.2827 118.8 14.4516C118.382 12.9973 117.546 11.8547 116.395 10.9198C115.14 9.98484 113.885 9.67324 113.572 9.67324C110.957 9.25774 108.028 10.4003 106.564 12.7895C105.518 14.4516 105.518 16.1137 105.622 16.633C105.622 17.2564 105.727 19.23 107.296 20.8921C109.074 22.8658 111.689 22.9696 112.525 23.0735C116.082 23.1774 118.487 20.9959 119.01 20.4766L116.5 18.8145ZM110.329 13.4128C110.852 12.9973 111.479 12.7895 112.316 12.7895C113.153 12.7895 113.78 12.9973 114.304 13.4128C114.826 13.8283 115.245 14.3477 115.454 15.0749H109.074C109.388 14.3477 109.806 13.8283 110.329 13.4128Z" fill="white"/>
<path d="M26.8685 1.46667C18.8153 1.46667 12.4355 7.9071 12.4355 15.8019C12.4355 23.6966 18.9199 30.1371 26.8685 30.1371C34.8171 30.1371 41.3014 23.6966 41.3014 15.8019C41.406 7.9071 34.8171 1.46667 26.8685 1.46667ZM26.8685 21.0996C23.9401 21.0996 21.43 18.7104 21.43 15.8019C21.43 12.8933 23.8355 10.5041 26.8685 10.5041C29.9015 10.5041 32.307 12.8933 32.307 15.8019C32.2024 18.7104 29.9015 21.0996 26.8685 21.0996Z" fill="#8B3FFD"/>
<path d="M12.4354 5.72577V26.6053H7.31062L0.72168 5.72577H12.4354Z" fill="#8B3FFD"/>
</svg>
