<svg width="20" height="14" viewBox="0 0 20 14" fill="none" xmlns="http://www.w3.org/2000/svg">
<path d="M3.71864 13.0896C5.75178 13.3607 7.88657 13.4962 10.1569 13.4962C12.4272 13.4962 14.562 13.3607 16.5951 13.0896C18.3572 12.8524 19.6448 11.3614 19.6448 9.59939V4.05345C19.6448 2.29141 18.3233 0.800442 16.5951 0.563243C14.562 0.292158 12.3933 0.156616 10.1569 0.156616C7.92045 0.156616 5.75178 0.292158 3.71864 0.597128C1.99048 0.834327 0.668945 2.29141 0.668945 4.05345V9.59939C0.668945 11.3953 1.99048 12.8524 3.71864 13.0896ZM7.98822 5.28463C7.98822 4.36972 9.00479 3.82755 9.78416 4.30195L12.4272 5.99622C13.0372 6.36897 13.0372 7.24999 12.4272 7.65662L9.78416 9.35089C9.00479 9.85918 7.98822 9.28312 7.98822 8.36821V5.28463Z" fill="white" fill-opacity="0.5"/>
</svg>
