<svg width="12" height="13" viewBox="0 0 12 13" fill="none" xmlns="http://www.w3.org/2000/svg">
<path d="M10.2857 5.66465L9.85714 5.6875V3.65625C9.85714 1.63998 8.12705 0 6 0C3.87295 0 2.14286 1.63998 2.14286 3.65625V5.6875L1.71429 5.66465C0.767411 5.66465 0 6.39209 0 7.28965V11.3521C0 12.2495 0.767411 12.9771 1.71429 12.9771H10.2857C11.2326 12.9771 12 12.2495 12 11.3521V7.28965C12 6.41621 11.2312 5.66465 10.2857 5.66465ZM3.85714 3.65625C3.85714 2.53602 4.81875 1.625 6 1.625C7.18125 1.625 8.14286 2.53602 8.14286 3.65625V5.6875H3.85714V3.65625Z" fill="#848999"/>
</svg>
